<svg width="137" height="141" viewBox="0 0 137 141" fill="none" xmlns="http://www.w3.org/2000/svg">
<path d="M8.41026 99H41L32.5897 107.615H0L8.41026 99Z" fill="#E6EEF4"/>
<path d="M41 132.385L41 99L32.5897 107.615L32.5897 141L41 132.385Z" fill="#C5D3D5"/>
<rect y="107.615" width="32.5897" height="33.3846" fill="#D8E1E2"/>
<path d="M40.4103 99H73L64.5897 107.615H32L40.4103 99Z" fill="#E6EEF4"/>
<path d="M73 132.385L73 99L64.5897 107.615L64.5897 141L73 132.385Z" fill="#C5D3D5"/>
<rect x="32" y="107.615" width="32.5897" height="33.3846" fill="#D8E1E2"/>
<path d="M72.4103 99H105L96.5897 107.615H64L72.4103 99Z" fill="#E6EEF4"/>
<path d="M105 132.385L105 99L96.5897 107.615L96.5897 141L105 132.385Z" fill="#C5D3D5"/>
<rect x="64" y="107.615" width="32.5897" height="33.3846" fill="#D8E1E2"/>
<path d="M104.41 99H137L128.59 107.615H96L104.41 99Z" fill="#E6EEF4"/>
<path d="M137 132.385L137 99L128.59 107.615L128.59 141L137 132.385Z" fill="#AEBEC0"/>
<rect x="96" y="107.615" width="32.5897" height="33.3846" fill="#C4D2D5"/>
<path d="M8.41026 66H41L32.5897 74.6154H0L8.41026 66Z" fill="#DFE8EF"/>
<path d="M41 99.3846L41 66L32.5897 74.6154L32.5897 108L41 99.3846Z" fill="#AEBEC0"/>
<rect y="74.6154" width="32.5897" height="33.3846" fill="#C4D2D5"/>
<path d="M104.41 67H137L128.59 75.4103H96L104.41 67Z" fill="#E6EEF4"/>
<path d="M137 99.5897L137 67L128.59 75.4103L128.59 108L137 99.5897Z" fill="#C5D3D5"/>
<rect x="96" y="75.4103" width="32.5897" height="32.5897" fill="#D8E1E2"/>
<path d="M8.41026 33H41L32.5897 41.6154H0L8.41026 33Z" fill="#CB2E2E"/>
<path d="M41 66.3846L41 33L32.5897 41.6154L32.5897 75L41 66.3846Z" fill="#BE1B1B"/>
<rect y="41.6154" width="32.5897" height="33.3846" fill="#E15555"/>
<path d="M40.4103 33H73L64.5897 41.6154H32L40.4103 33Z" fill="#CB2E2E"/>
<path d="M73 66.3846L73 33L64.5897 41.6154L64.5897 75L73 66.3846Z" fill="#BE1B1B"/>
<rect x="32" y="41.6154" width="32.5897" height="33.3846" fill="#E15555"/>
<path d="M72.4103 33H105L96.5897 41.6154H64L72.4103 33Z" fill="#CB2E2E"/>
<path d="M105 66.3846L105 33L96.5897 41.6154L96.5897 75L105 66.3846Z" fill="#BE1B1B"/>
<rect x="64" y="41.6154" width="32.5897" height="33.3846" fill="#E15555"/>
<path d="M40.4103 0H73L64.5897 8.61539H32L40.4103 0Z" fill="#CB2E2E"/>
<path d="M73 33.3846L73 -2.14577e-06L64.5897 8.61538L64.5897 42L73 33.3846Z" fill="#BE1B1B"/>
<rect x="32" y="8.61538" width="32.5897" height="33.3846" fill="#E15555"/>
<path d="M48.134 36.5C48.5189 35.8333 49.4811 35.8333 49.866 36.5L61.1244 56C61.5093 56.6667 61.0281 57.5 60.2583 57.5H37.7417C36.9719 57.5 36.4907 56.6667 36.8756 56L48.134 36.5Z" fill="#FFCBC4"/>
<circle cx="49" cy="53" r="1" fill="#E15555"/>
<path d="M49 43C49.5523 43 50 43.4477 50 44V50C50 50.5523 49.5523 51 49 51V51C48.4477 51 48 50.5523 48 50V44C48 43.4477 48.4477 43 49 43V43Z" fill="#E15555"/>
</svg>
