<svg width="374" height="344" viewBox="0 0 374 344" fill="none" xmlns="http://www.w3.org/2000/svg">
<path opacity="0.1" d="M194.918 288.606C292.545 288.606 371.688 282.461 371.688 274.88C371.688 267.3 292.545 261.154 194.918 261.154C97.2899 261.154 18.1471 267.3 18.1471 274.88C18.1471 282.461 97.2899 288.606 194.918 288.606Z" fill="#206A7E"/>
<g opacity="0.1">
<path d="M326.997 228.11C326.336 226.104 323.655 225.18 321.011 226.049C320.63 226.173 320.261 226.333 319.91 226.525C319.741 226.478 319.566 226.437 319.389 226.405C319.534 225.828 319.589 225.232 319.553 224.638C320.465 224.028 321.205 223.194 321.702 222.215C322.199 221.237 322.436 220.147 322.39 219.05C323.3 218.439 324.037 217.603 324.532 216.625C325.027 215.647 325.263 214.558 325.217 213.463C326.133 212.859 326.873 212.021 327.359 211.037C328.634 208.512 328.106 205.676 326.177 204.7C324.248 203.724 321.648 204.981 320.373 207.505C319.868 208.48 319.631 209.571 319.689 210.667C318.779 211.279 318.042 212.114 317.547 213.093C317.052 214.071 316.816 215.16 316.862 216.255C315.953 216.867 315.215 217.702 314.72 218.681C314.225 219.659 313.99 220.748 314.036 221.843C313.124 222.454 312.384 223.289 311.888 224.268C311.391 225.247 311.154 226.337 311.199 227.433C310.282 228.038 309.543 228.875 309.057 229.859C308.817 230.334 308.636 230.835 308.516 231.353C308.196 230.886 307.806 230.471 307.36 230.122C307.309 229.725 307.222 229.333 307.1 228.951C306.231 226.304 303.899 224.69 301.895 225.351C299.891 226.012 298.964 228.691 299.833 231.337C300.189 232.472 300.874 233.476 301.801 234.221C301.852 234.619 301.939 235.011 302.061 235.392C302.566 236.928 303.563 238.115 304.703 238.711C304.602 239.042 304.53 239.382 304.487 239.726C303.412 240.759 302.72 242.128 302.524 243.606C301.449 244.64 300.757 246.01 300.562 247.489C300.029 248.001 299.589 248.6 299.261 249.262C297.983 251.786 298.511 254.626 300.44 255.599C302.368 256.572 304.968 255.321 306.246 252.793C306.583 252.134 306.803 251.422 306.897 250.688C307.972 249.654 308.664 248.286 308.859 246.807C309.935 245.773 310.627 244.404 310.822 242.924C311.889 241.888 312.573 240.52 312.761 239.044C313.84 238.01 314.534 236.638 314.728 235.155C315.059 234.842 315.355 234.492 315.61 234.114C316.674 234.333 317.776 234.263 318.804 233.914C319.185 233.79 319.553 233.63 319.905 233.438C321.056 233.741 322.271 233.698 323.397 233.313C326.034 232.451 327.655 230.119 326.997 228.11Z" fill="#3F3D56"/>
<g opacity="0.1">
<path d="M322.33 220.198C322.057 220.467 321.757 220.707 321.435 220.914C321.476 221.657 321.378 222.401 321.146 223.108C321.351 222.825 321.534 222.526 321.693 222.215C322.015 221.583 322.231 220.901 322.33 220.198Z" fill="black"/>
<path d="M325.157 214.61C324.884 214.879 324.584 215.119 324.261 215.326C324.302 216.069 324.204 216.813 323.973 217.52C324.178 217.236 324.361 216.937 324.519 216.625C324.841 215.993 325.056 215.312 325.157 214.61Z" fill="black"/>
<path d="M318.746 212.531C318.723 212.148 318.737 211.763 318.791 211.383C318.285 211.881 317.865 212.459 317.547 213.093C317.39 213.406 317.257 213.73 317.151 214.064C317.582 213.457 318.123 212.937 318.746 212.531Z" fill="black"/>
<path d="M300.807 246.347C301.034 246.03 301.291 245.735 301.574 245.467C301.619 245.114 301.694 244.766 301.801 244.426C301.575 244.73 301.375 245.053 301.205 245.392C301.048 245.699 300.914 246.018 300.807 246.347Z" fill="black"/>
<path d="M302.769 242.469C302.996 242.152 303.254 241.857 303.537 241.589C303.579 241.245 303.652 240.906 303.753 240.574C303.537 240.869 303.345 241.182 303.18 241.508C303.019 241.818 302.882 242.139 302.769 242.469Z" fill="black"/>
<path d="M319.501 225.786C319.23 226.055 318.93 226.294 318.609 226.499C318.644 227.093 318.589 227.689 318.445 228.266C318.62 228.297 318.794 228.337 318.965 228.386C319.316 228.193 319.685 228.034 320.066 227.91C322.715 227.04 325.394 227.964 326.052 229.971C326.215 230.475 326.244 231.014 326.135 231.533C327.007 230.507 327.369 229.258 326.994 228.113C326.333 226.106 323.652 225.182 321.008 226.052C320.627 226.176 320.259 226.335 319.907 226.528C319.738 226.481 319.564 226.439 319.387 226.408C319.436 226.2 319.473 225.994 319.501 225.786Z" fill="black"/>
<path d="M299.838 248.296C299.612 248.6 299.413 248.923 299.242 249.262C299.084 249.575 298.95 249.901 298.842 250.235C299.074 249.917 299.335 249.62 299.622 249.35C299.663 248.993 299.735 248.64 299.838 248.296Z" fill="black"/>
<path d="M315.907 218.119C315.883 217.736 315.898 217.351 315.951 216.971C315.446 217.469 315.026 218.047 314.707 218.681C314.55 218.994 314.418 219.318 314.312 219.652C314.742 219.045 315.284 218.525 315.907 218.119Z" fill="black"/>
<path d="M311.824 240.907C311.772 241.294 311.685 241.676 311.563 242.047C311.767 241.763 311.949 241.464 312.107 241.152C312.278 240.817 312.42 240.469 312.531 240.111C312.318 240.396 312.082 240.662 311.824 240.907Z" fill="black"/>
<path d="M307.899 248.668C307.848 249.055 307.761 249.437 307.639 249.808C307.844 249.525 308.027 249.225 308.185 248.913C308.355 248.578 308.496 248.23 308.609 247.872C308.396 248.157 308.158 248.424 307.899 248.668Z" fill="black"/>
<path d="M309.861 244.785C309.81 245.172 309.723 245.554 309.601 245.925C309.808 245.646 309.994 245.352 310.158 245.045C310.328 244.711 310.47 244.363 310.582 244.004C310.364 244.284 310.123 244.546 309.861 244.785Z" fill="black"/>
<path d="M313.786 237.027C313.735 237.413 313.648 237.794 313.526 238.164C313.73 237.881 313.912 237.583 314.07 237.271C314.242 236.931 314.385 236.577 314.496 236.212C314.284 236.504 314.047 236.777 313.786 237.027Z" fill="black"/>
<path d="M300.937 227.212C302.946 226.554 305.278 228.165 306.142 230.812C306.264 231.194 306.351 231.587 306.402 231.985C306.848 232.334 307.238 232.749 307.558 233.217C307.678 232.698 307.859 232.195 308.099 231.72C308.19 231.543 308.289 231.374 308.391 231.2C308.095 230.791 307.745 230.425 307.35 230.112C307.299 229.714 307.211 229.322 307.089 228.94C306.22 226.294 303.888 224.68 301.884 225.341C300.739 225.716 299.948 226.749 299.641 228.056C299.993 227.668 300.439 227.377 300.937 227.212Z" fill="black"/>
<path d="M310.254 229.294C310.231 228.912 310.247 228.528 310.301 228.149C309.794 228.647 309.373 229.224 309.054 229.859C308.897 230.171 308.764 230.495 308.659 230.827C309.091 230.222 309.632 229.702 310.254 229.294Z" fill="black"/>
<path d="M313.081 223.704C313.058 223.322 313.073 222.938 313.127 222.559C312.62 223.055 312.198 223.632 311.881 224.266C311.724 224.579 311.591 224.903 311.485 225.237C311.916 224.63 312.457 224.11 313.081 223.704Z" fill="black"/>
<path d="M305.936 252.549C305.885 252.937 305.798 253.319 305.676 253.691C306.104 253.099 306.432 252.44 306.647 251.742C306.434 252.031 306.196 252.301 305.936 252.549Z" fill="black"/>
</g>
<path d="M330.854 202.287C331.771 201.684 332.511 200.846 332.996 199.861C334.274 197.337 333.745 194.497 331.817 193.521C329.888 192.545 327.288 193.803 326.01 196.33C325.504 197.307 325.269 198.401 325.329 199.5C324.419 200.112 323.681 200.947 323.187 201.925C322.692 202.903 322.456 203.992 322.502 205.087C321.584 205.69 320.845 206.528 320.36 207.513C320.204 207.822 320.072 208.143 319.967 208.473C320.647 207.49 321.632 206.758 322.77 206.391C322.9 206.792 323.108 207.163 323.382 207.483C323.656 207.804 323.99 208.066 324.367 208.256C324.743 208.446 325.153 208.559 325.573 208.589C325.993 208.619 326.415 208.566 326.815 208.432C327.199 209.563 327.199 210.79 326.815 211.922C327.018 211.642 327.199 211.346 327.356 211.037C327.861 210.062 328.096 208.971 328.038 207.875C328.949 207.264 329.687 206.429 330.182 205.451C330.677 204.472 330.912 203.383 330.864 202.287H330.854Z" fill="#3F3D56"/>
<path d="M361.919 166.465C362.703 166.099 363.462 165.679 364.188 165.208L355.774 159.06L365.664 164.154C367.665 162.564 369.32 160.583 370.528 158.332C371.736 156.08 372.472 153.606 372.691 151.06L355.883 151.232L372.727 148.416C372.553 145.867 371.86 143.381 370.69 141.111C369.52 138.84 367.898 136.832 365.924 135.211C363.95 133.59 361.666 132.39 359.211 131.684C356.756 130.978 354.183 130.782 351.649 131.106C349.116 131.431 346.675 132.271 344.478 133.573C342.28 134.875 340.373 136.613 338.871 138.68C337.37 140.746 336.307 143.098 335.748 145.591C335.189 148.083 335.145 150.663 335.619 153.173C334.398 153.741 333.241 154.439 332.168 155.255L340.952 167.469L330.406 156.778C328.181 158.963 326.535 161.669 325.618 164.651C324.702 167.632 324.543 170.795 325.157 173.854C321.971 175.34 319.268 177.694 317.356 180.644C315.444 183.595 314.401 187.023 314.346 190.539C314.291 194.054 315.225 197.514 317.043 200.523C318.861 203.532 321.489 205.969 324.626 207.556C327.764 209.143 331.284 209.814 334.785 209.495C338.286 209.176 341.627 207.878 344.425 205.75C347.224 203.621 349.367 200.749 350.61 197.461C351.854 194.172 352.147 190.6 351.456 187.153C355.268 185.378 358.373 182.373 360.271 178.621C362.168 174.869 362.749 170.587 361.919 166.465Z" fill="#206A7E"/>
<path opacity="0.1" d="M326.815 161.697C324.911 165.447 324.328 169.731 325.162 173.853C321.976 175.34 319.273 177.694 317.361 180.644C315.45 183.595 314.407 187.023 314.351 190.539C314.296 194.054 315.231 197.514 317.048 200.523C318.866 203.532 321.494 205.969 324.631 207.556C327.769 209.142 331.289 209.814 334.79 209.495C338.291 209.176 341.632 207.878 344.431 205.75C347.229 203.621 349.372 200.749 350.616 197.46C351.859 194.172 352.152 190.6 351.461 187.153C355.139 185.445 327.757 159.82 326.815 161.697Z" fill="black"/>
<path d="M347.932 134.564C349.469 134.564 350.714 133.319 350.714 131.782C350.714 130.246 349.469 129 347.932 129C346.396 129 345.15 130.246 345.15 131.782C345.15 133.319 346.396 134.564 347.932 134.564Z" fill="#206A7E"/>
<path d="M364.183 136.35C365.72 136.35 366.965 135.104 366.965 133.568C366.965 132.031 365.72 130.785 364.183 130.785C362.646 130.785 361.401 132.031 361.401 133.568C361.401 135.104 362.646 136.35 364.183 136.35Z" fill="#206A7E"/>
<path d="M370.45 161.35C371.987 161.35 373.232 160.105 373.232 158.568C373.232 157.032 371.987 155.786 370.45 155.786C368.914 155.786 367.668 157.032 367.668 158.568C367.668 160.105 368.914 161.35 370.45 161.35Z" fill="#206A7E"/>
<path d="M361.992 173.835C363.528 173.835 364.774 172.59 364.774 171.053C364.774 169.516 363.528 168.271 361.992 168.271C360.455 168.271 359.209 169.516 359.209 171.053C359.209 172.59 360.455 173.835 361.992 173.835Z" fill="#206A7E"/>
<path d="M350.436 199.765C351.973 199.765 353.218 198.519 353.218 196.983C353.218 195.446 351.973 194.201 350.436 194.201C348.899 194.201 347.654 195.446 347.654 196.983C347.654 198.519 348.899 199.765 350.436 199.765Z" fill="#206A7E"/>
<path opacity="0.1" d="M350.436 199.765C351.973 199.765 353.218 198.519 353.218 196.983C353.218 195.446 351.973 194.201 350.436 194.201C348.899 194.201 347.654 195.446 347.654 196.983C347.654 198.519 348.899 199.765 350.436 199.765Z" fill="black"/>
<path d="M324.743 170.397C326.28 170.397 327.525 169.152 327.525 167.615C327.525 166.078 326.28 164.833 324.743 164.833C323.206 164.833 321.961 166.078 321.961 167.615C321.961 169.152 323.206 170.397 324.743 170.397Z" fill="#206A7E"/>
<path opacity="0.1" d="M324.743 170.397C326.28 170.397 327.525 169.152 327.525 167.615C327.525 166.078 326.28 164.833 324.743 164.833C323.206 164.833 321.961 166.078 321.961 167.615C321.961 169.152 323.206 170.397 324.743 170.397Z" fill="black"/>
<path opacity="0.1" d="M321.776 213.377C319.926 212.442 319.366 209.796 320.446 207.354C320.389 207.453 320.334 207.555 320.282 207.661C319.004 210.186 319.533 213.023 321.461 213.999C323.39 214.975 325.99 213.718 327.265 211.193C327.32 211.089 327.366 210.982 327.413 210.878C326.089 213.197 323.624 214.314 321.776 213.377Z" fill="black"/>
<path opacity="0.1" d="M319.028 218.811C317.18 217.877 316.618 215.23 317.7 212.786C317.643 212.887 317.586 212.989 317.534 213.093C316.256 215.618 316.784 218.457 318.713 219.43C320.641 220.404 323.241 219.152 324.519 216.625C324.571 216.521 324.621 216.417 324.668 216.31C323.34 218.629 320.878 219.745 319.028 218.811Z" fill="black"/>
<path opacity="0.1" d="M316.279 224.243C314.431 223.308 313.869 220.661 314.952 218.22C314.895 218.319 314.837 218.421 314.785 218.527C313.508 221.052 314.038 223.889 315.967 224.865C317.896 225.841 320.493 224.584 321.771 222.059C321.823 221.955 321.872 221.848 321.919 221.744C320.594 224.063 318.13 225.18 316.279 224.243Z" fill="black"/>
<path opacity="0.1" d="M313.541 229.69C311.691 228.756 311.131 226.109 312.211 223.668C312.154 223.766 312.099 223.868 312.045 223.972C310.77 226.497 311.298 229.336 313.226 230.312C315.155 231.288 317.755 230.031 319.03 227.504C319.085 227.4 319.132 227.296 319.179 227.189C317.846 229.495 315.381 230.611 313.541 229.69Z" fill="black"/>
<path opacity="0.1" d="M310.785 235.109C308.935 234.174 308.375 231.527 309.455 229.086C309.398 229.185 309.343 229.287 309.291 229.393C308.013 231.918 308.542 234.755 310.47 235.731C312.399 236.707 314.999 235.45 316.277 232.925C316.329 232.821 316.378 232.714 316.425 232.61C315.103 234.929 312.633 236.046 310.785 235.109Z" fill="black"/>
<path opacity="0.1" d="M308.037 240.543C306.189 239.609 305.627 236.962 306.709 234.52C306.652 234.619 306.595 234.721 306.543 234.825C305.265 237.349 305.793 240.189 307.724 241.165C309.656 242.141 312.24 240.881 313.541 238.357C313.593 238.253 313.643 238.148 313.69 238.042C312.349 240.361 309.898 241.477 308.037 240.543Z" fill="black"/>
<path opacity="0.1" d="M305.288 245.975C303.441 245.04 302.878 242.393 303.961 239.952C303.904 240.054 303.849 240.152 303.795 240.259C302.519 242.784 303.048 245.621 304.976 246.597C306.905 247.573 309.505 246.315 310.78 243.791C310.835 243.687 310.881 243.58 310.928 243.476C309.604 245.795 307.139 246.911 305.288 245.975Z" fill="black"/>
<path opacity="0.1" d="M302.543 251.409C300.692 250.474 300.133 247.828 301.213 245.386C301.155 245.485 301.101 245.587 301.049 245.691C299.771 248.215 300.299 251.055 302.228 252.031C304.156 253.007 306.756 251.75 308.034 249.223C308.086 249.118 308.133 249.014 308.18 248.908C306.855 251.227 304.39 252.333 302.543 251.409Z" fill="black"/>
<path opacity="0.1" d="M300.736 254.98C298.889 254.043 298.326 251.398 299.409 248.954C299.352 249.056 299.295 249.158 299.243 249.262C297.965 251.786 298.493 254.626 300.422 255.599C302.35 256.572 304.95 255.32 306.228 252.793C306.28 252.689 306.329 252.585 306.376 252.478C305.049 254.797 302.584 255.914 300.736 254.98Z" fill="black"/>
<path d="M350.392 230.799C350.679 229.976 350.854 229.12 350.912 228.251C351.103 228.25 351.293 228.21 351.468 228.134C351.643 228.057 351.8 227.945 351.93 227.804C352.059 227.664 352.159 227.498 352.222 227.318C352.285 227.137 352.31 226.946 352.295 226.755C352.28 226.565 352.227 226.379 352.137 226.21C352.048 226.041 351.924 225.893 351.775 225.774C351.625 225.655 351.453 225.568 351.268 225.518C351.083 225.469 350.891 225.458 350.702 225.487C350.392 224.078 349.773 222.756 348.889 221.617C348.005 220.477 346.878 219.549 345.59 218.9C345.756 218.57 345.785 218.188 345.67 217.838C345.555 217.488 345.305 217.197 344.976 217.031C344.647 216.865 344.265 216.836 343.914 216.951C343.564 217.066 343.273 217.316 343.107 217.645C343.047 217.762 343.005 217.888 342.982 218.017C341.455 217.733 339.882 217.817 338.394 218.263C336.906 218.709 335.546 219.503 334.427 220.581C333.582 220.444 332.723 220.419 331.872 220.505L330.745 225.635L330.677 220.69C329.384 220.974 328.161 221.518 327.086 222.29C326.01 223.062 325.102 224.045 324.419 225.179C323.736 226.313 323.292 227.575 323.113 228.887C322.934 230.199 323.024 231.534 323.379 232.81C323.733 234.086 324.344 235.276 325.174 236.308C326.004 237.339 327.035 238.191 328.206 238.811C329.376 239.43 330.66 239.804 331.98 239.911C333.3 240.017 334.628 239.853 335.882 239.429C336.016 239.671 336.22 239.867 336.468 239.991C336.723 240.121 337.011 240.168 337.294 240.128C337.577 240.087 337.841 239.961 338.049 239.765C338.257 239.569 338.4 239.314 338.458 239.034C338.516 238.754 338.486 238.463 338.373 238.201C338.817 237.896 339.235 237.554 339.622 237.18C341.654 237.511 343.738 237.189 345.576 236.262C347.414 235.335 348.911 233.85 349.853 232.019L344.609 231.137L350.392 230.799Z" fill="#206A7E"/>
<g opacity="0.1">
<path d="M342.29 233.289C340.354 230.734 339.167 227.707 337.8 224.802C337.252 223.61 336.637 222.449 335.96 221.325L334.935 220.131C334.763 220.276 334.591 220.427 334.414 220.586C333.569 220.449 332.71 220.424 331.859 220.511L330.732 225.64L330.664 220.695C329.371 220.979 328.148 221.523 327.073 222.295C325.997 223.067 325.089 224.05 324.406 225.184C323.723 226.319 323.279 227.58 323.1 228.892C322.921 230.204 323.011 231.539 323.366 232.815C323.72 234.091 324.331 235.281 325.161 236.313C325.991 237.345 327.022 238.196 328.193 238.816C329.363 239.435 330.647 239.81 331.967 239.916C333.287 240.022 334.615 239.858 335.869 239.434C336.003 239.676 336.207 239.872 336.455 239.996C336.71 240.126 336.998 240.173 337.281 240.133C337.564 240.092 337.828 239.966 338.036 239.77C338.244 239.574 338.387 239.319 338.445 239.039C338.503 238.759 338.473 238.468 338.36 238.206C338.804 237.901 339.222 237.56 339.609 237.185C341.598 237.507 343.639 237.206 345.449 236.321C344.241 235.486 343.174 234.463 342.29 233.289Z" fill="black"/>
</g>
<path d="M308 222.306C308.108 222.094 308.159 221.858 308.149 221.62C308.139 221.383 308.068 221.152 307.943 220.95C307.818 220.747 307.644 220.58 307.436 220.465C307.228 220.349 306.994 220.289 306.756 220.289C306.362 218.198 305.292 216.293 303.711 214.868C303.966 213.874 304.063 212.847 303.998 211.823L298.883 210.951L303.849 210.639C303.76 210.173 303.637 209.713 303.482 209.265C303.676 209.132 303.833 208.953 303.94 208.744C304.066 208.495 304.113 208.215 304.077 207.939C304.042 207.662 303.924 207.403 303.739 207.195C303.554 206.986 303.311 206.838 303.041 206.769C302.772 206.7 302.487 206.713 302.225 206.808C300.91 204.949 298.985 203.61 296.786 203.024C294.586 202.437 292.25 202.639 290.184 203.596C288.118 204.552 286.452 206.202 285.476 208.259C284.501 210.316 284.276 212.65 284.842 214.855C284.541 214.982 284.296 215.213 284.15 215.506C284.022 215.758 283.975 216.043 284.013 216.323C284.051 216.603 284.174 216.864 284.365 217.072C284.556 217.281 284.806 217.426 285.081 217.489C285.356 217.552 285.645 217.529 285.907 217.424C286.406 218.262 287.028 219.021 287.752 219.675C287.225 221.731 287.384 223.902 288.205 225.859L295.063 224.079L288.947 227.296C290.028 229.014 291.619 230.351 293.498 231.121C295.377 231.89 297.45 232.053 299.426 231.587C301.402 231.121 303.183 230.049 304.52 228.52C305.856 226.992 306.682 225.084 306.881 223.064C307.117 223.043 307.343 222.963 307.539 222.831C307.735 222.698 307.894 222.518 308 222.306Z" fill="#206A7E"/>
<path opacity="0.1" d="M308 222.306C308.108 222.094 308.159 221.858 308.149 221.62C308.139 221.383 308.068 221.152 307.943 220.95C307.818 220.747 307.644 220.58 307.436 220.465C307.228 220.349 306.994 220.289 306.756 220.289C306.362 218.198 305.292 216.293 303.711 214.868C303.753 214.704 303.789 214.543 303.821 214.379C303.639 214.51 303.471 214.659 303.318 214.824C302.394 215.836 301.921 217.197 301.007 218.22C299.93 219.428 298.316 220.058 296.705 220.227C295.094 220.396 293.473 220.149 291.882 219.839C290.565 219.579 289.23 219.277 287.895 219.404C287.765 219.404 287.635 219.433 287.515 219.454C287.593 219.529 287.671 219.605 287.752 219.678C287.225 221.733 287.384 223.905 288.205 225.862L295.063 224.079L288.947 227.296C290.028 229.014 291.619 230.351 293.498 231.121C295.377 231.89 297.45 232.053 299.426 231.587C301.402 231.121 303.183 230.049 304.52 228.52C305.856 226.992 306.682 225.084 306.881 223.064C307.117 223.043 307.343 222.963 307.539 222.831C307.735 222.698 307.894 222.518 308 222.306Z" fill="black"/>
</g>
<g opacity="0.1">
<path d="M37.2216 212.64C37.754 211.022 39.9127 210.278 42.0423 210.977C42.3486 211.077 42.6451 211.205 42.9282 211.359C43.0655 211.322 43.2069 211.288 43.3441 211.264C43.2273 210.799 43.1824 210.319 43.211 209.841C42.48 209.347 41.8873 208.674 41.4892 207.886C41.091 207.099 40.9006 206.222 40.9359 205.341C40.1985 204.855 39.604 204.182 39.2139 203.39C38.8075 202.605 38.6166 201.727 38.6608 200.844C37.9238 200.357 37.3296 199.682 36.9388 198.89C35.9156 196.86 36.3315 194.576 37.8913 193.786C39.451 192.996 41.539 194.015 42.5663 196.045C42.9721 196.831 43.1616 197.711 43.1154 198.594C43.8484 199.086 44.4426 199.757 44.8411 200.545C45.2395 201.332 45.4287 202.209 45.3905 203.09C46.1232 203.583 46.7172 204.256 47.1156 205.044C47.514 205.832 47.7034 206.709 47.6656 207.591C48.3986 208.082 48.9929 208.754 49.3913 209.541C49.7898 210.329 49.979 211.205 49.9408 212.087C50.6792 212.574 51.2749 213.249 51.6669 214.042C51.8539 214.426 51.9936 214.831 52.0828 215.248C52.3391 214.871 52.6519 214.536 53.0104 214.254C53.0531 213.933 53.1255 213.617 53.2266 213.31C53.9296 211.18 55.8054 209.883 57.4234 210.398C59.0413 210.914 59.7817 213.089 59.0871 215.219C58.8 216.134 58.2486 216.943 57.5024 217.544C57.4592 217.863 57.3868 218.178 57.2861 218.484C56.9447 219.613 56.1842 220.568 55.1607 221.154C55.241 221.427 55.2994 221.705 55.3354 221.986C55.7648 222.398 56.1207 222.881 56.3877 223.413C56.6598 223.944 56.8372 224.518 56.9118 225.11C57.3428 225.522 57.7001 226.004 57.9682 226.536C58.2398 227.068 58.4172 227.642 58.4923 228.233C58.9244 228.646 59.2818 229.13 59.5488 229.664C60.5761 231.694 60.1519 233.982 58.6005 234.764C57.049 235.546 54.9528 234.539 53.9254 232.505C53.6545 231.974 53.4772 231.4 53.4013 230.808C52.5347 229.977 51.9773 228.875 51.8208 227.684C50.9542 226.853 50.3967 225.751 50.2403 224.561C49.8095 224.149 49.4523 223.666 49.1838 223.134C48.9148 222.602 48.7376 222.028 48.6597 221.437C48.2303 221.025 47.8744 220.543 47.6074 220.011C47.3353 219.48 47.1579 218.905 47.0833 218.314C46.8156 218.064 46.577 217.785 46.3721 217.482C45.5164 217.657 44.6295 217.602 43.8017 217.324C43.4942 217.221 43.1963 217.092 42.9116 216.937C41.9865 217.182 41.0093 217.148 40.104 216.837C37.9953 216.134 36.6934 214.258 37.2216 212.64Z" fill="#3F3D56"/>
<g opacity="0.1">
<path d="M40.9776 206.264C41.1981 206.481 41.4406 206.675 41.7013 206.842C41.6661 207.439 41.7451 208.038 41.9342 208.606C41.7671 208.379 41.6196 208.138 41.4933 207.886C41.2332 207.378 41.0589 206.829 40.9776 206.264Z" fill="black"/>
<path d="M38.7024 201.772C38.924 201.987 39.1664 202.179 39.4261 202.346C39.3911 202.945 39.4702 203.545 39.659 204.114C39.1552 203.422 38.8269 202.619 38.7024 201.772Z" fill="black"/>
<path d="M43.8724 200.096C43.8922 199.788 43.8811 199.478 43.8392 199.172C44.2458 199.574 44.5843 200.039 44.8416 200.549C44.9671 200.801 45.0728 201.063 45.1577 201.331C44.8111 200.842 44.375 200.423 43.8724 200.096Z" fill="black"/>
<path d="M58.3052 227.323C58.1234 227.068 57.9172 226.831 57.6896 226.616C57.6517 226.334 57.5905 226.055 57.5066 225.784C57.6871 226.028 57.8471 226.287 57.9849 226.557C58.1111 226.804 58.2182 227.06 58.3052 227.323Z" fill="black"/>
<path d="M56.7122 224.199C56.5303 223.944 56.3242 223.707 56.0966 223.492C56.0626 223.21 56.0042 222.932 55.9219 222.66C56.2646 223.124 56.5287 223.641 56.7039 224.191L56.7122 224.199Z" fill="black"/>
<path d="M43.2568 210.773C43.4751 210.988 43.7164 211.179 43.9763 211.343C43.9452 211.821 43.9902 212.301 44.1094 212.765C43.9692 212.79 43.8304 212.822 43.6935 212.861C43.4086 212.707 43.1107 212.579 42.8034 212.478C40.6738 211.779 38.5152 212.524 37.9869 214.142C37.8545 214.544 37.8302 214.975 37.9162 215.39C37.574 215.03 37.3306 214.587 37.2097 214.106C37.0887 213.624 37.0942 213.119 37.2258 212.64C37.7582 211.022 39.9168 210.278 42.0464 210.977C42.3527 211.077 42.6492 211.205 42.9323 211.359C43.0696 211.322 43.211 211.289 43.3483 211.264C43.3083 211.102 43.2777 210.938 43.2568 210.773Z" fill="black"/>
<path d="M59.0872 228.891C59.2686 229.136 59.4286 229.396 59.5655 229.668C59.6925 229.92 59.7995 230.182 59.8857 230.45C59.7039 230.194 59.4978 229.956 59.2702 229.739C59.2331 229.452 59.1719 229.168 59.0872 228.891Z" fill="black"/>
<path d="M46.1476 204.6C46.1675 204.292 46.1563 203.983 46.1143 203.677C46.5219 204.078 46.8606 204.543 47.1167 205.054C47.2423 205.304 47.348 205.564 47.4328 205.832C47.0861 205.344 46.65 204.926 46.1476 204.6Z" fill="black"/>
<path d="M49.4375 222.943C49.4765 223.254 49.5447 223.56 49.6414 223.858C49.2948 223.383 49.0304 222.853 48.8594 222.29C49.0322 222.524 49.2257 222.743 49.4375 222.943Z" fill="black"/>
<path d="M52.5944 229.19C52.6364 229.501 52.706 229.807 52.8024 230.105C52.6353 229.878 52.4878 229.638 52.3615 229.386C52.2247 229.118 52.1106 228.84 52.0204 228.554C52.1946 228.781 52.3866 228.994 52.5944 229.19Z" fill="black"/>
<path d="M51.0181 226.067C51.057 226.377 51.1253 226.684 51.2219 226.982C51.0562 226.754 50.9088 226.513 50.781 226.262C50.6437 225.995 50.5296 225.717 50.4399 225.43C50.6135 225.659 50.807 225.872 51.0181 226.067Z" fill="black"/>
<path d="M47.857 219.815C47.8954 220.127 47.9637 220.435 48.0608 220.734C47.9031 220.506 47.764 220.265 47.6448 220.015C47.5054 219.748 47.3899 219.47 47.2996 219.183C47.4658 219.41 47.6524 219.622 47.857 219.815Z" fill="black"/>
<path d="M58.2012 211.917C56.5832 211.384 54.7074 212.682 54.0086 214.828C53.9075 215.135 53.8351 215.452 53.7923 215.772C53.4326 216.052 53.1183 216.386 52.8607 216.762C52.7641 216.344 52.6175 215.939 52.4239 215.556C52.3532 215.415 52.2742 215.277 52.191 215.14C52.4271 214.812 52.707 214.518 53.0229 214.267C53.0656 213.946 53.138 213.63 53.2391 213.322C53.9421 211.193 55.8179 209.895 57.4359 210.411C57.8999 210.589 58.3099 210.884 58.6262 211.267C58.9425 211.651 59.1543 212.109 59.241 212.599C58.9584 212.286 58.6004 212.051 58.2012 211.917Z" fill="black"/>
<path d="M50.6978 213.593C50.7176 213.285 50.7064 212.975 50.6645 212.669C51.0721 213.07 51.4108 213.535 51.6669 214.046C51.7925 214.298 51.8982 214.56 51.983 214.828C51.6375 214.338 51.2012 213.919 50.6978 213.593Z" fill="black"/>
<path d="M48.4226 209.092C48.4424 208.784 48.4312 208.475 48.3894 208.169C48.795 208.571 49.1335 209.036 49.3918 209.546C49.5173 209.798 49.623 210.059 49.7079 210.328C49.3613 209.839 48.9252 209.419 48.4226 209.092Z" fill="black"/>
<path d="M54.175 232.314C54.215 232.626 54.2846 232.934 54.383 233.233C54.2167 233.004 54.0693 232.762 53.9421 232.509C53.8053 232.242 53.6912 231.964 53.601 231.677C53.7752 231.904 53.9672 232.117 54.175 232.314Z" fill="black"/>
</g>
<path d="M34.1146 191.848C33.3772 191.363 32.7827 190.689 32.3926 189.897C31.3653 187.863 31.7895 185.58 33.3409 184.794C34.8924 184.008 36.9887 185.018 38.016 187.052C38.4224 187.837 38.6119 188.715 38.565 189.598C39.2978 190.09 39.8918 190.763 40.2901 191.551C40.6885 192.339 40.8779 193.216 40.8402 194.098C41.5781 194.584 42.1737 195.257 42.5663 196.049C42.6911 196.298 42.7968 196.557 42.8824 196.822C42.3314 196.036 41.5382 195.452 40.6239 195.159C40.522 195.484 40.3565 195.785 40.1368 196.045C39.9172 196.305 39.6479 196.519 39.3446 196.674C39.0414 196.829 38.7104 196.922 38.3708 196.947C38.0313 196.973 37.6901 196.93 37.3672 196.822C37.0588 197.733 37.0588 198.72 37.3672 199.63C37.2109 199.404 37.0718 199.166 36.9512 198.919C36.5448 198.134 36.3539 197.256 36.398 196.373C35.6662 195.88 35.0728 195.207 34.6746 194.419C34.2763 193.631 34.0864 192.755 34.1229 191.873L34.1146 191.848Z" fill="#3F3D56"/>
<path d="M9.10891 163.007C8.47799 162.712 7.86793 162.375 7.28298 161.997L14.0543 157.047L6.09342 161.144C4.48381 159.864 3.15231 158.269 2.18039 156.457C1.20847 154.645 0.616567 152.653 0.440919 150.604L13.9753 150.746L0.411804 148.475C0.528591 146.405 1.07023 144.383 2.00297 142.532C2.93571 140.681 4.23958 139.042 5.83333 137.718C7.42707 136.393 9.27656 135.41 11.2666 134.832C13.2565 134.253 15.3444 134.09 17.4001 134.353C19.4557 134.617 21.4351 135.301 23.2149 136.362C24.9947 137.424 26.5368 138.841 27.7451 140.525C28.9534 142.209 29.8021 144.123 30.2381 146.149C30.6742 148.175 30.6884 150.269 30.2798 152.301C31.2622 152.756 32.1936 153.313 33.0582 153.965L25.9874 163.797L34.4765 155.196C36.2679 156.956 37.5924 159.134 38.3302 161.534C39.068 163.934 39.1959 166.481 38.7024 168.943C41.2704 170.139 43.4499 172.033 44.9918 174.41C46.5337 176.786 47.3756 179.549 47.4214 182.382C47.4671 185.214 46.7148 188.002 45.2505 190.427C43.7861 192.852 41.6689 194.817 39.1408 196.095C36.6128 197.373 33.776 197.915 30.9549 197.657C28.1337 197.399 25.4421 196.352 23.1878 194.636C20.9335 192.921 19.2076 190.605 18.2073 187.955C17.207 185.304 16.9728 182.426 17.5315 179.649C14.4665 178.22 11.9701 175.804 10.4427 172.787C8.9154 169.77 8.44568 166.327 9.10891 163.011V163.007Z" fill="#206A7E"/>
<path opacity="0.1" d="M37.3714 159.172C38.9054 162.191 39.3744 165.64 38.7024 168.959C41.2704 170.155 43.4499 172.05 44.9918 174.427C46.5337 176.803 47.3756 179.566 47.4213 182.398C47.4671 185.231 46.7148 188.019 45.2504 190.444C43.7861 192.869 41.6689 194.833 39.1408 196.112C36.6128 197.39 33.776 197.931 30.9548 197.673C28.1337 197.415 25.4421 196.369 23.1878 194.653C20.9335 192.937 19.2076 190.622 18.2073 187.971C17.207 185.321 16.9728 182.443 17.5315 179.665C14.5659 178.289 36.6102 157.663 37.3714 159.172Z" fill="black"/>
<path d="M20.3681 137.328C21.6063 137.328 22.61 136.324 22.61 135.086C22.61 133.848 21.6063 132.844 20.3681 132.844C19.13 132.844 18.1263 133.848 18.1263 135.086C18.1263 136.324 19.13 137.328 20.3681 137.328Z" fill="#206A7E"/>
<path d="M7.28297 138.767C8.52112 138.767 9.52484 137.763 9.52484 136.525C9.52484 135.287 8.52112 134.283 7.28297 134.283C6.04482 134.283 5.04111 135.287 5.04111 136.525C5.04111 137.763 6.04482 138.767 7.28297 138.767Z" fill="#206A7E"/>
<path d="M2.24187 158.894C3.48001 158.894 4.48373 157.89 4.48373 156.652C4.48373 155.414 3.48001 154.41 2.24187 154.41C1.00372 154.41 0 155.414 0 156.652C0 157.89 1.00372 158.894 2.24187 158.894Z" fill="#206A7E"/>
<path d="M9.0507 168.947C10.2889 168.947 11.2926 167.943 11.2926 166.705C11.2926 165.467 10.2889 164.463 9.0507 164.463C7.81256 164.463 6.80884 165.467 6.80884 166.705C6.80884 167.943 7.81256 168.947 9.0507 168.947Z" fill="#206A7E"/>
<path d="M18.3508 189.822C19.589 189.822 20.5927 188.819 20.5927 187.58C20.5927 186.342 19.589 185.339 18.3508 185.339C17.1127 185.339 16.1089 186.342 16.1089 187.58C16.1089 188.819 17.1127 189.822 18.3508 189.822Z" fill="#206A7E"/>
<path opacity="0.1" d="M18.3508 189.822C19.589 189.822 20.5927 188.819 20.5927 187.58C20.5927 186.342 19.589 185.339 18.3508 185.339C17.1127 185.339 16.1089 186.342 16.1089 187.58C16.1089 188.819 17.1127 189.822 18.3508 189.822Z" fill="black"/>
<path d="M39.0351 166.177C40.2732 166.177 41.2769 165.173 41.2769 163.935C41.2769 162.697 40.2732 161.693 39.0351 161.693C37.7969 161.693 36.7932 162.697 36.7932 163.935C36.7932 165.173 37.7969 166.177 39.0351 166.177Z" fill="#206A7E"/>
<path opacity="0.1" d="M39.0351 166.177C40.2732 166.177 41.2769 165.173 41.2769 163.935C41.2769 162.697 40.2732 161.693 39.0351 161.693C37.7969 161.693 36.7932 162.697 36.7932 163.935C36.7932 165.173 37.7969 166.177 39.0351 166.177Z" fill="black"/>
<path opacity="0.1" d="M41.4267 200.778C42.9157 200.025 43.3649 197.896 42.4956 195.928C42.5414 196.011 42.5871 196.09 42.6287 196.174C43.6561 198.207 43.2318 200.491 41.6762 201.277C40.1206 202.063 38.0327 201.052 37.0053 199.019C36.9637 198.935 36.9221 198.852 36.8847 198.765C37.9536 200.632 39.9376 201.531 41.4267 200.778Z" fill="black"/>
<path opacity="0.1" d="M43.6353 205.154C45.1243 204.401 45.5777 202.267 44.7084 200.304C44.7541 200.383 44.7999 200.466 44.8415 200.549C45.8688 202.583 45.4446 204.867 43.889 205.653C42.3334 206.439 40.2454 205.428 39.2181 203.394C39.1723 203.311 39.1349 203.224 39.0975 203.14C40.1664 205.016 42.1546 205.906 43.6353 205.154Z" fill="black"/>
<path opacity="0.1" d="M45.848 209.525C47.337 208.772 47.7904 206.643 46.9169 204.675C46.9668 204.758 47.0084 204.837 47.0542 204.925C48.0815 206.955 47.6531 209.242 46.1017 210.024C44.5503 210.806 42.4581 209.799 41.4308 207.766C41.385 207.682 41.3476 207.599 41.3102 207.512C42.375 209.379 44.359 210.278 45.848 209.525Z" fill="black"/>
<path opacity="0.1" d="M48.0608 213.901C49.5498 213.148 50.0032 211.018 49.1297 209.051C49.1754 209.13 49.2212 209.213 49.2628 209.296C50.2943 211.33 49.8659 213.614 48.3145 214.4C46.763 215.186 44.6668 214.175 43.6394 212.141C43.5978 212.058 43.5604 211.971 43.5229 211.887C44.5877 213.751 46.5717 214.653 48.0608 213.901Z" fill="black"/>
<path opacity="0.1" d="M50.2735 218.272C51.7625 217.519 52.2117 215.39 51.3424 213.426C51.3882 213.505 51.4339 213.589 51.4755 213.672C52.5029 215.706 52.0786 217.989 50.5272 218.775C48.9758 219.561 46.8795 218.546 45.8522 216.517C45.8106 216.429 45.7731 216.346 45.7315 216.263C46.8005 218.126 48.7845 219.025 50.2735 218.272Z" fill="black"/>
<path opacity="0.1" d="M52.4863 222.648C53.9754 221.895 54.4246 219.765 53.5553 217.798C53.601 217.881 53.6468 217.96 53.6884 218.043C54.7157 220.077 54.2915 222.361 52.74 223.147C51.1886 223.933 49.0923 222.922 48.065 220.888C48.0234 220.805 47.9818 220.722 47.9444 220.634C49.0133 222.485 50.9973 223.4 52.4863 222.648Z" fill="black"/>
<path opacity="0.1" d="M54.699 227.023C56.1839 226.27 56.6373 224.137 55.768 222.173C55.8137 222.252 55.8595 222.336 55.9011 222.419C56.9284 224.453 56.5042 226.736 54.9486 227.522C53.393 228.308 51.305 227.293 50.2777 225.264C50.2361 225.176 50.1945 225.093 50.1571 225.01C51.226 226.873 53.21 227.776 54.699 227.023Z" fill="black"/>
<path opacity="0.1" d="M56.9076 231.395C58.3967 230.642 58.85 228.512 57.9766 226.545C58.0265 226.628 58.0681 226.707 58.1138 226.794C59.1412 228.824 58.7128 231.112 57.1614 231.894C55.6099 232.676 53.5178 231.669 52.4905 229.635C52.4447 229.552 52.4073 229.469 52.3698 229.381C53.4388 231.249 55.4186 232.147 56.9076 231.395Z" fill="black"/>
<path opacity="0.1" d="M58.3759 234.269C59.8649 233.516 60.3141 231.386 59.4448 229.419C59.4906 229.502 59.5363 229.581 59.5779 229.668C60.6053 231.698 60.181 233.986 58.6296 234.768C57.0782 235.55 54.9819 234.543 53.9545 232.509C53.9129 232.426 53.8714 232.343 53.8339 232.256C54.8904 234.131 56.8744 235.021 58.3759 234.269Z" fill="black"/>
<path d="M18.3884 214.803C18.1573 214.142 18.0174 213.452 17.9724 212.753C17.8186 212.752 17.6666 212.72 17.5258 212.658C17.385 212.596 17.2585 212.506 17.1542 212.393C17.0499 212.28 16.97 212.146 16.9195 212.001C16.869 211.856 16.849 211.702 16.8608 211.548C16.8725 211.395 16.9158 211.246 16.9878 211.11C17.0598 210.974 17.1591 210.854 17.2794 210.758C17.3998 210.663 17.5385 210.593 17.6871 210.553C17.8357 210.513 17.9909 210.504 18.143 210.527C18.3925 209.394 18.8911 208.33 19.6025 207.413C20.314 206.495 21.2205 205.748 22.2565 205.224C22.1225 204.959 22.0993 204.651 22.1922 204.369C22.285 204.087 22.4862 203.853 22.7515 203.719C23.0168 203.585 23.3244 203.561 23.6068 203.654C23.8892 203.747 24.1231 203.948 24.2571 204.214C24.3058 204.308 24.3395 204.409 24.357 204.513C25.5877 204.287 26.8546 204.358 28.0524 204.72C29.2503 205.081 30.3447 205.723 31.2448 206.593C31.9322 206.48 32.6317 206.46 33.3244 206.534L34.2311 210.66L34.2519 206.68C35.2832 206.918 36.2556 207.363 37.1103 207.987C37.9651 208.612 38.6846 209.403 39.2255 210.312C39.7663 211.222 40.1174 212.232 40.2575 213.281C40.3975 214.331 40.3237 215.397 40.0404 216.417C39.7571 217.437 39.2703 218.389 38.6092 219.216C37.9481 220.042 37.1265 220.726 36.1938 221.227C35.2612 221.728 34.2369 222.034 33.1826 222.128C32.1283 222.222 31.0659 222.102 30.0594 221.774C29.9499 221.968 29.7866 222.125 29.5894 222.227C29.3838 222.331 29.1513 222.369 28.9233 222.336C28.6954 222.304 28.4831 222.202 28.3151 222.044C28.1471 221.887 28.0317 221.681 27.9843 221.456C27.937 221.23 27.96 220.996 28.0504 220.784C27.6938 220.535 27.3585 220.257 27.048 219.952C25.412 220.217 23.734 219.958 22.2546 219.211C20.7752 218.463 19.5703 217.267 18.8126 215.793L23.0343 215.082L18.3884 214.803Z" fill="#206A7E"/>
<g opacity="0.1">
<path d="M24.9101 216.808C26.4698 214.728 27.4265 212.316 28.5245 209.978C28.9642 209.016 29.4586 208.08 30.0052 207.175L30.8371 206.214C30.9785 206.335 31.1158 206.455 31.253 206.58C31.9405 206.468 32.64 206.448 33.3327 206.522L34.2394 210.648L34.2519 206.68C35.2832 206.918 36.2555 207.363 37.1103 207.987C37.965 208.612 38.6845 209.403 39.2254 210.312C39.7663 211.222 40.1173 212.232 40.2574 213.281C40.3974 214.331 40.3236 215.397 40.0403 216.417C39.757 217.437 39.2702 218.389 38.6091 219.216C37.948 220.042 37.1264 220.726 36.1938 221.227C35.2611 221.728 34.2368 222.034 33.1825 222.128C32.1282 222.222 31.0658 222.102 30.0593 221.774C29.9498 221.967 29.7865 222.125 29.5893 222.227C29.3837 222.331 29.1512 222.369 28.9233 222.336C28.6953 222.304 28.483 222.202 28.315 222.044C28.1471 221.887 28.0316 221.681 27.9842 221.456C27.9369 221.23 27.96 220.996 28.0503 220.784C27.6937 220.535 27.3584 220.257 27.048 219.952C25.4458 220.209 23.8033 219.967 22.3438 219.258C23.3255 218.585 24.1921 217.757 24.9101 216.808Z" fill="black"/>
</g>
<path d="M52.5154 207.965C52.4489 207.834 52.4089 207.691 52.3978 207.545C52.3867 207.398 52.4046 207.251 52.4506 207.112C52.4966 206.972 52.5698 206.843 52.6658 206.732C52.7619 206.621 52.879 206.529 53.0104 206.464C53.1674 206.383 53.3414 206.342 53.5178 206.343C53.8351 204.659 54.6956 203.125 55.9676 201.976C55.7619 201.176 55.6847 200.35 55.7389 199.526L59.8524 198.836L55.8553 198.582C55.9277 198.206 56.0278 197.836 56.1548 197.475C55.9977 197.371 55.8702 197.228 55.7846 197.059C55.6846 196.859 55.6468 196.633 55.676 196.411C55.7052 196.189 55.8001 195.981 55.9486 195.814C56.097 195.646 56.2922 195.526 56.509 195.47C56.7259 195.415 56.9545 195.425 57.1655 195.5C57.9001 194.455 58.8817 193.607 60.0229 193.033C61.3671 192.351 62.8795 192.071 64.3788 192.227C65.8781 192.383 67.3006 192.968 68.4758 193.912C69.6511 194.855 70.5291 196.118 71.0048 197.549C71.4804 198.979 71.5334 200.516 71.1574 201.976C71.3529 202.06 71.5205 202.197 71.6405 202.373C71.7604 202.549 71.8279 202.755 71.8349 202.967C71.8419 203.18 71.7881 203.39 71.6799 203.573C71.5717 203.756 71.4135 203.905 71.224 204.001C71.0818 204.073 70.926 204.114 70.7668 204.122C70.6075 204.129 70.4486 204.102 70.3006 204.043C69.8992 204.716 69.3986 205.324 68.8157 205.848C69.242 207.507 69.1149 209.259 68.4539 210.839L62.9511 209.392L67.8716 211.983C67.1328 213.162 66.0939 214.123 64.8612 214.768C63.6285 215.413 62.2465 215.719 60.8569 215.653C59.4672 215.588 58.1198 215.155 56.953 214.397C55.7861 213.64 54.8417 212.585 54.2166 211.343C53.7813 210.477 53.5079 209.54 53.4097 208.577C53.2208 208.56 53.0395 208.494 52.8829 208.387C52.7264 208.28 52.5999 208.135 52.5154 207.965Z" fill="#206A7E"/>
<path opacity="0.1" d="M52.5154 207.965C52.4489 207.834 52.4089 207.691 52.3978 207.545C52.3867 207.398 52.4046 207.251 52.4506 207.112C52.4966 206.972 52.5698 206.843 52.6658 206.732C52.7619 206.621 52.879 206.529 53.0104 206.464C53.1674 206.383 53.3414 206.342 53.5178 206.343C53.8351 204.659 54.6956 203.125 55.9676 201.976C55.9344 201.847 55.9052 201.714 55.8803 201.585C56.0295 201.691 56.1687 201.811 56.2962 201.943C57.0407 202.774 57.4234 203.852 58.1554 204.675C59.0727 205.621 60.3058 206.197 61.6201 206.293C62.922 206.383 64.2299 206.278 65.5008 205.981C66.5488 205.711 67.63 205.592 68.7117 205.628L69.0195 205.669L68.8282 205.848C69.2545 207.507 69.1274 209.259 68.4663 210.839L62.9511 209.392L67.8716 211.983C67.1328 213.162 66.0939 214.123 64.8612 214.768C63.6285 215.413 62.2465 215.719 60.8569 215.653C59.4672 215.588 58.1198 215.155 56.953 214.397C55.7861 213.64 54.8417 212.585 54.2166 211.343C53.7813 210.477 53.5079 209.54 53.4096 208.577C53.2208 208.56 53.0395 208.494 52.8829 208.387C52.7264 208.28 52.5999 208.135 52.5154 207.965Z" fill="black"/>
</g>
<path opacity="0.1" d="M144.057 21.5909C142.413 21.2788 140.713 21.4642 139.174 22.1233C138.252 22.5346 137.252 22.7471 136.242 22.7471C135.232 22.7471 134.233 22.5346 133.31 22.1233C132.219 21.6452 131.037 21.4098 129.847 21.4335C128.656 21.4572 127.485 21.7394 126.414 22.2606C125.802 22.5836 125.121 22.7535 124.43 22.7556C121.635 22.7556 119.31 19.9397 118.827 16.2254C119.384 15.8169 119.859 15.3059 120.225 14.7198C121.863 12.0786 124.384 10.3816 127.25 10.3816C130.115 10.3816 132.611 12.0453 134.25 14.6699C134.739 15.458 135.424 16.107 136.237 16.5542C137.049 17.0015 137.964 17.232 138.892 17.2237H138.966C141.171 17.2112 143.097 18.9955 144.057 21.5909Z" fill="#206A7E"/>
<path opacity="0.1" d="M152.551 9.9449L148.034 12.8107L150.775 7.81949C149.997 7.20011 149.036 6.85762 148.042 6.84622H147.971C147.658 6.85005 147.345 6.82639 147.035 6.77551L145.501 7.74879L146.158 6.55506C145.076 6.17868 144.14 5.4733 143.479 4.5378L140.73 6.25559L142.46 3.107C140.859 1.18124 138.696 0 136.321 0C133.472 0 130.914 1.69699 129.292 4.33815C128.807 5.12705 128.121 5.77347 127.305 6.21178C126.489 6.65008 125.572 6.86466 124.646 6.83374H124.509C121.364 6.83374 118.81 10.3983 118.81 14.803C118.81 19.2077 121.364 22.768 124.509 22.768C125.2 22.7659 125.881 22.5961 126.493 22.2731C127.564 21.7515 128.735 21.4694 129.926 21.4464C131.117 21.4234 132.299 21.6601 133.389 22.14C134.312 22.55 135.311 22.7618 136.321 22.7618C137.331 22.7618 138.33 22.55 139.253 22.14C140.335 21.6703 141.506 21.4391 142.685 21.462C143.864 21.485 145.024 21.7616 146.087 22.2731C146.694 22.5875 147.367 22.7528 148.05 22.7556C151.199 22.7556 153.749 19.191 153.749 14.7905C153.76 13.1007 153.348 11.4349 152.551 9.9449Z" fill="#206A7E"/>
<path opacity="0.1" d="M50.0572 79.214C47.7085 78.7696 45.2808 79.0331 43.0821 79.971C41.7626 80.5559 40.3347 80.8563 38.8914 80.8527C37.4481 80.8492 36.0218 80.5416 34.7052 79.9502C33.1474 79.2671 31.4598 78.9309 29.7591 78.9646C28.0585 78.9984 26.3855 79.4014 24.856 80.1457C23.9812 80.6065 23.0081 80.8491 22.0194 80.8527C18.0264 80.8527 14.7031 76.8307 14.0127 71.5234C14.8106 70.942 15.4885 70.2118 16.0092 69.3731C18.3509 65.6006 21.9778 63.1757 26.0497 63.1757C30.1217 63.1757 33.7028 65.5715 36.0321 69.3024C36.7321 70.4331 37.7129 71.3634 38.8791 72.0026C40.0453 72.6418 41.3572 72.9682 42.6869 72.9501H42.7909C45.9437 72.9459 48.6971 75.4955 50.0572 79.214Z" fill="#206A7E"/>
<path opacity="0.1" d="M62.2024 62.556L55.7471 66.6487L59.6652 59.5238C58.5548 58.6375 57.1803 58.1471 55.7596 58.1305H55.6556C55.2071 58.137 54.7589 58.1036 54.3163 58.0306L52.1369 59.4406L53.0769 57.7353C51.5258 57.1933 50.1863 56.1741 49.2503 54.8238L45.3322 57.3194L47.7987 52.7857C45.5069 50.0364 42.4207 48.3519 39.0267 48.3519C34.9548 48.3519 31.3279 50.7726 28.9862 54.5451C28.2926 55.6772 27.3112 56.605 26.1422 57.2341C24.9731 57.8632 23.6581 58.1711 22.3313 58.1263H22.1108C17.6146 58.1263 13.9711 63.2214 13.9711 69.5103C13.9711 75.7992 17.6146 80.8943 22.1108 80.8943C23.1002 80.8917 24.0739 80.6475 24.9475 80.1831C26.4773 79.4394 28.1504 79.0372 29.8511 79.0041C31.5517 78.9711 33.2392 79.3081 34.7967 79.9918C36.1133 80.5832 37.5396 80.8907 38.9829 80.8943C40.4262 80.8979 41.8541 80.5975 43.1736 80.0126C44.7196 79.3415 46.3919 79.0109 48.077 79.0432C49.762 79.0755 51.4204 79.47 52.9396 80.1997C53.8049 80.6526 54.7664 80.8908 55.743 80.8943C60.2392 80.8943 63.8827 75.795 63.8827 69.5103C63.9141 67.088 63.3363 64.6967 62.2024 62.556Z" fill="#206A7E"/>
<path opacity="0.1" d="M311.104 37.8123C312.748 37.5004 314.448 37.6857 315.987 38.3447C316.909 38.7561 317.907 38.9687 318.917 38.9687C319.927 38.9687 320.925 38.7561 321.847 38.3447C322.938 37.8665 324.119 37.6312 325.31 37.6549C326.501 37.6786 327.672 37.9608 328.743 38.4819C329.355 38.8045 330.036 38.9743 330.727 38.9769C333.522 38.9769 335.851 36.161 336.334 32.4468C335.776 32.0393 335.301 31.5281 334.936 30.9411C333.306 28.2916 330.756 26.5822 327.899 26.5822C325.041 26.5822 322.542 28.2459 320.903 30.8704C320.414 31.6621 319.729 32.3143 318.915 32.7638C318.1 33.2134 317.183 33.4452 316.253 33.4367H316.182C313.969 33.4325 312.039 35.2169 311.104 37.8123Z" fill="#206A7E"/>
<path opacity="0.1" d="M302.585 26.1662L307.102 29.0237L304.357 24.0325C305.135 23.4137 306.096 23.0713 307.09 23.0592H307.165C307.478 23.0628 307.791 23.0392 308.101 22.9885L309.631 23.9618L308.974 22.7681C310.063 22.398 311.009 21.6953 311.678 20.7591L314.419 22.4977L312.684 19.3491C314.29 17.4234 316.427 16.2421 318.827 16.2421C321.677 16.2421 324.235 17.9391 325.857 20.5803C326.342 21.3695 327.027 22.0161 327.843 22.4545C328.659 22.8928 329.577 23.1072 330.503 23.0759H330.652C333.801 23.0759 336.351 26.6404 336.351 31.0451C336.351 35.4498 333.801 39.0102 330.652 39.0102C329.961 39.0071 329.28 38.8373 328.668 38.5152C327.597 37.9936 326.426 37.7115 325.235 37.6885C324.044 37.6656 322.862 37.9022 321.772 38.3821C320.85 38.792 319.851 39.0038 318.842 39.0038C317.832 39.0038 316.834 38.792 315.912 38.3821C314.829 37.9123 313.658 37.6811 312.478 37.704C311.298 37.727 310.137 38.0037 309.074 38.5152C308.467 38.83 307.794 38.9955 307.111 38.9977C303.966 38.9977 301.412 35.4332 301.412 31.0326C301.39 29.3379 301.793 27.6647 302.585 26.1662Z" fill="#206A7E"/>
<path opacity="0.1" d="M256.059 323.128C282.476 323.128 303.891 319.404 303.891 314.809C303.891 310.215 282.476 306.491 256.059 306.491C229.642 306.491 208.227 310.215 208.227 314.809C208.227 319.404 229.642 323.128 256.059 323.128Z" fill="#206A7E"/>
<path opacity="0.1" d="M82.1669 344C108.584 344 129.999 340.276 129.999 335.681C129.999 331.087 108.584 327.363 82.1669 327.363C55.75 327.363 34.3349 331.087 34.3349 335.681C34.3349 340.276 55.75 344 82.1669 344Z" fill="#206A7E"/>
<path d="M231.024 275.296L156.91 274.344L157.13 272.443L160.711 241.086H225.8L230.588 272.443L230.954 274.822L231.024 275.296Z" fill="#D0D2D5"/>
<path opacity="0.1" d="M230.954 274.822H193.969L156.91 274.344L157.13 272.443H230.588L230.954 274.822Z" fill="black"/>
<path d="M242.903 272.921H144.557V275.296H242.903V272.921Z" fill="#D0D2D5"/>
<path d="M336.733 52.7525C336.739 51.1136 336.093 49.5395 334.939 48.3759C333.785 47.2124 332.216 46.5545 330.577 46.5468H55.9301C55.1179 46.5506 54.3144 46.7144 53.5655 47.0287C52.8166 47.3431 52.1369 47.8018 51.5653 48.3789C50.9936 48.9559 50.5413 49.6399 50.234 50.3917C49.9267 51.1436 49.7705 51.9486 49.7744 52.7608V219.237H336.733V52.7525Z" fill="#3F3D56"/>
<path d="M49.7744 217.573V237.072C49.7744 238.705 50.423 240.27 51.5774 241.425C52.7318 242.579 54.2976 243.228 55.9302 243.228H330.577C332.21 243.228 333.776 242.579 334.93 241.425C336.085 240.27 336.733 238.705 336.733 237.072V217.573H49.7744Z" fill="#D0D2D5"/>
<path d="M326.281 56.9867H61.6534V206.643H326.281V56.9867Z" fill="white"/>
<path d="M194.68 235.828C195.652 235.83 196.611 235.61 197.485 235.185C198.36 234.761 199.126 234.143 199.726 233.379C199.908 233.146 200.075 232.901 200.225 232.647L200.508 232.077C200.873 231.283 201.071 230.423 201.092 229.55C201.113 228.677 200.955 227.808 200.628 226.998L200.233 226.183C199.791 225.423 199.197 224.762 198.489 224.241C197.78 223.72 196.972 223.35 196.115 223.155C195.258 222.96 194.369 222.942 193.505 223.105C192.641 223.267 191.819 223.606 191.091 224.099C190.364 224.592 189.745 225.23 189.274 225.972C188.803 226.715 188.489 227.546 188.353 228.415C188.217 229.284 188.261 230.171 188.482 231.022C188.703 231.873 189.097 232.67 189.639 233.362C190.237 234.129 191.002 234.749 191.875 235.177C192.749 235.604 193.708 235.827 194.68 235.828Z" fill="#206A7E"/>
<path opacity="0.1" d="M201.094 243.224L230.663 272.921L226.125 243.224H201.094Z" fill="black"/>
<path opacity="0.1" d="M326.36 57.0033H61.4453V65.7461H326.36V57.0033Z" fill="#444053"/>
<path opacity="0.3" d="M233 58.5256H153.666C153.532 58.5256 153.424 58.6336 153.424 58.7668V63.6041C153.424 63.7373 153.532 63.8453 153.666 63.8453H233C233.133 63.8453 233.241 63.7373 233.241 63.6041V58.7668C233.241 58.6336 233.133 58.5256 233 58.5256Z" fill="#206A7E"/>
<path d="M230.871 61.7366H230.675L230.604 61.6742C230.846 61.3834 230.979 61.0169 230.979 60.6385C230.976 60.3279 230.882 60.025 230.707 59.7681C230.533 59.5111 230.286 59.3115 229.999 59.1945C229.711 59.0776 229.395 59.0485 229.091 59.1109C228.786 59.1733 228.507 59.3244 228.289 59.5452C228.07 59.766 227.922 60.0465 227.863 60.3514C227.804 60.6563 227.836 60.9719 227.956 61.2584C228.076 61.5449 228.279 61.7894 228.537 61.9611C228.796 62.1328 229.1 62.224 229.411 62.2232C229.789 62.2219 230.156 62.088 230.446 61.8447L230.517 61.9071V62.1026L231.736 63.3213L232.098 62.9553L230.871 61.7366ZM229.411 61.7366C229.193 61.7374 228.981 61.6737 228.799 61.5536C228.618 61.4334 228.477 61.2622 228.393 61.0616C228.309 60.8611 228.287 60.6401 228.329 60.4269C228.371 60.2136 228.475 60.0176 228.629 59.8636C228.782 59.7096 228.978 59.6046 229.191 59.5619C229.404 59.5192 229.625 59.5407 229.826 59.6237C230.027 59.7067 230.198 59.8474 230.319 60.0281C230.44 60.2087 230.505 60.4212 230.505 60.6385C230.506 60.7827 230.478 60.9256 230.424 61.0591C230.369 61.1925 230.289 61.3138 230.187 61.416C230.085 61.5181 229.964 61.599 229.831 61.6541C229.698 61.7091 229.555 61.7371 229.411 61.7366Z" fill="#3F3D56"/>
<path opacity="0.8" d="M66.2077 62.9761C67.0921 62.9761 67.8091 62.2591 67.8091 61.3747C67.8091 60.4903 67.0921 59.7734 66.2077 59.7734C65.3234 59.7734 64.6064 60.4903 64.6064 61.3747C64.6064 62.2591 65.3234 62.9761 66.2077 62.9761Z" fill="#FA5959"/>
<path opacity="0.8" d="M70.6126 62.9761C71.497 62.9761 72.2139 62.2591 72.2139 61.3747C72.2139 60.4903 71.497 59.7734 70.6126 59.7734C69.7282 59.7734 69.0112 60.4903 69.0112 61.3747C69.0112 62.2591 69.7282 62.9761 70.6126 62.9761Z" fill="#FED253"/>
<path opacity="0.8" d="M75.0213 62.9761C75.9057 62.9761 76.6226 62.2591 76.6226 61.3747C76.6226 60.4903 75.9057 59.7734 75.0213 59.7734C74.1369 59.7734 73.42 60.4903 73.42 61.3747C73.42 62.2591 74.1369 62.9761 75.0213 62.9761Z" fill="#8CCF4D"/>
<path d="M207.986 121.202C204.355 116.377 199.093 113.333 193.237 113.333C187.381 113.333 182.119 116.377 178.488 121.202C179.291 123.171 180.479 124.96 181.982 126.464C183.84 128.321 186.128 129.689 188.643 130.447C191.158 131.205 193.821 131.329 196.395 130.808C198.97 130.287 201.375 129.138 203.398 127.461C205.42 125.785 206.996 123.635 207.986 121.202Z" fill="#206A7E"/>
<path d="M176.571 124.026C176.312 123.915 176.067 123.776 175.839 123.61C175.494 123.328 175.218 122.971 175.032 122.566C175.27 122.078 175.37 121.533 175.321 120.992C175.272 120.45 175.077 119.932 174.755 119.494C174.434 119.055 173.999 118.713 173.497 118.503C172.995 118.294 172.446 118.225 171.908 118.305C171.37 118.385 170.865 118.61 170.445 118.956C170.026 119.303 169.709 119.757 169.529 120.27C169.349 120.783 169.312 121.335 169.423 121.867C169.534 122.4 169.787 122.892 170.157 123.29C170.366 123.511 170.604 123.703 170.864 123.86C171.203 124.056 171.478 124.345 171.659 124.692C171.999 125.379 172.468 125.994 173.04 126.505C173.626 127.009 174.26 127.454 174.932 127.836C174.007 130.454 173.482 133.197 173.376 135.972C172.301 135.99 171.234 136.162 170.207 136.483C169.681 136.647 169.186 136.894 168.739 137.215C168.619 137.201 168.498 137.193 168.377 137.191C167.831 137.191 167.296 137.34 166.829 137.622C166.362 137.905 165.981 138.31 165.728 138.793C165.475 139.277 165.358 139.82 165.392 140.365C165.426 140.91 165.608 141.435 165.918 141.883C166.229 142.332 166.656 142.687 167.154 142.91C167.653 143.133 168.202 143.216 168.744 143.149C169.285 143.082 169.798 142.868 170.227 142.53C170.656 142.193 170.984 141.744 171.176 141.233C171.294 140.904 171.501 140.613 171.773 140.393C172.045 140.173 172.372 140.032 172.719 139.986C172.975 139.955 173.232 139.938 173.489 139.936C173.846 143.849 175.06 147.637 177.045 151.029C175.281 152.397 174.196 153.89 173.738 155.546C173.653 155.593 173.573 155.65 173.501 155.716C173.376 155.814 173.259 155.923 173.152 156.04C172.795 156.432 172.55 156.912 172.44 157.43C172.33 157.948 172.36 158.487 172.527 158.989C172.693 159.492 172.991 159.942 173.388 160.292C173.786 160.642 174.27 160.879 174.79 160.981C175.31 161.082 175.847 161.043 176.347 160.869C176.847 160.694 177.292 160.389 177.635 159.986C177.979 159.582 178.208 159.095 178.301 158.573C178.394 158.052 178.347 157.515 178.164 157.018C178.028 156.657 178.002 156.264 178.088 155.888C178.175 155.512 178.37 155.17 178.65 154.905C178.85 154.718 179.066 154.518 179.358 154.298C182.731 158.237 186.744 160.761 191.756 161.061V134.337C185.131 133.975 179.358 129.662 176.571 124.026ZM218.093 137.22C217.972 137.221 217.851 137.23 217.731 137.245C217.28 136.93 216.786 136.684 216.263 136.513C215.237 136.19 214.169 136.018 213.094 136.001C212.978 133.229 212.454 130.489 211.538 127.87C212.21 127.488 212.844 127.042 213.431 126.539C214.021 125.999 214.506 125.354 214.861 124.638C215.028 124.327 215.285 124.073 215.598 123.91C216.105 123.625 216.518 123.197 216.786 122.681C217.054 122.164 217.164 121.58 217.105 121.001C217.045 120.422 216.818 119.873 216.45 119.421C216.083 118.97 215.591 118.636 215.037 118.46C214.482 118.284 213.888 118.274 213.327 118.431C212.767 118.589 212.264 118.906 211.882 119.345C211.5 119.784 211.254 120.325 211.175 120.902C211.096 121.479 211.188 122.066 211.438 122.591C211.255 122.998 210.979 123.356 210.631 123.635C210.398 123.828 210.153 124.007 209.899 124.172C207.113 129.804 201.344 133.996 194.726 134.358V161.107C199.717 160.807 203.756 158.27 207.125 154.344C207.387 154.551 207.608 154.739 207.795 154.913C208.087 155.184 208.292 155.535 208.385 155.922C208.478 156.309 208.455 156.715 208.319 157.089C208.137 157.585 208.09 158.121 208.183 158.642C208.276 159.162 208.506 159.649 208.848 160.052C209.191 160.455 209.634 160.759 210.133 160.934C210.632 161.109 211.169 161.149 211.688 161.049C212.208 160.949 212.691 160.712 213.089 160.364C213.487 160.016 213.785 159.568 213.954 159.067C214.122 158.566 214.154 158.029 214.047 157.511C213.94 156.993 213.697 156.513 213.343 156.12C213.236 156.002 213.119 155.893 212.994 155.795C212.857 155.687 212.757 155.625 212.757 155.625C212.299 153.961 211.218 152.476 209.429 151.108C211.414 147.716 212.628 143.928 212.986 140.015C213.232 140.018 213.477 140.034 213.722 140.065C214.076 140.11 214.411 140.25 214.693 140.47C214.974 140.689 215.192 140.98 215.323 141.312C215.571 141.945 216.028 142.474 216.618 142.812C217.208 143.151 217.896 143.277 218.567 143.171C219.239 143.066 219.854 142.734 220.312 142.231C220.769 141.728 221.042 141.084 221.084 140.406C221.104 139.998 221.043 139.591 220.902 139.208C220.762 138.825 220.545 138.474 220.266 138.176C219.987 137.879 219.651 137.641 219.277 137.476C218.904 137.312 218.501 137.225 218.093 137.22Z" fill="#206A7E"/>
<path d="M283.249 309.96C283.007 309.577 282.702 309.238 282.346 308.957C280.528 307.24 279.684 304.719 279.235 302.248C278.786 299.778 278.657 297.257 277.937 294.841C277.546 293.602 277.056 292.396 276.473 291.235C276.057 290.344 275.533 288.602 274.772 287.978C274.623 287.849 274.442 287.761 274.248 287.724C273.888 286.96 273.376 286.278 272.742 285.719C271.553 284.642 270.101 283.785 269.307 282.392C269.088 281.909 268.819 281.45 268.504 281.023C267.967 280.433 267.119 280.192 266.624 279.568C265.979 278.761 266.125 277.604 266.208 276.577C266.291 275.55 266.208 274.319 265.318 273.778C264.786 273.449 264.099 273.483 263.546 273.191C262.714 272.776 262.386 271.727 262.402 270.792C262.419 269.856 262.71 268.945 262.785 268.009C263.018 265.031 261.055 262.069 261.812 259.183C262.099 258.089 262.756 257.141 263.242 256.122C263.412 255.783 263.551 255.429 263.658 255.065C264.956 255.58 266.32 255.909 267.71 256.043C265.418 250.902 266 244.929 264.931 239.405L265.068 239.218C266.148 237.794 266.761 236.071 266.824 234.285C266.824 232.231 265.863 230.309 265.43 228.296C265.06 226.586 265.077 224.798 264.598 223.118C264.267 222.073 263.826 221.067 263.284 220.115C262.765 219.152 262.221 218.205 261.649 217.274C261.117 215.51 260.583 213.747 260.048 211.983C259.299 209.508 258.53 206.992 257.074 204.854C256.542 204.072 256.38 202.483 255.56 202.009C254.895 201.665 254.14 201.533 253.397 201.631C252.241 200.982 251.226 200.046 251.081 198.765C251.066 198.485 251.094 198.205 251.164 197.933H251.305C253.135 197.767 254.063 196.153 255.015 194.739C256.554 192.451 255.968 189.357 255.015 186.753C254.779 185.931 254.352 185.177 253.768 184.553C252.432 183.305 250.319 183.579 248.598 182.976C248.019 182.777 247.479 182.473 246.888 182.331C245.744 182.065 244.546 182.44 243.498 182.968C242.45 183.496 241.473 184.178 240.375 184.594C239.277 185.01 237.921 185.339 237.65 186.466C237.574 186.845 237.606 187.239 237.742 187.601C237.994 188.325 238.439 188.966 239.027 189.456C238.559 190.42 238.307 191.474 238.286 192.545C238.265 193.617 238.477 194.679 238.907 195.661C239.336 196.642 239.974 197.519 240.775 198.23C241.577 198.941 242.523 199.47 243.548 199.78C243.864 200.287 244.16 200.803 244.43 201.331C244.912 202.263 245.32 203.361 245.154 204.359C244.853 204.679 244.575 205.019 244.322 205.378C243.128 207.042 242.45 208.993 241.826 210.939C240.988 213.425 240.317 215.963 239.817 218.538C238.802 220.697 237.563 222.76 236.827 225.027C235.509 225.028 234.196 224.852 232.925 224.503L229.415 223.708C228.192 223.43 226.919 223.13 225.963 222.323C225.455 221.907 225.06 221.354 224.544 220.942C224.028 220.531 222.993 220.048 222.427 220.389C222.324 220.452 222.228 220.526 222.14 220.61C221.624 219.566 221.134 218.53 220.535 217.519C219.674 216.105 218.393 214.811 216.771 214.541C215.779 214.382 214.765 214.618 213.946 215.198C212.998 215.872 212.403 217.278 213.114 218.226C213.292 218.437 213.485 218.635 213.693 218.817C214.174 219.372 214.604 219.969 214.978 220.601C216.319 222.483 218.324 223.786 220.589 224.245L220.443 224.661C220.148 225.526 219.52 226.57 219.678 227.468L235.292 232.813C236.294 233.22 237.357 233.454 238.436 233.508C238.858 233.504 239.277 233.448 239.684 233.341V234.14V234.173C239.726 239.659 238.852 245.108 238.69 250.59C238.661 251.592 238.69 252.669 239.322 253.451C240.029 254.308 241.285 254.479 242.379 254.283C242.643 254.239 242.901 254.181 243.153 254.109C243.523 255.489 243.79 256.894 243.952 258.314L244.983 265.742C245.116 266.503 245.17 267.275 245.145 268.046C245.025 269.789 244.105 271.349 243.44 272.959C242.774 274.568 242.379 276.494 243.253 278C243.527 278.465 243.906 278.861 244.151 279.343C244.463 280.09 244.605 280.897 244.567 281.706C244.631 283.946 244.692 286.189 244.75 288.435C244.569 288.406 244.382 288.442 244.226 288.539C243.361 289.213 243.457 292.42 243.394 293.414C243.328 295.078 243.394 296.775 243.303 298.455C243.195 300.72 242.83 302.965 242.217 305.147C242.067 305.857 241.739 306.517 241.265 307.065C240.778 307.488 240.198 307.789 239.572 307.942C237.5 308.591 235.333 308.887 233.162 308.816C232.285 308.787 231.37 308.704 230.554 309.036C229.739 309.369 229.082 310.284 229.377 311.116C229.631 311.815 230.401 312.148 231.095 312.41C232.682 312.968 234.214 313.673 235.67 314.514C236.231 314.896 236.822 315.231 237.438 315.517C238.028 315.729 238.639 315.879 239.26 315.966L246.634 317.239C248.144 317.496 249.962 317.654 250.923 316.407C251.442 315.733 251.517 314.818 251.492 313.961C251.451 312.297 251.118 310.604 251.334 308.941C251.499 307.957 251.758 306.992 252.108 306.058C252.843 303.876 253.58 301.695 254.321 299.516C255.061 297.328 255.81 295.119 256.097 292.823C256.201 291.992 256.192 291.043 255.556 290.523C255.395 290.391 255.208 290.295 255.007 290.24C254.982 288.236 254.72 286.227 254.832 284.222C254.861 283.723 254.911 283.224 254.953 282.72C255.338 283.087 255.683 283.494 255.98 283.935C256.692 285.05 256.954 286.522 258.039 287.262C258.962 287.895 260.331 287.861 260.98 288.776C261.188 289.128 261.345 289.507 261.446 289.904C261.822 290.884 262.387 291.782 263.109 292.545C263.357 293.458 263.701 294.342 264.137 295.182C264.749 296.477 265.359 297.767 265.967 299.054C266.591 300.443 267.285 301.799 268.046 303.118C268.628 303.948 269.096 304.851 269.44 305.805C270.026 307.859 269.07 310.114 267.556 311.628C266.042 313.142 264.045 314.011 262.078 314.822C261.871 314.892 261.681 315.006 261.52 315.155C261.35 315.357 261.26 315.614 261.267 315.878C261.267 316.839 262.057 317.663 262.964 317.958C263.891 318.207 264.862 318.243 265.805 318.062C271.12 317.417 276.419 316.12 281.119 313.537C281.822 313.204 282.445 312.723 282.945 312.127C283.187 311.827 283.342 311.467 283.396 311.085C283.449 310.704 283.398 310.315 283.249 309.96Z" fill="url(#paint0_linear_21_45)"/>
<path d="M260.784 216.687C261.672 218.049 262.503 219.444 263.28 220.872C263.824 221.816 264.266 222.816 264.598 223.854C265.081 225.518 265.068 227.294 265.43 228.991C265.846 230.987 266.819 232.892 266.819 234.938C266.756 236.711 266.142 238.421 265.064 239.83C263.989 241.227 262.758 242.496 261.396 243.615C258.255 235.478 256.5 226.872 256.205 218.156C256.163 216.949 256.155 215.706 256.596 214.579C256.866 213.871 258.164 211.933 259 212.694C259.304 212.973 259.383 214.229 259.57 214.649C259.92 215.36 260.326 216.041 260.784 216.687Z" fill="#2F2E41"/>
<path opacity="0.1" d="M260.784 216.687C261.672 218.049 262.503 219.444 263.28 220.872C263.824 221.816 264.266 222.816 264.598 223.854C265.081 225.518 265.068 227.294 265.43 228.991C265.846 230.987 266.819 232.892 266.819 234.938C266.756 236.711 266.142 238.421 265.064 239.83C263.989 241.227 262.758 242.496 261.396 243.615C258.255 235.478 256.5 226.872 256.205 218.156C256.163 216.949 256.155 215.706 256.596 214.579C256.866 213.871 258.164 211.933 259 212.694C259.304 212.973 259.383 214.229 259.57 214.649C259.92 215.36 260.326 216.041 260.784 216.687Z" fill="black"/>
<path d="M151.128 159.942C147.838 163.228 147.443 164.675 145.467 165.328C143.492 165.981 136.384 169.662 138.617 173.743L144.623 177.71L144.798 177.827L145.717 180.589L136.633 196.76C136.633 196.76 121.66 189.914 120.191 200.042C118.723 210.17 119.655 212.936 119.26 218.343C118.865 223.75 119.389 225.314 118.07 225.314C116.752 225.314 116.232 221.762 116.232 221.762C116.232 221.762 116.148 221.599 116.003 221.296C114.044 217.224 100.747 187.331 122.046 166.784C122.046 166.784 131.912 166.135 134.287 154.822C135.926 147.002 141.658 147.676 145.467 149.269C146.706 149.755 147.86 150.433 148.886 151.278C149.81 152.153 150.632 153.13 151.336 154.19C152.422 155.903 153.012 158.054 151.128 159.942Z" fill="#D0D2D5"/>
<path opacity="0.1" d="M144.798 177.827L145.717 180.589L136.633 196.76C136.633 196.76 121.66 189.914 120.191 200.042C118.723 210.17 119.655 212.936 119.26 218.343C118.865 223.75 119.389 225.314 118.07 225.314C116.752 225.314 116.232 221.762 116.232 221.762C116.232 221.762 116.149 221.599 116.003 221.296C115.342 216.238 111.989 186.653 124.143 188.225C124.143 188.225 134.004 192.834 135.581 190.995C136.829 189.54 142.369 181.167 144.623 177.731L144.798 177.827Z" fill="black"/>
<path opacity="0.1" d="M151.336 154.165L145.33 160.99C145.33 160.99 138.355 170.324 136.908 169.928C136.474 169.834 136.033 169.782 135.589 169.775C135.106 169.738 134.644 169.565 134.255 169.275C133.867 168.986 133.568 168.593 133.394 168.141C133.22 167.689 133.178 167.197 133.272 166.722C133.366 166.247 133.592 165.809 133.926 165.457C136.305 162.962 140.689 158.224 140.976 157.172C141.263 156.12 144.053 151.507 145.451 149.248C146.689 149.734 147.843 150.412 148.87 151.257C149.799 152.13 150.627 153.105 151.336 154.165Z" fill="black"/>
<path d="M321.269 252.362C320.25 254.4 315.03 262.045 312.747 265.384L311.678 266.957C311.678 266.957 311.262 269.718 304.445 266.295C297.627 262.872 137.457 195.288 137.457 195.288L136.371 192.027L144.274 180.194L319.826 248.019C319.826 248.019 322.587 249.729 321.269 252.362Z" fill="#454B69"/>
<path opacity="0.1" d="M312.747 265.385L311.678 266.957C311.678 266.957 311.262 269.719 304.445 266.295C297.627 262.872 137.457 195.288 137.457 195.288L136.371 192.027L312.747 265.385Z" fill="black"/>
<path d="M216.134 221.238C214.508 220.971 212.703 221.1 211.438 222.157C210.674 222.804 210.191 223.723 210.091 224.719C209.983 225.871 210.652 227.239 211.809 227.327C212.087 227.33 212.365 227.312 212.64 227.273C213.371 227.27 214.1 227.331 214.82 227.456C216.236 227.589 217.664 227.381 218.984 226.848C220.303 226.315 221.475 225.474 222.402 224.395C223.396 223.147 222.086 222.606 220.913 222.356C219.308 222.015 217.74 221.495 216.134 221.238Z" fill="#FBBEBE"/>
<path d="M243.951 258.8L244.983 266.129C245.114 266.885 245.167 267.653 245.141 268.421C245.02 270.147 244.101 271.694 243.44 273.291C242.779 274.888 242.375 276.802 243.253 278.282C243.523 278.744 243.902 279.139 244.147 279.618C244.459 280.357 244.601 281.157 244.563 281.959L244.846 292.358C248.056 292.577 251.279 292.559 254.487 292.303C254.613 292.309 254.736 292.271 254.836 292.195C254.921 292.088 254.964 291.953 254.957 291.817C255.098 289.384 254.674 286.946 254.811 284.513C254.861 283.623 254.986 282.737 255.003 281.843C255.053 278.22 253.264 274.672 253.805 271.091C253.975 270.187 254.197 269.294 254.47 268.417C256.18 262.178 255.818 255.623 255.439 249.18C255.446 249.076 255.417 248.973 255.356 248.889C255.295 248.827 255.217 248.785 255.132 248.768C253.312 248.222 251.388 248.122 249.521 248.477C247.655 248.832 245.901 249.631 244.409 250.806C243.956 251.172 242.812 251.526 242.512 251.962C242.096 252.57 242.641 253.177 242.883 253.822C243.417 255.438 243.775 257.107 243.951 258.8Z" fill="#3F3D56"/>
<path opacity="0.1" d="M243.951 258.8L244.983 266.129C245.114 266.885 245.167 267.653 245.141 268.421C245.02 270.147 244.101 271.694 243.44 273.291C242.779 274.888 242.375 276.802 243.253 278.282C243.523 278.744 243.902 279.139 244.147 279.618C244.459 280.357 244.601 281.157 244.563 281.959L244.846 292.358C248.056 292.577 251.279 292.559 254.487 292.303C254.613 292.309 254.736 292.271 254.836 292.195C254.921 292.088 254.964 291.953 254.957 291.817C255.098 289.384 254.674 286.946 254.811 284.513C254.861 283.623 254.986 282.737 255.003 281.843C255.053 278.22 253.264 274.672 253.805 271.091C253.975 270.187 254.197 269.294 254.47 268.417C256.18 262.178 255.818 255.623 255.439 249.18C255.446 249.076 255.417 248.973 255.356 248.889C255.295 248.827 255.217 248.785 255.132 248.768C253.312 248.222 251.388 248.122 249.521 248.477C247.655 248.832 245.901 249.631 244.409 250.806C243.956 251.172 242.812 251.526 242.512 251.962C242.096 252.57 242.641 253.177 242.883 253.822C243.417 255.438 243.775 257.107 243.951 258.8Z" fill="black"/>
<path d="M263.238 256.592C262.752 257.602 262.099 258.542 261.807 259.628C261.05 262.494 263.009 265.451 262.776 268.387C262.702 269.315 262.415 270.218 262.394 271.145C262.373 272.073 262.714 273.104 263.538 273.533C264.091 273.815 264.785 273.786 265.305 274.111C266.183 274.647 266.283 275.866 266.195 276.889C266.108 277.912 265.963 279.056 266.611 279.855C267.106 280.474 267.955 280.716 268.487 281.302C268.804 281.723 269.073 282.178 269.29 282.658C270.084 284.047 271.536 284.896 272.726 285.985C273.915 287.075 274.922 288.672 274.389 290.182C273.998 291.289 272.9 291.971 271.844 292.491C269.916 293.443 267.882 294.162 265.784 294.633C265.558 294.701 265.32 294.714 265.089 294.67C264.855 294.585 264.646 294.442 264.482 294.254C263.255 293.052 261.986 291.792 261.421 290.174C261.32 289.782 261.163 289.406 260.955 289.059C260.306 288.148 258.937 288.182 258.014 287.554C256.933 286.817 256.671 285.357 255.964 284.255C255.256 283.153 254.221 282.496 253.468 281.527C252.195 279.913 251.883 277.758 250.972 275.916C250.586 275.134 250.091 274.402 249.783 273.587C249.472 272.609 249.281 271.598 249.213 270.575C248.627 265.717 247.133 260.826 248.073 256.018C248.281 254.961 248.602 253.938 248.735 252.848C248.963 250.964 248.602 249.034 248.88 247.154C248.887 246.918 248.947 246.687 249.056 246.477C249.165 246.268 249.319 246.085 249.508 245.944C249.733 245.843 249.977 245.793 250.224 245.798C252.689 245.666 255.162 245.722 257.619 245.965C258.867 246.085 260.264 246.339 261.013 247.358C261.649 248.231 261.616 249.4 261.82 250.461C262.074 251.767 262.735 252.478 263.429 253.501C264.124 254.525 263.75 255.535 263.238 256.592Z" fill="#3F3D56"/>
<path d="M253.643 290.39C254.3 290.39 255.028 290.349 255.535 290.765C256.167 291.284 256.176 292.237 256.076 293.048C255.785 295.327 255.04 297.519 254.296 299.703L252.083 306.196C251.733 307.122 251.474 308.08 251.309 309.057C251.093 310.721 251.426 312.385 251.467 314.048C251.467 314.88 251.413 315.804 250.893 316.473C249.953 317.684 248.119 317.542 246.609 317.305L239.243 316.057C238.622 315.975 238.011 315.825 237.421 315.612C236.807 315.328 236.215 314.996 235.654 314.618C234.196 313.785 232.664 313.089 231.078 312.539C230.388 312.281 229.614 311.952 229.365 311.257C229.069 310.426 229.727 309.511 230.542 309.178C231.357 308.845 232.268 308.928 233.15 308.953C235.318 309.022 237.483 308.73 239.555 308.088C240.179 307.935 240.758 307.636 241.244 307.215C241.737 306.66 242.073 305.984 242.217 305.256C242.845 303.088 243.219 300.855 243.332 298.601C243.419 296.937 243.361 295.273 243.427 293.61C243.469 292.624 243.373 289.45 244.238 288.772C244.9 288.265 247.62 289.666 248.514 289.87C250.195 290.256 251.918 290.43 253.643 290.39Z" fill="#2F2E41"/>
<path d="M277.908 295.015C278.628 297.399 278.74 299.919 279.206 302.369C279.672 304.819 280.495 307.319 282.313 309.024C282.667 309.305 282.971 309.642 283.215 310.022C283.369 310.378 283.421 310.77 283.366 311.154C283.311 311.538 283.151 311.899 282.903 312.197C282.401 312.789 281.779 313.267 281.077 313.599C276.382 316.161 271.095 317.455 265.767 318.095C264.826 318.272 263.857 318.236 262.93 317.991C262.024 317.684 261.221 316.868 261.238 315.912C261.229 315.649 261.318 315.393 261.487 315.192C261.649 315.044 261.84 314.932 262.049 314.863C264.012 314.057 266.004 313.179 267.522 311.69C269.04 310.201 269.993 307.947 269.406 305.925C269.059 304.978 268.588 304.082 268.005 303.259C267.244 301.951 266.55 300.606 265.925 299.229L264.095 295.39C263.558 294.267 263.018 293.11 262.926 291.871C265.225 291.974 267.521 291.606 269.673 290.789C270.677 290.38 271.613 289.819 272.447 289.126C273.154 288.535 273.799 287.433 274.751 288.202C275.516 288.818 275.999 290.552 276.448 291.43C277.032 292.583 277.52 293.782 277.908 295.015Z" fill="#2F2E41"/>
<path d="M251.089 199.688C251.272 201.285 252.819 202.338 254.296 202.97L244.95 205.952C245.553 204.796 245.066 203.382 244.467 202.209C243.979 201.28 243.423 200.389 242.804 199.543C242.712 199.414 242.608 199.252 242.675 199.102C242.734 199.004 242.827 198.931 242.937 198.898C244.858 198.041 246.838 197.155 248.939 196.843C249.546 196.756 250.694 196.515 251.147 197.13C251.6 197.746 251.002 198.952 251.089 199.688Z" fill="#FBBEBE"/>
<path opacity="0.1" d="M251.089 199.688C251.272 201.285 252.819 202.338 254.296 202.97L244.95 205.952C245.553 204.796 245.066 203.382 244.467 202.209C243.979 201.28 243.423 200.389 242.804 199.543C242.712 199.414 242.608 199.252 242.675 199.102C242.734 199.004 242.827 198.931 242.937 198.898C244.858 198.041 246.838 197.155 248.939 196.843C249.546 196.756 250.694 196.515 251.147 197.13C251.6 197.746 251.002 198.952 251.089 199.688Z" fill="black"/>
<path d="M245.657 200.982C249.704 200.982 252.986 197.701 252.986 193.653C252.986 189.606 249.704 186.324 245.657 186.324C241.609 186.324 238.328 189.606 238.328 193.653C238.328 197.701 241.609 200.982 245.657 200.982Z" fill="#FBBEBE"/>
<path d="M239.306 253.963C240.017 254.816 241.269 254.982 242.363 254.795C244.921 254.379 247.013 252.495 249.517 251.817C252.586 250.985 255.835 252.054 258.734 253.364C261.633 254.674 264.515 256.276 267.685 256.5C264.819 250.111 266.458 242.425 263.717 235.982C263.047 234.406 262.111 232.888 261.961 231.182C261.774 229.065 262.831 227.023 262.993 224.919C263.143 223.043 262.577 221.175 262.036 219.387C261.368 217.191 260.7 214.994 260.031 212.798C259.283 210.34 258.513 207.84 257.062 205.728C256.525 204.95 256.363 203.373 255.548 202.903C253.768 201.876 251.068 203.17 249.138 203.24C247.208 203.311 245.449 204.684 244.322 206.235C243.128 207.874 242.45 209.824 241.826 211.754C240.833 214.628 240.091 217.582 239.609 220.585C239.547 221.034 239.493 221.483 239.451 221.936C239.035 226.208 239.643 230.505 239.676 234.797V234.826C239.717 240.271 238.844 245.682 238.682 251.122C238.665 252.116 238.69 253.202 239.306 253.963Z" fill="#2F2E41"/>
<path opacity="0.1" d="M239.688 234.801C241.123 234.439 242.421 233.512 243.536 232.497C244.501 231.633 245.358 230.655 246.089 229.585C247.01 228.147 247.749 226.6 248.29 224.981C249.829 220.65 250.808 216.139 251.201 211.559C251.309 210.311 251.343 208.972 250.598 207.982C250.18 207.446 249.593 207.067 248.932 206.907C248.271 206.746 247.576 206.815 246.959 207.1C245.977 207.578 245.341 208.548 244.75 209.475C243.581 211.313 242.404 213.177 241.651 215.223C241.319 216.13 241.073 217.062 240.749 217.973C240.419 218.871 240.038 219.75 239.609 220.605C239.547 221.055 239.493 221.504 239.451 221.957C239.064 226.229 239.655 230.509 239.688 234.801Z" fill="black"/>
<path d="M250.577 207.179C251.322 208.169 251.289 209.521 251.185 210.752C250.792 215.332 249.814 219.843 248.273 224.174C247.737 225.807 246.997 227.367 246.073 228.816C245.341 229.885 244.483 230.862 243.519 231.727C242.105 233.017 240.383 234.169 238.465 234.186C237.386 234.135 236.323 233.903 235.321 233.499L219.703 228.184C219.545 227.294 220.173 226.254 220.468 225.397L221.3 222.93C221.537 222.248 221.812 221.512 222.431 221.142C223.051 220.772 224.033 221.279 224.548 221.691C225.064 222.103 225.455 222.643 225.963 223.064C226.923 223.862 228.192 224.162 229.415 224.436L232.921 225.222C234.192 225.57 235.505 225.745 236.823 225.742C237.8 222.756 239.659 220.127 240.711 217.166C241.036 216.259 241.281 215.323 241.618 214.416C242.367 212.37 243.548 210.511 244.717 208.668C245.303 207.745 245.94 206.776 246.925 206.293C247.544 206.004 248.243 205.935 248.907 206.096C249.571 206.257 250.16 206.639 250.577 207.179Z" fill="#2F2E41"/>
<path d="M247.994 195.308C247.939 194.826 247.789 194.36 247.554 193.936C247.431 193.724 247.244 193.556 247.02 193.457C246.795 193.358 246.545 193.334 246.306 193.387C245.574 193.616 245.328 194.747 244.563 194.784C244.047 194.809 243.677 194.285 243.515 193.795C243.353 193.304 243.265 192.742 242.879 192.397C242.609 192.196 242.3 192.054 241.972 191.981C240.196 191.42 238.362 190.384 237.771 188.616C237.632 188.257 237.599 187.866 237.675 187.489C237.946 186.37 239.339 186.033 240.4 185.63C241.46 185.226 242.479 184.536 243.519 184.012C244.559 183.488 245.765 183.118 246.909 183.384C247.489 183.566 248.06 183.779 248.618 184.02C250.34 184.619 252.449 184.34 253.784 185.584C254.368 186.201 254.795 186.948 255.032 187.763C255.964 190.351 256.554 193.42 255.011 195.691C254.059 197.093 253.135 198.694 251.305 198.865C249.176 199.044 248.331 197.114 247.994 195.308Z" fill="#2F2E41"/>
<g opacity="0.1">
<path d="M244.742 192.913C244.579 192.422 244.492 191.86 244.109 191.515C243.84 191.314 243.531 191.172 243.203 191.099C241.423 190.538 239.592 189.502 238.998 187.734C238.862 187.375 238.83 186.984 238.906 186.607C238.947 186.43 239.022 186.261 239.127 186.112C238.449 186.408 237.858 186.799 237.692 187.489C237.615 187.866 237.648 188.257 237.787 188.616C238.378 190.384 240.212 191.42 241.988 191.981C242.317 192.054 242.626 192.196 242.895 192.397C243.282 192.742 243.365 193.3 243.531 193.795C243.698 194.29 244.064 194.809 244.579 194.784C245.095 194.76 245.345 194.29 245.673 193.894C245.22 193.836 244.891 193.37 244.742 192.913Z" fill="black"/>
<path d="M252.528 197.97C250.39 198.166 249.546 196.219 249.201 194.427C249.155 193.946 249.013 193.479 248.785 193.054C248.662 192.842 248.475 192.675 248.25 192.576C248.026 192.478 247.776 192.453 247.537 192.505C247.157 192.689 246.839 192.978 246.618 193.337C246.809 193.355 246.993 193.417 247.156 193.518C247.319 193.619 247.456 193.757 247.558 193.919C247.793 194.343 247.943 194.81 247.999 195.292C248.335 197.085 249.18 199.035 251.326 198.836C252.174 198.742 252.957 198.336 253.522 197.696C253.208 197.842 252.872 197.935 252.528 197.97Z" fill="black"/>
</g>
<g clip-path="url(#clip0_21_45)">
<path d="M88.6435 176.689L84.4987 181.671L86.7118 165.622L87.5331 166.033C88.3887 166.459 88.9325 167.331 88.9515 168.286L88.6511 176.689H88.6435Z" fill="#2F2E41"/>
<path d="M96.9862 311.809L94.3245 316.89L94.3169 316.905L93.4347 318.595L92.0087 321.308V321.312L91.4079 322.458L90.5181 324.159L88.2632 323.299L87.5902 323.04L87.2365 322.907L87.8335 321.339L89.4116 317.175L92.1494 309.967L92.1798 309.978L92.8529 310.233L95.5413 311.257L96.2143 311.512L96.9862 311.809Z" fill="#FFB6B6"/>
<path d="M95.6857 332.193C95.3739 333.004 94.4689 333.411 93.6628 333.103L92.5867 332.692L91.9136 332.437L89.2253 331.417L88.5484 331.162L87.1415 330.625L86.9019 327.874L86.3277 328.814L85.5824 330.035L85.187 329.887L83.1222 329.099L86.9589 321.065L87.8335 321.339L88.1529 321.438L88.8412 321.651L91.4041 322.454L91.5828 322.511L92.2711 322.724L92.5563 322.816L91.6627 325.164L93.5145 327.854L94.0202 328.589L95.5032 330.743C95.796 331.169 95.8607 331.71 95.6781 332.189L95.6857 332.193Z" fill="#2F2E41"/>
<path d="M69.5281 317.628L68.7258 323.314V323.326L68.4558 325.217L68.0261 328.254V328.258L67.8474 329.537L67.5774 331.436L65.1666 331.386L64.4442 331.367L64.0677 331.36L64.1057 329.681L64.1932 325.232L64.3567 317.522H64.3871L65.1096 317.537L67.9843 317.598L68.703 317.613L69.5281 317.628Z" fill="#FFB6B6"/>
<path d="M75.1407 337.27C75.1179 338.138 74.403 338.827 73.5398 338.808L72.3877 338.781L71.669 338.766L68.7943 338.709L68.0718 338.694L66.566 338.659L65.4176 336.147L65.1895 337.225L64.8929 338.625L64.4708 338.617L62.2615 338.572L63.1817 329.716L64.0981 329.681L64.4328 329.666L65.1514 329.636L67.836 329.533L68.0224 329.525L68.741 329.495L69.0414 329.483L68.9882 331.995L71.6348 333.906L72.3572 334.427L74.4752 335.957C74.8935 336.258 75.1369 336.745 75.1255 337.263L75.1407 337.27Z" fill="#2F2E41"/>
<path d="M81.5708 181.317C76.9968 181.317 73.2888 177.606 73.2888 173.028C73.2888 168.45 76.9968 164.739 81.5708 164.739C86.1447 164.739 89.8527 168.45 89.8527 173.028C89.8527 177.606 86.1447 181.317 81.5708 181.317Z" fill="#FFB6B6"/>
<path d="M92.9936 225.614L70.6727 223.174L69.8438 227.049V227.977L69.3684 228.529L69.1935 229.226L68.7372 229.264C68.7372 229.264 69.0034 229.732 68.8133 229.987C68.665 230.185 68.0984 230.116 67.8664 230.455C65.5241 233.876 59.4476 244.301 62.3794 256.932L61.9649 277.823L62.349 279.467L61.9041 280.532L61.5885 282.131L61.136 315.177L60.0294 319.052L61.6873 324.033L71.6385 324.585L73.2965 318.222L72.4675 310.199L74.9544 286.683L75.654 285.56L75.2509 284.418L74.8935 282.896L75.6616 281.324L78.3804 260.681C79.0877 259.025 79.3805 257.222 79.236 255.425L79.1752 254.668L79.6581 250.991L93.0658 272.848L97.5414 280.605L97.0737 283.916L94.1191 302.679L89.9363 307.246L89.1758 313.335L95.2599 317.141L102.104 314.857V310.29L112.542 281.743L100.667 246.55L98.7316 244.891L99.0092 242.675L97.1839 240.849L93.5297 232.647L91.8528 229.035L92.9936 225.61V225.614Z" fill="#2F2E41"/>
<path d="M85.4646 181.808H76.6693L74.6844 187.894L62.2463 193.705L65.0108 206.71L68.3266 218.055L69.3038 219.033L68.8779 220.822H71.0264L70.6765 223.174L68.3266 226.634L93.6096 226.093V220.449L91.6323 212.48C94.1305 206.98 92.735 203.669 92.3928 197.637L94.5906 189.283L87.6814 188.606L85.4684 181.812L85.4646 181.808Z" fill="#206A7E"/>
<path d="M61.1474 242.908L63.7141 227.699L58.2043 225.481L57.0521 242.299C56.535 242.615 56.1015 243.075 55.8239 243.665C55.0596 245.275 55.744 247.197 57.3525 247.962C58.961 248.727 60.8813 248.042 61.6456 246.432C62.2159 245.229 61.9764 243.848 61.1474 242.908Z" fill="#FFB6B6"/>
<path d="M68.7373 194.813L64.0373 192.876C64.0373 192.876 60.7215 193.154 59.8926 198.961C59.0636 204.769 58.2347 219.989 58.2347 219.989L56.8544 223.033V223.886L55.6337 226.493L56.3676 227.227L54.3675 228.845L63.4898 232.164L65.4519 227.144L64.5963 224.971L65.8283 223.738L66.8056 221.93L66.528 219.715L68.7411 194.813H68.7373Z" fill="#206A7E"/>
<path d="M92.5183 242.908C91.6893 243.848 91.4497 245.225 92.0201 246.432C92.7844 248.042 94.7047 248.727 96.3132 247.962C97.9216 247.197 98.6061 245.271 97.8418 243.665C97.5642 243.079 97.1269 242.615 96.6136 242.299L95.4614 225.481L89.9515 227.699L92.5183 242.908Z" fill="#FFB6B6"/>
<path d="M84.9246 194.813L87.1377 219.715L86.8601 221.93L87.8373 223.738L89.0694 224.971L88.2138 227.144L90.1759 232.164L99.2982 228.845L97.298 227.227L98.0319 226.493L96.8113 223.886V223.033L95.431 219.989C95.431 219.989 94.602 204.773 93.7731 198.961C92.9441 193.15 89.6283 192.876 89.6283 192.876L84.9284 194.813H84.9246Z" fill="#206A7E"/>
<path d="M65.8359 190.021H68.1022C68.8589 188.994 68.992 188.316 68.9274 187.06C69.0338 187.909 70.8362 185.314 70.7336 186.295C70.7108 186.509 69.6118 190.196 69.5738 190.402C70.6271 191.365 71.8477 191.871 73.1862 192.046C72.7603 190.756 73.1938 190.059 74.5057 190.174C74.4372 190.828 74.5247 191.498 74.7414 192.118C78.7037 191.985 83.4873 189.675 88.2138 187.863C88.3849 186.672 88.1758 185.424 87.594 184.37C88.0807 185.184 88.556 186.002 88.8983 186.885C88.9743 187.083 89.0428 187.285 89.1036 187.487C89.1454 187.631 89.1834 187.776 89.2177 187.917L91.4079 188.035C89.5485 185.344 89.8869 181.572 87.6244 179.544C84.0234 176.32 87.0616 171.628 88.5674 167.255C88.6131 166.121 87.9172 165.085 86.8487 164.701L83.9246 163.651C80.2057 162.315 80.392 161.55 76.7986 163.761C73.2052 162.657 66.912 168.53 66.912 172.895C66.912 173.276 66.8664 173.645 66.7942 173.999C67.2162 174.052 67.6269 174.189 67.992 174.41C67.4938 174.691 67.0071 174.996 66.5394 175.327C66.1743 177.572 66.201 179.864 66.7219 182.086C67.3075 184.587 66.2428 188.83 65.8359 190.021Z" fill="#2F2E41"/>
</g>
<defs>
<linearGradient id="paint0_linear_21_45" x1="250.341" y1="318.747" x2="244.836" y2="182.27" gradientUnits="userSpaceOnUse">
<stop stop-color="#808080" stop-opacity="0.25"/>
<stop offset="0.54" stop-color="#808080" stop-opacity="0.12"/>
<stop offset="1" stop-color="#808080" stop-opacity="0.1"/>
</linearGradient>
<clipPath id="clip0_21_45">
<rect width="58.1787" height="176.444" fill="white" transform="matrix(-1 0 0 1 112.542 162.364)"/>
</clipPath>
</defs>
</svg>
