<svg width="426" height="310" viewBox="0 0 426 310" fill="none" xmlns="http://www.w3.org/2000/svg">
<path d="M247.777 54.539C255.75 54.539 262.212 48.0763 262.212 40.1041C262.212 32.1319 255.75 25.6691 247.777 25.6691C239.805 25.6691 233.342 32.1319 233.342 40.1041C233.342 48.0763 239.805 54.539 247.777 54.539Z" fill="#F2F2F2"/>
<path d="M359.754 268.77C381.21 252.428 391.458 224.966 385.042 198.769C384.882 198.118 384.714 197.469 384.537 196.821C380.284 181.271 369.761 166.492 354.425 161.523C341.547 157.351 327.491 160.559 314.057 158.9C287.685 155.644 267.239 134.306 252.853 111.964C238.467 89.6229 227.41 64.615 208.294 46.1579C176.784 15.7343 125.384 9.1841 86.316 28.9876C47.2483 48.7911 22.3626 92.7268 23.4239 136.514C24.4852 180.302 50.4799 222.165 88.2306 244.377C102.099 252.536 118.138 258.317 134.101 256.294C147.952 254.539 160.537 247.097 174.323 244.887C195.997 241.414 217.533 251.213 236.279 262.632C255.025 274.052 273.133 287.587 294.436 292.881C315.121 298.022 340.747 283.247 359.754 268.77Z" fill="#F2F2F2"/>
<path d="M329.448 29.9071C328.978 29.5935 328.502 29.2962 328.032 28.9934C314.436 20.298 299.863 13.2339 284.614 7.94713L281.079 56.7218H258.665V0.827177C257.254 0.535243 255.832 0.259528 254.41 3.05176e-05V56.7218H227.774C213.11 56.7218 199.047 50.8967 188.678 40.528C178.31 30.1593 172.485 16.0963 172.485 1.43273C171.057 1.74089 169.641 2.07062 168.225 2.42202V56.7218H146.529L143.161 10.2123C127.491 16.222 112.615 24.125 98.8631 33.7455C98.6252 33.9077 98.3873 34.0753 98.1549 34.2375C96.9601 35.0754 95.7815 35.9296 94.6084 36.7946V222.87H158.547L157.418 207.219L151.2 121.288H276.402L270.185 207.219L269.055 222.87H332.286V31.7885C331.346 31.1505 330.399 30.5234 329.448 29.9071ZM168.225 107.097H150.173L146.838 60.9819H168.225V107.097ZM254.41 107.097H224.092V106.183C224.092 105.744 224.006 105.309 223.837 104.903C223.669 104.498 223.423 104.129 223.112 103.819C222.801 103.508 222.432 103.262 222.026 103.095C221.62 102.927 221.185 102.841 220.746 102.842H207.565C207.127 102.842 206.692 102.928 206.287 103.096C205.881 103.264 205.513 103.51 205.203 103.82C204.892 104.13 204.646 104.499 204.478 104.904C204.311 105.31 204.224 105.744 204.224 106.183V107.097H172.485V60.9819H254.41V107.097ZM258.665 107.097V60.9819H280.771L277.435 107.097H258.665Z" fill="#D5E2E6"/>
<path d="M0 234.786C4.6965 240.351 9.77629 245.581 15.2022 250.437L410.168 250.978C415.594 246.121 420.674 240.891 425.37 235.327L0 234.786Z" fill="#D5E2E6"/>
<path d="M267.839 184.671V231.004C267.839 231.595 268.074 232.161 268.492 232.578C268.909 232.996 269.475 233.231 270.066 233.231H338.727C339.317 233.231 339.883 232.996 340.301 232.578C340.719 232.161 340.953 231.595 340.954 231.004V184.671C340.952 184.081 340.717 183.516 340.3 183.099C339.882 182.682 339.317 182.447 338.727 182.447H270.066C269.476 182.447 268.91 182.682 268.493 183.099C268.076 183.516 267.84 184.081 267.839 184.671Z" fill="#D5E2E6"/>
<path d="M269.45 185.247V230.433C269.45 230.748 269.576 231.05 269.799 231.274C270.022 231.497 270.324 231.622 270.64 231.623H338.155C338.471 231.622 338.773 231.497 338.996 231.274C339.219 231.05 339.345 230.748 339.345 230.433V185.247C339.345 184.932 339.22 184.629 338.997 184.405C338.774 184.181 338.471 184.055 338.155 184.055H270.64C270.324 184.055 270.021 184.181 269.798 184.405C269.575 184.629 269.45 184.932 269.45 185.247Z" fill="#206A7E"/>
<path d="M266.403 240.04C266.529 240.198 266.689 240.325 266.871 240.412C267.053 240.499 267.252 240.544 267.454 240.543H340.973C341.175 240.543 341.373 240.498 341.554 240.411C341.736 240.325 341.896 240.199 342.022 240.042C342.149 239.886 342.239 239.704 342.287 239.508C342.334 239.313 342.337 239.109 342.296 238.913L341.155 233.492C341.107 233.271 341.005 233.065 340.858 232.893C340.711 232.722 340.524 232.59 340.312 232.509C340.159 232.449 339.996 232.418 339.832 232.418H268.59C268.426 232.418 268.263 232.449 268.11 232.509C267.899 232.59 267.711 232.722 267.564 232.893C267.417 233.065 267.315 233.271 267.268 233.492L266.127 238.913C266.086 239.109 266.09 239.313 266.138 239.508C266.185 239.703 266.276 239.885 266.403 240.04Z" fill="#2F2E41"/>
<path d="M337.31 234.753H339.046C339.192 234.753 339.31 234.635 339.31 234.489V233.659C339.31 233.513 339.192 233.395 339.046 233.395H337.31C337.164 233.395 337.046 233.513 337.046 233.659V234.489C337.046 234.635 337.164 234.753 337.31 234.753Z" fill="#D5E2E6"/>
<path d="M332.781 234.753H334.517C334.663 234.753 334.781 234.635 334.781 234.489V233.659C334.781 233.513 334.663 233.395 334.517 233.395H332.781C332.635 233.395 332.517 233.513 332.517 233.659V234.489C332.517 234.635 332.635 234.753 332.781 234.753Z" fill="#D5E2E6"/>
<path d="M328.252 234.753H329.989C330.134 234.753 330.252 234.635 330.252 234.489V233.659C330.252 233.513 330.134 233.395 329.989 233.395H328.252C328.106 233.395 327.988 233.513 327.988 233.659V234.489C327.988 234.635 328.106 234.753 328.252 234.753Z" fill="#D5E2E6"/>
<path d="M323.723 234.753H325.46C325.606 234.753 325.724 234.635 325.724 234.489V233.659C325.724 233.513 325.606 233.395 325.46 233.395H323.723C323.578 233.395 323.46 233.513 323.46 233.659V234.489C323.46 234.635 323.578 234.753 323.723 234.753Z" fill="#D5E2E6"/>
<path d="M319.195 234.753H320.931C321.077 234.753 321.195 234.635 321.195 234.489V233.659C321.195 233.513 321.077 233.395 320.931 233.395H319.195C319.049 233.395 318.931 233.513 318.931 233.659V234.489C318.931 234.635 319.049 234.753 319.195 234.753Z" fill="#D5E2E6"/>
<path d="M314.666 234.753H316.402C316.548 234.753 316.666 234.635 316.666 234.489V233.659C316.666 233.513 316.548 233.395 316.402 233.395H314.666C314.52 233.395 314.402 233.513 314.402 233.659V234.489C314.402 234.635 314.52 234.753 314.666 234.753Z" fill="#D5E2E6"/>
<path d="M310.137 234.753H311.874C312.019 234.753 312.137 234.635 312.137 234.489V233.659C312.137 233.513 312.019 233.395 311.874 233.395H310.137C309.991 233.395 309.873 233.513 309.873 233.659V234.489C309.873 234.635 309.991 234.753 310.137 234.753Z" fill="#D5E2E6"/>
<path d="M305.608 234.753H307.345C307.491 234.753 307.609 234.635 307.609 234.489V233.659C307.609 233.513 307.491 233.395 307.345 233.395H305.608C305.463 233.395 305.344 233.513 305.344 233.659V234.489C305.344 234.635 305.463 234.753 305.608 234.753Z" fill="#D5E2E6"/>
<path d="M301.08 234.753H302.816C302.962 234.753 303.08 234.635 303.08 234.489V233.659C303.08 233.513 302.962 233.395 302.816 233.395H301.08C300.934 233.395 300.816 233.513 300.816 233.659V234.489C300.816 234.635 300.934 234.753 301.08 234.753Z" fill="#D5E2E6"/>
<path d="M296.551 234.753H298.287C298.433 234.753 298.551 234.635 298.551 234.489V233.659C298.551 233.513 298.433 233.395 298.287 233.395H296.551C296.405 233.395 296.287 233.513 296.287 233.659V234.489C296.287 234.635 296.405 234.753 296.551 234.753Z" fill="#D5E2E6"/>
<path d="M292.022 234.753H293.759C293.904 234.753 294.022 234.635 294.022 234.489V233.659C294.022 233.513 293.904 233.395 293.759 233.395H292.022C291.876 233.395 291.758 233.513 291.758 233.659V234.489C291.758 234.635 291.876 234.753 292.022 234.753Z" fill="#D5E2E6"/>
<path d="M287.493 234.753H289.23C289.376 234.753 289.494 234.635 289.494 234.489V233.659C289.494 233.513 289.376 233.395 289.23 233.395H287.493C287.348 233.395 287.229 233.513 287.229 233.659V234.489C287.229 234.635 287.348 234.753 287.493 234.753Z" fill="#D5E2E6"/>
<path d="M282.965 234.753H284.701C284.847 234.753 284.965 234.635 284.965 234.489V233.659C284.965 233.513 284.847 233.395 284.701 233.395H282.965C282.819 233.395 282.701 233.513 282.701 233.659V234.489C282.701 234.635 282.819 234.753 282.965 234.753Z" fill="#D5E2E6"/>
<path d="M278.436 234.753H280.172C280.318 234.753 280.436 234.635 280.436 234.489V233.659C280.436 233.513 280.318 233.395 280.172 233.395H278.436C278.29 233.395 278.172 233.513 278.172 233.659V234.489C278.172 234.635 278.29 234.753 278.436 234.753Z" fill="#D5E2E6"/>
<path d="M273.907 234.753H275.644C275.789 234.753 275.907 234.635 275.907 234.489V233.659C275.907 233.513 275.789 233.395 275.644 233.395H273.907C273.761 233.395 273.643 233.513 273.643 233.659V234.489C273.643 234.635 273.761 234.753 273.907 234.753Z" fill="#D5E2E6"/>
<path d="M269.378 234.753H271.115C271.261 234.753 271.379 234.635 271.379 234.489V233.659C271.379 233.513 271.261 233.395 271.115 233.395H269.378C269.232 233.395 269.114 233.513 269.114 233.659V234.489C269.114 234.635 269.232 234.753 269.378 234.753Z" fill="#D5E2E6"/>
<path d="M337.363 237.018H339.1C339.245 237.018 339.364 236.9 339.364 236.754V235.923C339.364 235.777 339.245 235.659 339.1 235.659H337.363C337.217 235.659 337.099 235.777 337.099 235.923V236.754C337.099 236.9 337.217 237.018 337.363 237.018Z" fill="#D5E2E6"/>
<path d="M332.834 237.018H334.571C334.717 237.018 334.835 236.9 334.835 236.754V235.923C334.835 235.777 334.717 235.659 334.571 235.659H332.834C332.689 235.659 332.57 235.777 332.57 235.923V236.754C332.57 236.9 332.689 237.018 332.834 237.018Z" fill="#D5E2E6"/>
<path d="M328.306 237.018H330.042C330.188 237.018 330.306 236.9 330.306 236.754V235.923C330.306 235.777 330.188 235.659 330.042 235.659H328.306C328.16 235.659 328.042 235.777 328.042 235.923V236.754C328.042 236.9 328.16 237.018 328.306 237.018Z" fill="#D5E2E6"/>
<path d="M323.777 237.018H325.513C325.659 237.018 325.777 236.9 325.777 236.754V235.923C325.777 235.777 325.659 235.659 325.513 235.659H323.777C323.631 235.659 323.513 235.777 323.513 235.923V236.754C323.513 236.9 323.631 237.018 323.777 237.018Z" fill="#D5E2E6"/>
<path d="M319.248 237.018H320.985C321.13 237.018 321.249 236.9 321.249 236.754V235.923C321.249 235.777 321.13 235.659 320.985 235.659H319.248C319.102 235.659 318.984 235.777 318.984 235.923V236.754C318.984 236.9 319.102 237.018 319.248 237.018Z" fill="#D5E2E6"/>
<path d="M314.719 237.018H316.456C316.602 237.018 316.72 236.9 316.72 236.754V235.923C316.72 235.777 316.602 235.659 316.456 235.659H314.719C314.574 235.659 314.455 235.777 314.455 235.923V236.754C314.455 236.9 314.574 237.018 314.719 237.018Z" fill="#D5E2E6"/>
<path d="M310.191 237.018H311.927C312.073 237.018 312.191 236.9 312.191 236.754V235.923C312.191 235.777 312.073 235.659 311.927 235.659H310.191C310.045 235.659 309.927 235.777 309.927 235.923V236.754C309.927 236.9 310.045 237.018 310.191 237.018Z" fill="#D5E2E6"/>
<path d="M305.662 237.018H307.398C307.544 237.018 307.662 236.9 307.662 236.754V235.923C307.662 235.777 307.544 235.659 307.398 235.659H305.662C305.516 235.659 305.398 235.777 305.398 235.923V236.754C305.398 236.9 305.516 237.018 305.662 237.018Z" fill="#D5E2E6"/>
<path d="M301.133 237.018H302.87C303.015 237.018 303.134 236.9 303.134 236.754V235.923C303.134 235.777 303.015 235.659 302.87 235.659H301.133C300.987 235.659 300.869 235.777 300.869 235.923V236.754C300.869 236.9 300.987 237.018 301.133 237.018Z" fill="#D5E2E6"/>
<path d="M296.604 237.018H298.341C298.487 237.018 298.605 236.9 298.605 236.754V235.923C298.605 235.777 298.487 235.659 298.341 235.659H296.604C296.459 235.659 296.34 235.777 296.34 235.923V236.754C296.34 236.9 296.459 237.018 296.604 237.018Z" fill="#D5E2E6"/>
<path d="M292.076 237.018H293.812C293.958 237.018 294.076 236.9 294.076 236.754V235.923C294.076 235.777 293.958 235.659 293.812 235.659H292.076C291.93 235.659 291.812 235.777 291.812 235.923V236.754C291.812 236.9 291.93 237.018 292.076 237.018Z" fill="#D5E2E6"/>
<path d="M287.547 237.018H289.283C289.429 237.018 289.547 236.9 289.547 236.754V235.923C289.547 235.777 289.429 235.659 289.283 235.659H287.547C287.401 235.659 287.283 235.777 287.283 235.923V236.754C287.283 236.9 287.401 237.018 287.547 237.018Z" fill="#D5E2E6"/>
<path d="M283.018 237.018H284.755C284.9 237.018 285.019 236.9 285.019 236.754V235.923C285.019 235.777 284.9 235.659 284.755 235.659H283.018C282.872 235.659 282.754 235.777 282.754 235.923V236.754C282.754 236.9 282.872 237.018 283.018 237.018Z" fill="#D5E2E6"/>
<path d="M278.489 237.018H280.226C280.372 237.018 280.49 236.9 280.49 236.754V235.923C280.49 235.777 280.372 235.659 280.226 235.659H278.489C278.344 235.659 278.225 235.777 278.225 235.923V236.754C278.225 236.9 278.344 237.018 278.489 237.018Z" fill="#D5E2E6"/>
<path d="M273.96 237.018H275.697C275.843 237.018 275.961 236.9 275.961 236.754V235.923C275.961 235.777 275.843 235.659 275.697 235.659H273.96C273.815 235.659 273.697 235.777 273.697 235.923V236.754C273.697 236.9 273.815 237.018 273.96 237.018Z" fill="#D5E2E6"/>
<path d="M269.432 237.018H271.168C271.314 237.018 271.432 236.9 271.432 236.754V235.923C271.432 235.777 271.314 235.659 271.168 235.659H269.432C269.286 235.659 269.168 235.777 269.168 235.923V236.754C269.168 236.9 269.286 237.018 269.432 237.018Z" fill="#D5E2E6"/>
<path d="M299.774 239.735H317.362C317.507 239.735 317.625 239.617 317.625 239.471V238.64C317.625 238.495 317.507 238.376 317.362 238.376H299.774C299.629 238.376 299.51 238.495 299.51 238.64V239.471C299.51 239.617 299.629 239.735 299.774 239.735Z" fill="#D5E2E6"/>
<path d="M281.141 193.94H279.604C279.138 193.94 278.76 194.318 278.76 194.784C278.76 195.25 279.138 195.628 279.604 195.628H281.141C281.608 195.628 281.985 195.25 281.985 194.784C281.985 194.318 281.608 193.94 281.141 193.94Z" fill="white"/>
<path d="M298.724 193.94H297.187C296.721 193.94 296.343 194.318 296.343 194.784C296.343 195.25 296.721 195.628 297.187 195.628H298.724C299.19 195.628 299.568 195.25 299.568 194.784C299.568 194.318 299.19 193.94 298.724 193.94Z" fill="white"/>
<path d="M303.706 193.94H302.168C301.702 193.94 301.324 194.318 301.324 194.784C301.324 195.25 301.702 195.628 302.168 195.628H303.706C304.172 195.628 304.55 195.25 304.55 194.784C304.55 194.318 304.172 193.94 303.706 193.94Z" fill="white"/>
<path d="M293.941 193.799H284.387C283.92 193.799 283.543 194.177 283.543 194.643C283.543 195.11 283.92 195.487 284.387 195.487H293.941C294.408 195.487 294.785 195.11 294.785 194.643C294.785 194.177 294.408 193.799 293.941 193.799Z" fill="white"/>
<path d="M317.385 193.799H307.83C307.364 193.799 306.986 194.177 306.986 194.643C306.986 195.11 307.364 195.487 307.83 195.487H317.385C317.851 195.487 318.229 195.11 318.229 194.643C318.229 194.177 317.851 193.799 317.385 193.799Z" fill="white"/>
<path d="M285.83 197.75H284.293C283.827 197.75 283.449 198.128 283.449 198.594C283.449 199.06 283.827 199.438 284.293 199.438H285.83C286.296 199.438 286.674 199.06 286.674 198.594C286.674 198.128 286.296 197.75 285.83 197.75Z" fill="white"/>
<path d="M303.413 197.75H301.875C301.409 197.75 301.031 198.128 301.031 198.594C301.031 199.06 301.409 199.438 301.875 199.438H303.413C303.879 199.438 304.257 199.06 304.257 198.594C304.257 198.128 303.879 197.75 303.413 197.75Z" fill="white"/>
<path d="M308.394 197.75H306.857C306.391 197.75 306.013 198.128 306.013 198.594C306.013 199.06 306.391 199.438 306.857 199.438H308.394C308.86 199.438 309.238 199.06 309.238 198.594C309.238 198.128 308.86 197.75 308.394 197.75Z" fill="white"/>
<path d="M298.63 197.609H289.075C288.609 197.609 288.231 197.987 288.231 198.453C288.231 198.919 288.609 199.297 289.075 199.297H298.63C299.096 199.297 299.474 198.919 299.474 198.453C299.474 197.987 299.096 197.609 298.63 197.609Z" fill="white"/>
<path d="M322.074 197.609H312.519C312.053 197.609 311.675 197.987 311.675 198.453C311.675 198.919 312.053 199.297 312.519 199.297H322.074C322.54 199.297 322.917 198.919 322.917 198.453C322.917 197.987 322.54 197.609 322.074 197.609Z" fill="white"/>
<path d="M290.519 201.559H288.981C288.515 201.559 288.137 201.937 288.137 202.403C288.137 202.869 288.515 203.247 288.981 203.247H290.519C290.985 203.247 291.363 202.869 291.363 202.403C291.363 201.937 290.985 201.559 290.519 201.559Z" fill="white"/>
<path d="M308.101 201.559H306.564C306.098 201.559 305.72 201.937 305.72 202.403C305.72 202.869 306.098 203.247 306.564 203.247H308.101C308.567 203.247 308.945 202.869 308.945 202.403C308.945 201.937 308.567 201.559 308.101 201.559Z" fill="white"/>
<path d="M313.083 201.559H311.546C311.08 201.559 310.702 201.937 310.702 202.403C310.702 202.869 311.08 203.247 311.546 203.247H313.083C313.549 203.247 313.927 202.869 313.927 202.403C313.927 201.937 313.549 201.559 313.083 201.559Z" fill="white"/>
<path d="M303.319 201.419H293.764C293.298 201.419 292.92 201.796 292.92 202.263C292.92 202.729 293.298 203.107 293.764 203.107H303.319C303.785 203.107 304.163 202.729 304.163 202.263C304.163 201.796 303.785 201.419 303.319 201.419Z" fill="white"/>
<path d="M326.762 201.419H317.207C316.741 201.419 316.363 201.796 316.363 202.263C316.363 202.729 316.741 203.107 317.207 203.107H326.762C327.228 203.107 327.606 202.729 327.606 202.263C327.606 201.796 327.228 201.419 326.762 201.419Z" fill="white"/>
<path d="M295.207 205.369H293.67C293.204 205.369 292.826 205.747 292.826 206.213C292.826 206.679 293.204 207.057 293.67 207.057H295.207C295.673 207.057 296.051 206.679 296.051 206.213C296.051 205.747 295.673 205.369 295.207 205.369Z" fill="white"/>
<path d="M312.79 205.369H311.253C310.787 205.369 310.409 205.747 310.409 206.213C310.409 206.679 310.787 207.057 311.253 207.057H312.79C313.256 207.057 313.634 206.679 313.634 206.213C313.634 205.747 313.256 205.369 312.79 205.369Z" fill="white"/>
<path d="M317.772 205.369H316.234C315.768 205.369 315.39 205.747 315.39 206.213C315.39 206.679 315.768 207.057 316.234 207.057H317.772C318.238 207.057 318.616 206.679 318.616 206.213C318.616 205.747 318.238 205.369 317.772 205.369Z" fill="white"/>
<path d="M308.007 205.228H298.453C297.986 205.228 297.609 205.606 297.609 206.072C297.609 206.538 297.986 206.916 298.453 206.916H308.007C308.474 206.916 308.851 206.538 308.851 206.072C308.851 205.606 308.474 205.228 308.007 205.228Z" fill="white"/>
<path d="M298.724 220.517H297.187C296.721 220.517 296.343 220.895 296.343 221.361C296.343 221.827 296.721 222.205 297.187 222.205H298.724C299.19 222.205 299.568 221.827 299.568 221.361C299.568 220.895 299.19 220.517 298.724 220.517Z" fill="white"/>
<path d="M303.706 220.517H302.168C301.702 220.517 301.324 220.895 301.324 221.361C301.324 221.827 301.702 222.205 302.168 222.205H303.706C304.172 222.205 304.55 221.827 304.55 221.361C304.55 220.895 304.172 220.517 303.706 220.517Z" fill="white"/>
<path d="M317.385 220.658H307.83C307.364 220.658 306.986 221.036 306.986 221.502C306.986 221.968 307.364 222.346 307.83 222.346H317.385C317.851 222.346 318.229 221.968 318.229 221.502C318.229 221.036 317.851 220.658 317.385 220.658Z" fill="white"/>
<path d="M281.141 220.517H279.604C279.138 220.517 278.76 220.895 278.76 221.361C278.76 221.827 279.138 222.205 279.604 222.205H281.141C281.608 222.205 281.985 221.827 281.985 221.361C281.985 220.895 281.608 220.517 281.141 220.517Z" fill="white"/>
<path d="M293.941 220.658H284.387C283.92 220.658 283.543 221.036 283.543 221.502C283.543 221.968 283.92 222.346 284.387 222.346H293.941C294.408 222.346 294.785 221.968 294.785 221.502C294.785 221.036 294.408 220.658 293.941 220.658Z" fill="white"/>
<path d="M285.83 216.708H284.293C283.827 216.708 283.449 217.086 283.449 217.552C283.449 218.018 283.827 218.396 284.293 218.396H285.83C286.296 218.396 286.674 218.018 286.674 217.552C286.674 217.086 286.296 216.708 285.83 216.708Z" fill="white"/>
<path d="M303.413 216.708H301.875C301.409 216.708 301.031 217.086 301.031 217.552C301.031 218.018 301.409 218.396 301.875 218.396H303.413C303.879 218.396 304.257 218.018 304.257 217.552C304.257 217.086 303.879 216.708 303.413 216.708Z" fill="white"/>
<path d="M308.394 216.708H306.857C306.391 216.708 306.013 217.086 306.013 217.552C306.013 218.018 306.391 218.396 306.857 218.396H308.394C308.86 218.396 309.238 218.018 309.238 217.552C309.238 217.086 308.86 216.708 308.394 216.708Z" fill="white"/>
<path d="M298.63 216.848H289.075C288.609 216.848 288.231 217.226 288.231 217.692C288.231 218.158 288.609 218.536 289.075 218.536H298.63C299.096 218.536 299.474 218.158 299.474 217.692C299.474 217.226 299.096 216.848 298.63 216.848Z" fill="white"/>
<path d="M290.519 212.898H288.981C288.515 212.898 288.137 213.276 288.137 213.742C288.137 214.208 288.515 214.586 288.981 214.586H290.519C290.985 214.586 291.363 214.208 291.363 213.742C291.363 213.276 290.985 212.898 290.519 212.898Z" fill="white"/>
<path d="M308.101 212.898H306.564C306.098 212.898 305.72 213.276 305.72 213.742C305.72 214.208 306.098 214.586 306.564 214.586H308.101C308.567 214.586 308.945 214.208 308.945 213.742C308.945 213.276 308.567 212.898 308.101 212.898Z" fill="white"/>
<path d="M313.083 212.898H311.546C311.08 212.898 310.702 213.276 310.702 213.742C310.702 214.208 311.08 214.586 311.546 214.586H313.083C313.549 214.586 313.927 214.208 313.927 213.742C313.927 213.276 313.549 212.898 313.083 212.898Z" fill="white"/>
<path d="M303.319 213.039H293.764C293.298 213.039 292.92 213.417 292.92 213.883C292.92 214.349 293.298 214.727 293.764 214.727H303.319C303.785 214.727 304.163 214.349 304.163 213.883C304.163 213.417 303.785 213.039 303.319 213.039Z" fill="white"/>
<path d="M295.207 209.089H293.67C293.204 209.089 292.826 209.466 292.826 209.933C292.826 210.399 293.204 210.777 293.67 210.777H295.207C295.673 210.777 296.051 210.399 296.051 209.933C296.051 209.466 295.673 209.089 295.207 209.089Z" fill="white"/>
<path d="M312.79 209.089H311.253C310.787 209.089 310.409 209.466 310.409 209.933C310.409 210.399 310.787 210.777 311.253 210.777H312.79C313.256 210.777 313.634 210.399 313.634 209.933C313.634 209.466 313.256 209.089 312.79 209.089Z" fill="white"/>
<path d="M317.772 209.089H316.234C315.768 209.089 315.39 209.466 315.39 209.933C315.39 210.399 315.768 210.777 316.234 210.777H317.772C318.238 210.777 318.616 210.399 318.616 209.933C318.616 209.466 318.238 209.089 317.772 209.089Z" fill="white"/>
<path d="M308.007 209.229H298.453C297.986 209.229 297.609 209.607 297.609 210.073C297.609 210.539 297.986 210.917 298.453 210.917H308.007C308.474 210.917 308.851 210.539 308.851 210.073C308.851 209.607 308.474 209.229 308.007 209.229Z" fill="white"/>
<path d="M272.968 265.164L265.751 253.756L288.404 235.698L297.754 225.339C298.969 223.993 300.516 222.99 302.24 222.429C303.964 221.868 305.805 221.77 307.579 222.143C309.353 222.517 310.998 223.35 312.349 224.558C313.701 225.767 314.711 227.309 315.28 229.03C316.123 231.581 315.942 234.36 314.775 236.78C313.607 239.2 311.546 241.071 309.025 242L294.24 247.447L272.968 265.164Z" fill="#FFB6B6"/>
<path d="M103.631 182.449V237.895H142.475V182.449C142.475 182.05 142.348 181.661 142.112 181.34C141.875 181.019 141.542 180.782 141.161 180.665C140.981 180.605 140.793 180.576 140.604 180.578H105.507C105.261 180.578 105.017 180.626 104.79 180.719C104.562 180.813 104.356 180.951 104.182 181.125C104.007 181.298 103.869 181.505 103.775 181.732C103.68 181.959 103.631 182.203 103.631 182.449ZM118.79 201.5C118.8 200.407 119.242 199.362 120.018 198.593C120.795 197.823 121.844 197.392 122.937 197.392C124.03 197.392 125.079 197.823 125.855 198.593C126.632 199.362 127.073 200.407 127.083 201.5V207.933C127.078 209.03 126.638 210.079 125.861 210.852C125.084 211.625 124.033 212.059 122.937 212.059C121.841 212.059 120.789 211.625 120.012 210.852C119.235 210.079 118.796 209.03 118.79 207.933V201.5Z" fill="#2F2E41"/>
<path d="M103.512 236.121V241.468C103.513 241.745 103.623 242.011 103.819 242.207C104.014 242.403 104.279 242.515 104.556 242.517H141.55C141.828 242.515 142.093 242.404 142.288 242.208C142.484 242.011 142.594 241.745 142.594 241.468V236.121H103.512Z" fill="#D5E2E6"/>
<path d="M42.525 98.9122V200.149C42.526 201.439 43.039 202.676 43.9512 203.588C44.8635 204.5 46.1005 205.013 47.3906 205.014H197.412C198.703 205.013 199.94 204.5 200.852 203.588C201.764 202.676 202.277 201.439 202.278 200.149V98.9122C202.275 97.6232 201.761 96.388 200.849 95.477C199.937 94.5661 198.701 94.0537 197.412 94.0521H47.3906C46.1016 94.0537 44.8658 94.5661 43.9538 95.4771C43.0419 96.388 42.5281 97.6232 42.525 98.9122Z" fill="#D5E2E6"/>
<path d="M46.0446 100.172V198.9C46.0457 199.589 46.3201 200.25 46.8075 200.737C47.2949 201.225 47.9556 201.499 48.6449 201.5H196.164C196.853 201.499 197.514 201.225 198.001 200.737C198.489 200.25 198.763 199.589 198.764 198.9V100.172C198.764 99.4817 198.49 98.8197 198.003 98.3312C197.515 97.8427 196.854 97.5675 196.164 97.566H48.6449C47.9548 97.5675 47.2934 97.8427 46.8059 98.3312C46.3184 98.8197 46.0446 99.4817 46.0446 100.172Z" fill="white"/>
<path d="M73.4215 242.155C73.5716 242.343 73.7625 242.495 73.9797 242.599C74.1969 242.703 74.4349 242.756 74.6757 242.755H162.44C162.68 242.754 162.917 242.701 163.133 242.597C163.35 242.494 163.541 242.344 163.692 242.157C163.843 241.971 163.951 241.753 164.007 241.52C164.064 241.286 164.068 241.043 164.018 240.809L162.656 234.337C162.6 234.073 162.478 233.828 162.302 233.623C162.127 233.418 161.903 233.26 161.651 233.164C161.468 233.093 161.274 233.056 161.077 233.056H76.0327C75.8365 233.056 75.6422 233.093 75.4596 233.164C75.2074 233.26 74.9833 233.418 74.8077 233.623C74.6321 233.828 74.5105 234.073 74.454 234.337L73.0917 240.809C73.0432 241.043 73.0477 241.286 73.1047 241.519C73.1617 241.752 73.2699 241.969 73.4215 242.155Z" fill="#2F2E41"/>
<path d="M191.376 111.166H53.3435C53.2 111.163 53.0635 111.104 52.9632 111.001C52.8628 110.899 52.8066 110.761 52.8066 110.617C52.8066 110.474 52.8628 110.336 52.9632 110.233C53.0635 110.131 53.2 110.072 53.3435 110.068H191.376C191.52 110.072 191.656 110.131 191.757 110.233C191.857 110.336 191.913 110.474 191.913 110.617C191.913 110.761 191.857 110.899 191.757 111.001C191.656 111.104 191.52 111.163 191.376 111.166Z" fill="#D5E2E6"/>
<path d="M62.7395 107.266C64.5162 107.266 65.9564 105.793 65.9564 103.977C65.9564 102.161 64.5162 100.689 62.7395 100.689C60.9628 100.689 59.5226 102.161 59.5226 103.977C59.5226 105.793 60.9628 107.266 62.7395 107.266Z" fill="#D5E2E6"/>
<path d="M73.8525 107.266C75.6292 107.266 77.0694 105.793 77.0694 103.977C77.0694 102.161 75.6292 100.689 73.8525 100.689C72.0759 100.689 70.6356 102.161 70.6356 103.977C70.6356 105.793 72.0759 107.266 73.8525 107.266Z" fill="#D5E2E6"/>
<path d="M84.9654 107.266C86.7421 107.266 88.1824 105.793 88.1824 103.977C88.1824 102.161 86.7421 100.689 84.9654 100.689C83.1888 100.689 81.7485 102.161 81.7485 103.977C81.7485 105.793 83.1888 107.266 84.9654 107.266Z" fill="#D5E2E6"/>
<path d="M184.684 101.502H176.791C176.635 101.505 176.487 101.57 176.378 101.682C176.269 101.793 176.208 101.943 176.208 102.099C176.208 102.255 176.269 102.405 176.378 102.517C176.487 102.628 176.635 102.693 176.791 102.697H184.684C184.841 102.694 184.991 102.63 185.101 102.519C185.212 102.407 185.273 102.256 185.273 102.099C185.273 101.942 185.212 101.791 185.101 101.68C184.991 101.568 184.841 101.504 184.684 101.502Z" fill="#D5E2E6"/>
<path d="M184.684 103.745H176.791C176.635 103.749 176.487 103.813 176.377 103.925C176.268 104.037 176.207 104.187 176.207 104.343C176.207 104.499 176.268 104.649 176.377 104.761C176.487 104.872 176.635 104.937 176.791 104.94H184.684C184.842 104.938 184.992 104.874 185.102 104.763C185.213 104.651 185.275 104.5 185.275 104.343C185.275 104.186 185.213 104.035 185.102 103.923C184.992 103.811 184.842 103.747 184.684 103.745Z" fill="#D5E2E6"/>
<path d="M184.684 105.989H176.791C176.635 105.993 176.487 106.057 176.378 106.169C176.269 106.28 176.208 106.43 176.208 106.586C176.208 106.742 176.269 106.892 176.378 107.004C176.487 107.115 176.635 107.18 176.791 107.184H184.684C184.841 107.181 184.991 107.118 185.101 107.006C185.212 106.894 185.273 106.743 185.273 106.586C185.273 106.429 185.212 106.279 185.101 106.167C184.991 106.055 184.841 105.991 184.684 105.989Z" fill="#D5E2E6"/>
<path d="M374.971 238.468C375.209 239.161 375.661 239.762 376.262 240.182C376.862 240.603 377.581 240.822 378.314 240.809L392.636 240.441C393.374 240.426 394.088 240.173 394.671 239.72C395.254 239.266 395.674 238.636 395.869 237.923L397.896 216.251C398.615 216.577 399.398 216.738 400.187 216.722C400.873 216.705 401.548 216.553 402.175 216.274C402.802 215.996 403.368 215.597 403.841 215.1C404.313 214.603 404.684 214.018 404.93 213.378C405.177 212.737 405.295 212.055 405.277 211.369C405.26 210.684 405.108 210.008 404.83 209.381C404.551 208.754 404.152 208.188 403.655 207.716C403.158 207.243 402.573 206.873 401.933 206.626C401.293 206.38 400.611 206.262 399.925 206.279C399.609 206.278 399.295 206.311 398.986 206.377C398.651 206.014 398.243 205.725 397.789 205.529C397.335 205.333 396.845 205.235 396.351 205.24L374.321 205.809C374.138 205.815 373.956 205.838 373.777 205.876C373.294 205.966 372.836 206.159 372.433 206.441C372.031 206.723 371.694 207.088 371.444 207.511C371.194 207.934 371.038 208.406 370.986 208.895C370.934 209.384 370.988 209.878 371.143 210.344L374.971 238.468ZM398.312 214.78L399.754 209.615C399.918 209.019 399.922 208.389 399.765 207.791C399.835 207.791 399.896 207.758 399.966 207.757C400.955 207.737 401.912 208.109 402.626 208.793C403.341 209.477 403.755 210.416 403.779 211.405C403.802 212.394 403.432 213.351 402.75 214.068C402.068 214.784 401.13 215.201 400.141 215.227C399.502 215.247 398.869 215.092 398.312 214.78Z" fill="#2F2E41"/>
<path d="M373.777 205.876C374.247 208.56 379.524 210.446 385.869 210.118C391.703 209.85 396.474 207.801 397.348 205.373C397.025 205.277 396.689 205.232 396.351 205.24L374.321 205.809C374.138 205.815 373.956 205.838 373.777 205.876Z" fill="#D5E2E6"/>
<path d="M387.032 226.559C387.061 226.552 387.088 226.54 387.113 226.523L390.224 224.487C390.261 224.463 390.292 224.429 390.313 224.39C390.335 224.35 390.346 224.306 390.346 224.261C390.346 224.216 390.335 224.172 390.313 224.133C390.292 224.093 390.261 224.06 390.224 224.035L386.991 221.918C386.961 221.898 386.928 221.885 386.893 221.878C386.858 221.871 386.822 221.871 386.787 221.878C386.753 221.886 386.719 221.9 386.69 221.92C386.661 221.94 386.635 221.965 386.616 221.995C386.596 222.025 386.583 222.058 386.576 222.093C386.57 222.128 386.57 222.164 386.577 222.199C386.585 222.234 386.599 222.267 386.619 222.296C386.639 222.325 386.665 222.35 386.695 222.37L389.582 224.261L386.817 226.071C386.764 226.106 386.724 226.159 386.706 226.22C386.688 226.281 386.692 226.347 386.718 226.406C386.744 226.464 386.789 226.512 386.847 226.54C386.904 226.568 386.97 226.575 387.032 226.559Z" fill="#206A7E"/>
<path d="M382.119 226.786C382.171 226.772 382.218 226.744 382.254 226.704C382.29 226.664 382.313 226.614 382.321 226.56C382.328 226.507 382.319 226.453 382.295 226.404C382.272 226.356 382.234 226.316 382.187 226.289L379.32 224.645L382.091 222.587C382.12 222.566 382.144 222.539 382.162 222.509C382.18 222.478 382.192 222.445 382.198 222.41C382.203 222.375 382.201 222.339 382.192 222.304C382.184 222.27 382.168 222.238 382.147 222.209C382.126 222.181 382.099 222.157 382.069 222.138C382.038 222.12 382.005 222.108 381.97 222.103C381.935 222.098 381.899 222.1 381.864 222.108C381.83 222.117 381.798 222.132 381.769 222.153L378.667 224.458C378.631 224.485 378.602 224.52 378.583 224.561C378.564 224.601 378.555 224.646 378.558 224.691C378.561 224.736 378.574 224.779 378.598 224.817C378.622 224.855 378.654 224.887 378.693 224.909L381.918 226.758C381.979 226.793 382.051 226.803 382.119 226.786Z" fill="#206A7E"/>
<path d="M386.722 228.343C386.749 228.336 386.773 228.326 386.796 228.312C386.827 228.293 386.853 228.269 386.874 228.24C386.895 228.212 386.91 228.179 386.919 228.145C386.927 228.11 386.929 228.074 386.923 228.039C386.918 228.004 386.905 227.971 386.887 227.94L382.478 220.691C382.441 220.63 382.38 220.587 382.311 220.57C382.241 220.553 382.168 220.564 382.107 220.602C382.045 220.639 382.001 220.699 381.984 220.769C381.968 220.838 381.979 220.912 382.016 220.973L386.425 228.222C386.455 228.271 386.5 228.309 386.554 228.331C386.607 228.353 386.666 228.357 386.722 228.343Z" fill="#206A7E"/>
<path d="M138.852 141.008H114.962C113.987 141.008 113.197 141.798 113.197 142.773V145.107C113.197 146.082 113.987 146.872 114.962 146.872H138.852C139.827 146.872 140.617 146.082 140.617 145.107V142.773C140.617 141.798 139.827 141.008 138.852 141.008Z" fill="#206A7E"/>
<path d="M152.778 152.735H101.036C100.062 152.735 99.2717 153.525 99.2717 154.5V156.834C99.2717 157.808 100.062 158.598 101.036 158.598H152.778C153.753 158.598 154.543 157.808 154.543 156.834V154.5C154.543 153.525 153.753 152.735 152.778 152.735Z" fill="#E6E6E6"/>
<path d="M152.778 164.462H101.036C100.062 164.462 99.2717 165.252 99.2717 166.226V168.56C99.2717 169.535 100.062 170.325 101.036 170.325H152.778C153.753 170.325 154.543 169.535 154.543 168.56V166.226C154.543 165.252 153.753 164.462 152.778 164.462Z" fill="#E6E6E6"/>
<path d="M157.164 203.73L157.281 204.1L157.287 204.113L160.815 214.837L164.873 227.196L172.508 250.422L172.582 254.03V254.042L173.149 283.065L171.577 287L173.347 293.451C173.347 293.451 172.533 283.7 168.166 289.299C165.693 292.482 162.801 295.738 160.427 298.791C163.886 300.191 167.402 301.457 170.972 302.59C171.743 302.836 172.52 303.071 173.297 303.305C173.464 303.354 173.63 303.404 173.797 303.453C185.634 306.954 197.871 308.921 210.208 309.306C210.85 309.324 211.479 309.337 212.089 309.349C212.305 309.355 212.515 309.361 212.724 309.361C213.415 309.367 214.1 309.374 214.79 309.374C216.184 309.374 217.572 309.353 218.953 309.312C229.178 309.024 239.343 307.649 249.277 305.211C249.21 301.11 249.025 296.318 248.759 291.199C248.636 288.689 245.867 285.969 245.7 283.342C245.583 281.368 248.069 279.512 247.939 277.508C247.1 265.167 246.052 269.904 245.275 261.165C245.195 260.308 245.121 259.488 245.053 258.705C244.553 253.093 244.208 249.583 244.208 249.583L247.526 228.67L252.737 195.836L252.336 195.176L251.886 194.954L224.399 181.349L222.906 177.526C222.472 176.424 221.717 175.478 220.74 174.809C219.763 174.139 218.608 173.777 217.424 173.77L199.317 173.696C198.377 173.692 197.45 173.912 196.612 174.337C195.775 174.763 195.051 175.383 194.5 176.144L189.597 182.934L157.164 203.73Z" fill="#D5E2E6"/>
<path d="M176.683 245.254L172.582 254.03L169.782 260.024L164.966 285.242L162.554 287.802L160.488 278.741L138.865 283.542C138.155 279.601 138.675 283.676 138.237 279.352C138.36 279.229 138.49 279.106 138.619 278.982C138.965 278.662 139.255 278.36 139.248 278.07C139.002 263.157 139.742 237.779 145.921 222.404C146.889 219.894 148.165 217.514 149.72 215.318C149.844 215.152 149.961 214.985 150.078 214.819C152.927 210.829 154.728 206.9 157.281 204.106V204.1C157.297 204.087 157.312 204.073 157.324 204.057C157.334 204.052 157.342 204.046 157.349 204.039L174.889 194.738L175.641 215.88L176.178 231.076L176.683 245.254Z" fill="#D5E2E6"/>
<path d="M239.928 247.747L245.05 258.708L246.839 262.525L251.654 287.74L254.057 290.293L256.128 281.235L257.101 281.036L274.649 277.401L279.763 293.645C280.916 291.724 281.37 289.464 281.049 287.247C280.728 285.031 279.651 282.993 278 281.478C277.651 281.162 277.36 280.854 277.368 280.563C277.659 263.024 276.586 230.997 266.898 217.816C263.821 213.633 261.974 209.466 259.288 206.555C259.28 206.547 259.28 206.539 259.272 206.539L252.735 195.835L252.336 195.178L251.887 194.954L239.928 247.747Z" fill="#D5E2E6"/>
<path d="M208.893 168.543C222.197 168.543 232.982 157.758 232.982 144.454C232.982 131.15 222.197 120.365 208.893 120.365C195.589 120.365 184.804 131.15 184.804 144.454C184.804 157.758 195.589 168.543 208.893 168.543Z" fill="#FFB6B6"/>
<path d="M241.453 127.628C241.266 127.428 241.041 127.268 240.791 127.158C240.541 127.047 240.271 126.988 239.998 126.984L240.36 125.979C240.479 125.662 240.511 125.32 240.453 124.986C240.395 124.653 240.25 124.342 240.032 124.083C239.814 123.824 239.532 123.629 239.213 123.515C238.895 123.402 238.552 123.375 238.22 123.438L236.901 123.692L237.025 122.811C237.073 122.483 237.034 122.148 236.913 121.839C236.792 121.53 236.593 121.258 236.335 121.05C236.077 120.841 235.769 120.704 235.441 120.65C235.114 120.597 234.779 120.63 234.468 120.746C234.185 120.857 233.881 120.904 233.578 120.882C233.275 120.86 232.98 120.771 232.716 120.621C232.451 120.476 232.221 120.274 232.041 120.03C231.862 119.787 231.738 119.507 231.678 119.21L231.219 116.994L231.17 116.875C228.932 113.144 224.628 110.431 219.363 109.436C214.676 108.544 209.87 108.998 205.236 109.425C203.398 109.598 201.322 109.793 199.592 110.852C198.122 111.76 196.878 113.577 197.133 115.41C192.564 114.009 187.666 116.804 185.239 120.329C182.363 124.525 181.892 129.779 181.817 133.888C181.611 143.608 183.617 151.561 187.764 157.529C188.066 157.962 188.142 158.865 188.742 159.167L188.618 158.967C189.288 159.303 189.969 159.843 189.715 160.422C188.985 162.087 193.835 165.768 197.251 166.985C203.485 169.207 211.773 169.017 217.6 168.217L217.806 166.839C219.909 166.552 221.39 166.006 221.806 165.152C222.542 164.525 223.169 163.963 223.715 163.444L223.72 163.438C223.731 163.427 223.753 163.411 223.763 163.4C226.396 160.876 227.007 159.438 227.283 157.248C227.548 155.102 227.077 152.923 226.596 150.961C236.728 152.529 222.607 140.17 232.046 137.781C232.154 137.747 232.264 137.72 232.375 137.699C232.651 137.635 232.927 137.57 233.192 137.494C234.469 137.147 235.691 136.625 236.825 135.942C239.463 134.337 240.333 132.207 241.696 129.806C241.892 129.465 241.975 129.069 241.931 128.677C241.887 128.285 241.72 127.918 241.453 127.628Z" fill="#2F2E41"/>
<path d="M294.093 249.462C294.087 250.408 294.076 251.732 294.033 253.37C294.028 253.597 294.022 253.83 294.017 254.068C293.947 257.079 293.876 259.604 293.763 262.409C293.757 262.604 293.752 262.793 293.741 262.988C293.59 266.902 293.352 271.459 292.941 278.677C292.179 292.008 290.849 280.509 289.514 285.186C289.449 285.418 289.378 285.694 289.314 286.018C289.111 287.195 288.77 288.344 288.297 289.44C287.589 289.862 286.859 290.268 286.14 290.673C284.091 291.814 282.01 292.911 279.912 293.955C278.734 294.538 277.55 295.112 276.36 295.663C276.171 295.749 275.987 295.836 275.804 295.917C269.713 298.734 263.436 301.129 257.017 303.086C255.763 303.464 254.514 303.832 253.249 304.172C251.93 304.54 250.611 304.886 249.275 305.21C239.342 307.649 229.177 309.025 218.952 309.314C217.573 309.357 216.184 309.373 214.789 309.373C214.097 309.373 213.416 309.368 212.724 309.362C212.513 309.362 212.302 309.357 212.092 309.351C211.481 309.335 210.848 309.324 210.21 309.308C197.873 308.923 185.636 306.956 173.8 303.453L173.297 303.307C172.518 303.069 171.745 302.837 170.972 302.588C167.404 301.458 163.888 300.193 160.425 298.793C157.781 297.728 155.168 296.586 152.586 295.366C152.562 295.359 152.54 295.348 152.521 295.333C151.98 295.084 151.434 294.825 150.893 294.56C150.823 294.522 150.748 294.484 150.672 294.447C148.655 293.463 146.66 292.432 144.687 291.354C143.027 287.543 140.692 286.813 139.243 283.461C138.821 282.465 138.517 281.424 138.335 280.358C138.335 280.347 138.329 280.336 138.329 280.32C138.481 282.331 137.686 276.752 138.324 280.299C138.319 280.234 138.313 280.163 138.308 280.082C138.292 279.888 138.27 279.65 138.238 279.352C136.383 261.247 136.502 240.541 135.697 223.479C135.643 222.377 135.587 221.321 135.529 220.311C135.513 219.976 135.491 219.646 135.47 219.322C135.507 219.225 135.551 219.122 135.599 219.025C135.61 218.997 135.622 218.97 135.637 218.944C135.653 218.91 135.671 218.878 135.691 218.846C135.702 218.83 135.718 218.809 135.729 218.792C135.737 218.774 135.746 218.756 135.756 218.738C135.805 218.663 135.859 218.581 135.918 218.506C135.945 218.473 135.967 218.446 135.994 218.419C136.013 218.392 136.034 218.366 136.059 218.344C136.075 218.318 136.095 218.294 136.118 218.273C136.14 218.252 136.162 218.225 136.189 218.198C136.2 218.181 136.215 218.166 136.232 218.154C136.275 218.105 136.322 218.06 136.372 218.019C136.565 217.842 136.771 217.679 136.989 217.533C137.064 217.484 137.146 217.435 137.221 217.381C137.766 217.055 138.34 216.78 138.935 216.56C139.14 216.484 139.346 216.414 139.567 216.338C139.649 216.316 139.724 216.289 139.805 216.262C139.924 216.224 140.043 216.187 140.168 216.16C140.784 215.976 141.449 215.819 142.168 215.673C142.254 215.657 142.346 215.641 142.438 215.619C142.568 215.592 142.703 215.57 142.838 215.549C143.022 215.516 143.211 215.484 143.4 215.451C145.006 215.197 146.828 215.008 148.839 214.884C149.028 214.873 149.218 214.862 149.407 214.851C149.628 214.84 149.85 214.83 150.077 214.819C150.266 214.808 150.461 214.803 150.656 214.797C150.845 214.786 151.039 214.781 151.239 214.776C151.785 214.759 152.348 214.743 152.921 214.732C154.553 214.7 156.273 214.711 158.078 214.749C158.916 214.77 159.77 214.792 160.646 214.83C160.706 214.83 160.76 214.835 160.814 214.835C161.576 214.862 162.344 214.894 163.133 214.938C163.685 214.965 164.241 214.992 164.798 215.024C165.323 215.057 165.852 215.089 166.388 215.127C166.804 215.149 167.22 215.181 167.642 215.208C167.999 215.235 168.355 215.262 168.712 215.284L169.199 215.316C169.464 215.338 169.729 215.354 169.999 215.381C170.594 215.43 171.188 215.478 171.794 215.527C172.394 215.581 173.005 215.635 173.616 215.689C174.227 215.743 174.843 215.803 175.459 215.862C175.524 215.868 175.584 215.873 175.643 215.878C176.205 215.938 176.767 215.992 177.335 216.051C177.465 216.062 177.6 216.073 177.73 216.089C178.271 216.144 178.823 216.207 179.369 216.265C179.537 216.283 179.703 216.301 179.871 216.319C180.299 216.366 180.721 216.406 181.152 216.457C181.719 216.522 182.298 216.581 182.86 216.657C183.298 216.706 183.736 216.754 184.174 216.808C184.861 216.889 185.558 216.976 186.255 217.068C186.52 217.1 186.785 217.133 187.05 217.17C189.04 217.419 191.051 217.695 193.094 217.981C196.192 218.419 199.338 218.895 202.506 219.409C205.68 219.922 208.871 220.465 212.081 221.036C212.892 221.182 213.703 221.328 214.519 221.479C214.887 221.549 215.254 221.62 215.622 221.69C216.249 221.804 216.876 221.922 217.503 222.041C218.13 222.16 218.757 222.279 219.384 222.404C220.131 222.55 220.882 222.696 221.628 222.842C226.542 223.815 231.429 224.853 236.198 225.939C236.982 226.118 237.766 226.302 238.544 226.48C240.101 226.842 241.644 227.21 243.172 227.583C243.593 227.68 244.01 227.783 244.426 227.886C245.464 228.145 246.502 228.405 247.524 228.669L247.702 228.718C248.454 228.902 249.189 229.091 249.924 229.286C251.659 229.74 253.366 230.199 255.044 230.664C256.157 230.972 257.258 231.284 258.347 231.6C259.974 232.07 261.569 232.546 263.121 233.027C263.504 233.146 263.888 233.265 264.267 233.378C265.402 233.73 266.521 234.086 267.608 234.443C268.473 234.724 269.316 235.011 270.149 235.297C270.981 235.584 271.797 235.87 272.598 236.157C273.111 236.341 273.619 236.535 274.128 236.719C274.857 236.99 275.576 237.26 276.279 237.53C276.495 237.611 276.706 237.698 276.917 237.779C277.052 237.838 277.182 237.887 277.312 237.941C277.566 238.044 277.825 238.141 278.074 238.244C278.328 238.341 278.577 238.444 278.826 238.552C279.069 238.649 279.318 238.752 279.555 238.855C279.799 238.952 280.037 239.055 280.274 239.163C280.474 239.244 280.669 239.33 280.858 239.417C281.242 239.585 281.626 239.752 281.999 239.925C282.183 240.012 282.367 240.093 282.55 240.179L282.972 240.374C283.032 240.406 283.091 240.433 283.15 240.46C283.286 240.525 283.426 240.595 283.561 240.66C283.875 240.806 284.183 240.963 284.486 241.109C284.891 241.315 285.286 241.52 285.664 241.72C286.048 241.925 286.421 242.131 286.778 242.331C286.838 242.363 286.892 242.396 286.951 242.428C287.032 242.471 287.113 242.52 287.194 242.563C287.47 242.72 287.735 242.882 288 243.039C288.519 243.358 289.011 243.672 289.47 243.985C289.573 244.055 289.67 244.126 289.773 244.191C290.114 244.434 290.438 244.672 290.741 244.915C290.741 244.92 290.741 244.92 290.746 244.92C290.849 244.996 290.946 245.077 291.044 245.153C291.125 245.229 291.211 245.293 291.292 245.369C291.573 245.612 291.833 245.845 292.071 246.083C292.15 246.156 292.226 246.234 292.298 246.315C292.329 246.341 292.358 246.37 292.384 246.402C292.492 246.51 292.59 246.618 292.682 246.726C292.696 246.741 292.709 246.757 292.719 246.775C292.849 246.926 292.968 247.077 293.082 247.229C293.136 247.305 293.195 247.38 293.244 247.456C293.309 247.548 293.374 247.645 293.428 247.737C293.476 247.813 293.52 247.894 293.563 247.97C293.678 248.164 293.775 248.369 293.855 248.58C293.916 248.724 293.964 248.872 294.001 249.024C294.042 249.167 294.072 249.314 294.093 249.462Z" fill="#2F2E41"/>
<path opacity="0.2" d="M294.093 249.462C294.087 250.408 294.077 251.732 294.033 253.37C294.028 253.597 294.017 253.83 294.012 254.068C293.958 256.365 293.876 259.204 293.763 262.409C293.758 262.604 293.752 262.793 293.741 262.988C293.59 266.902 293.352 271.459 292.941 278.677C292.179 292.008 290.849 280.509 289.514 285.186C285.805 282.904 281.74 280.515 277.393 278.06C276.609 277.617 275.818 277.172 275.02 276.725C266.327 271.876 256.617 266.794 246.48 261.761C246.08 261.561 245.675 261.361 245.275 261.166C222.055 249.689 196.711 238.525 176.178 231.075C172.216 229.637 168.431 228.34 164.874 227.199C157.381 224.804 150.904 223.128 145.92 222.404C140.73 221.647 137.146 221.917 135.697 223.479C135.643 222.377 135.587 221.321 135.529 220.311C135.507 219.976 135.486 219.646 135.464 219.322C135.498 219.233 135.541 219.148 135.583 219.063C135.589 219.05 135.593 219.037 135.599 219.025C135.61 218.997 135.622 218.97 135.637 218.944C135.653 218.91 135.671 218.878 135.691 218.846C135.709 218.808 135.731 218.772 135.756 218.738C135.805 218.663 135.859 218.581 135.918 218.506C135.962 218.449 136.009 218.395 136.059 218.344C136.076 218.318 136.096 218.294 136.118 218.273C136.14 218.252 136.162 218.225 136.189 218.198C136.2 218.181 136.215 218.166 136.232 218.154C136.275 218.105 136.322 218.06 136.372 218.019C136.565 217.842 136.771 217.679 136.989 217.533C137.064 217.484 137.146 217.435 137.221 217.381C137.766 217.055 138.34 216.78 138.935 216.56C139.14 216.484 139.346 216.414 139.568 216.338C139.649 216.316 139.724 216.289 139.805 216.262C139.924 216.224 140.043 216.187 140.168 216.159C140.784 215.976 141.449 215.819 142.168 215.673C142.384 215.63 142.611 215.586 142.838 215.549C143.022 215.516 143.211 215.484 143.401 215.451C145.006 215.197 146.828 215.008 148.839 214.884C149.028 214.873 149.218 214.862 149.407 214.851C149.628 214.84 149.85 214.83 150.077 214.819C150.266 214.808 150.461 214.803 150.656 214.797C150.845 214.786 151.039 214.781 151.24 214.776C151.786 214.759 152.348 214.743 152.921 214.732C154.554 214.705 156.273 214.716 158.078 214.754C158.916 214.77 159.77 214.797 160.646 214.835C160.7 214.835 160.76 214.84 160.814 214.84C161.576 214.862 162.349 214.9 163.133 214.938C163.685 214.965 164.241 214.992 164.798 215.024C165.323 215.057 165.852 215.089 166.388 215.127C166.804 215.149 167.22 215.181 167.642 215.208C167.999 215.235 168.355 215.262 168.712 215.284C169.139 215.316 169.566 215.349 169.999 215.381C170.594 215.43 171.188 215.478 171.794 215.527C172.394 215.581 173.005 215.635 173.616 215.689C174.227 215.743 174.843 215.803 175.459 215.862C175.524 215.868 175.584 215.873 175.643 215.878C176.205 215.938 176.768 215.992 177.335 216.051C180.482 216.37 183.72 216.743 187.05 217.17C189.04 217.425 191.054 217.697 193.094 217.987C196.192 218.425 199.338 218.9 202.506 219.409C205.68 219.922 208.871 220.465 212.081 221.036C212.892 221.182 213.703 221.328 214.519 221.479C215.514 221.663 216.508 221.85 217.503 222.041C218.13 222.16 218.757 222.279 219.385 222.404C220.131 222.55 220.882 222.696 221.628 222.842C226.542 223.815 231.43 224.853 236.198 225.939C236.982 226.118 237.766 226.301 238.544 226.48C240.101 226.842 241.644 227.21 243.172 227.583C243.593 227.685 244.01 227.788 244.426 227.891C245.469 228.15 246.502 228.41 247.524 228.669V228.675C247.583 228.686 247.643 228.702 247.702 228.718C248.448 228.907 249.189 229.096 249.924 229.291C251.66 229.745 253.366 230.203 255.044 230.664C256.157 230.978 257.26 231.286 258.347 231.6C259.974 232.075 261.569 232.551 263.121 233.027C263.504 233.146 263.888 233.265 264.267 233.378C265.402 233.735 266.516 234.09 267.608 234.443C268.473 234.724 269.316 235.011 270.149 235.297C270.981 235.584 271.798 235.87 272.598 236.157C273.117 236.341 273.625 236.53 274.128 236.714C274.863 236.984 275.576 237.254 276.279 237.53C276.496 237.611 276.706 237.698 276.917 237.779C277.312 237.93 277.696 238.087 278.074 238.244C278.328 238.341 278.577 238.444 278.826 238.552C279.069 238.649 279.318 238.752 279.555 238.855C279.799 238.952 280.037 239.055 280.274 239.163C280.475 239.244 280.669 239.33 280.858 239.417C281.242 239.584 281.626 239.752 281.999 239.925C282.183 240.012 282.367 240.093 282.551 240.179L282.972 240.374C283.032 240.406 283.091 240.433 283.151 240.46C283.61 240.677 284.053 240.893 284.486 241.109C284.891 241.314 285.286 241.52 285.664 241.72C286.113 241.958 286.54 242.19 286.951 242.428C287.032 242.471 287.113 242.52 287.194 242.563C287.47 242.72 287.735 242.882 288 243.039C288.519 243.358 289.011 243.672 289.47 243.985C289.925 244.299 290.346 244.607 290.741 244.915C290.741 244.92 290.741 244.92 290.746 244.92C290.935 245.072 291.119 245.223 291.292 245.369C291.573 245.612 291.833 245.845 292.071 246.083C292.151 246.156 292.226 246.234 292.298 246.315C292.329 246.341 292.358 246.37 292.384 246.402C292.498 246.526 292.611 246.65 292.72 246.775C292.849 246.926 292.968 247.077 293.082 247.229C293.136 247.305 293.195 247.38 293.244 247.456C293.309 247.548 293.374 247.645 293.428 247.737C293.476 247.813 293.52 247.894 293.563 247.97C293.678 248.164 293.775 248.369 293.855 248.58C293.914 248.724 293.963 248.873 294.001 249.024C294.042 249.167 294.072 249.314 294.093 249.462Z" fill="black"/>
</svg>
