<svg width="32" height="29" viewBox="0 0 32 29" fill="none" xmlns="http://www.w3.org/2000/svg">
<path d="M3.85999 28.41H3.64996C2.96996 28.41 2.34998 28.25 1.78998 27.92C1.22998 27.59 0.779951 27.16 0.449951 26.62C0.309951 26.36 0.199995 26.09 0.119995 25.79C0.0399951 25.49 0 25.19 0 24.86C0 24.48 0.0599927 24.12 0.179993 23.77C0.299993 23.42 0.449954 23.09 0.639954 22.79L12.39 2.11C12.69 1.52 13.1299 1.03999 13.6899 0.649994C14.2499 0.259994 14.89 0.05 15.59 0C16.29 0.05 16.93 0.260005 17.49 0.630005C18.05 1.01 18.4699 1.5 18.7599 2.11H18.8L30.55 22.86C30.74 23.14 30.88 23.45 30.97 23.77C31.06 24.1 31.11 24.45 31.11 24.83C31.11 25.81 30.76 26.66 30.05 27.36C29.34 28.06 28.5 28.41 27.52 28.41H3.88995H3.85999ZM15.43 2.91C15.43 2.91 15.3699 3 15.3199 3.05C15.2699 3.1 15.24 3.16 15.21 3.23L3.35999 24.54C3.30999 24.61 3.26999 24.69 3.23999 24.77C3.19999 24.85 3.17996 24.94 3.14996 25.03V25.42L3.46997 25.24H27.98H27.9399L28.33 25.06L27.9399 24.88C27.9399 24.88 27.93 24.78 27.9 24.72C27.87 24.66 27.85 24.62 27.83 24.6L15.91 3.22C15.89 3.15 15.8599 3.09 15.8199 3.03C15.7799 2.97 15.74 2.92 15.7 2.87L15.56 2.73L15.42 2.91H15.43ZM17.36 17.79H13.77V10.62H17.36V17.79ZM17.36 23.21H13.77V19.62H17.36V23.21Z" fill="#D83C31"/>
</svg>

