<svg xmlns="http://www.w3.org/2000/svg" width="17" height="21" viewBox="0 0 17 21" fill="none">
    <path fill-rule="evenodd" clip-rule="evenodd"
        d="M16.5523 14.3596C16.6283 14.4514 16.7058 14.5451 16.7849 14.6419C17.2954 15.2672 16.8486 16.2135 15.9554 16.2135L11.5897 16.2135V16.9857C11.5897 17.8049 11.2642 18.5905 10.685 19.1698C10.1057 19.749 9.32011 20.0744 8.50093 20.0744C7.68175 20.0744 6.89612 19.749 6.31687 19.1698C5.73762 18.5905 5.4122 17.8049 5.4122 16.9857V16.2135L1.05056 16.2135C0.152542 16.2135 -0.29719 15.2701 0.216238 14.6419C0.295351 14.545 0.372978 14.4512 0.448989 14.3594C1.56356 13.0127 2.33042 12.0862 2.33268 8.1719C2.33268 4.33905 4.28602 2.97972 5.89724 2.31622C6.11101 2.22839 6.31223 2.03007 6.37737 1.8081C6.65677 0.846867 7.44862 0 8.50057 0C9.55252 0 10.3439 0.846384 10.6262 1.80713C10.6913 2.02669 10.8925 2.22839 11.1063 2.31622C12.7156 2.97875 14.6709 4.34291 14.6709 8.1719C14.6709 12.0864 15.4377 13.0128 16.5523 14.3596Z"
        fill="#555555" />
</svg>