<svg width="26" height="28" viewBox="0 0 26 28" fill="none" xmlns="http://www.w3.org/2000/svg">
<path d="M23.4 1.79001C23.89 1.79001 24.31 1.97001 24.67 2.32001C25.02 2.67001 25.2 3.09001 25.2 3.59001V25.19C25.2 25.71 25.02 26.14 24.67 26.49C24.32 26.84 23.9 27.02 23.4 27.02H1.8C1.31 27.02 0.890006 26.84 0.530006 26.49C0.180006 26.14 0 25.7 0 25.19V3.59001C0 3.10001 0.180006 2.68001 0.530006 2.32001C0.880006 1.97001 1.3 1.79001 1.8 1.79001H3.59V0H7.18V1.79001H18.01V0H21.6V1.79001H23.39H23.4ZM21.61 9H3.6V23.38H21.61V9ZM19.82 14.38V21.59H12.61V14.38H19.82Z" fill="#4B4B4B"/>
</svg>

