<svg width="16" height="20" viewBox="0 0 16 20" fill="none" xmlns="http://www.w3.org/2000/svg">
<path d="M14.1641 17.5V5.82031H5.02344V17.5H14.1641ZM14.1641 4.17969C14.6068 4.17969 14.9974 4.34245 15.3359 4.66797C15.6745 4.99349 15.8438 5.3776 15.8438 5.82031V17.5C15.8438 17.9427 15.6745 18.3333 15.3359 18.6719C14.9974 19.0104 14.6068 19.1797 14.1641 19.1797H5.02344C4.58073 19.1797 4.1901 19.0104 3.85156 18.6719C3.51302 18.3333 3.34375 17.9427 3.34375 17.5V5.82031C3.34375 5.3776 3.51302 4.99349 3.85156 4.66797C4.1901 4.34245 4.58073 4.17969 5.02344 4.17969H14.1641ZM11.6641 0.820312V2.5H1.66406V14.1797H0.0234375V2.5C0.0234375 2.05729 0.186198 1.66667 0.511719 1.32812C0.83724 0.989583 1.22135 0.820312 1.66406 0.820312H11.6641Z" fill="black"/>
</svg>
