<svg width="11" height="14" viewBox="0 0 11 14" fill="none" xmlns="http://www.w3.org/2000/svg">
<path d="M10.8421 3.5C10.942 3.6 10.992 3.75 10.992 3.85V13.5C10.992 13.8 10.7921 14 10.4923 14H0.499634C0.199854 14 0 13.8 0 13.5V0.5C0 0.2 0.199854 0 0.499634 0H7.14477C7.29466 0 7.39459 0.05 7.49451 0.15L10.8421 3.5ZM9.84279 4.1L6.89495 1.15V4.1H9.84279Z" fill="#206A7E"/>
<path d="M3.39763 9.85L3.94723 10.05C3.8473 10.35 3.69741 10.6 3.49756 10.75C3.29771 10.9 3.04789 11 2.74811 11C2.3484 11 2.04862 10.85 1.7988 10.6C1.59895 10.3 1.49902 9.95 1.49902 9.5C1.49902 9 1.59895 8.65 1.84877 8.4C2.09858 8.15 2.39837 8 2.79807 8C3.14782 8 3.4476 8.1 3.64745 8.3C3.79734 8.4 3.89727 8.6 3.94723 8.85L3.39763 9C3.34767 8.85 3.29771 8.75 3.19778 8.65C3.09785 8.55 2.94796 8.5 2.79807 8.5C2.59822 8.5 2.39837 8.6 2.29844 8.75C2.14855 8.9 2.09858 9.15 2.09858 9.5C2.09858 9.85 2.14855 10.1 2.29844 10.3C2.44833 10.5 2.59822 10.55 2.79807 10.55C2.94796 10.55 3.09785 10.5 3.19778 10.4C3.29771 10.3 3.34767 10.1 3.39763 9.85Z" fill="white"/>
<path d="M4.34692 10L4.89652 9.95C4.94649 10.15 4.99645 10.3 5.09638 10.35C5.1963 10.45 5.34619 10.5 5.49608 10.5C5.69594 10.5 5.84583 10.45 5.89579 10.4C5.99572 10.3 6.04568 10.25 6.04568 10.1C6.04568 10.05 6.04568 9.95 5.99572 9.95C5.94575 9.9 5.89579 9.85 5.79586 9.85C5.7459 9.85 5.59601 9.8 5.34619 9.7C5.04641 9.6 4.79659 9.55 4.69667 9.4C4.49681 9.25 4.44685 9.05 4.44685 8.8C4.44685 8.65 4.49681 8.5 4.54678 8.4C4.6467 8.25 4.74663 8.2 4.89652 8.1C5.04641 8.05 5.24627 8 5.44612 8C5.79586 8 6.09564 8.1 6.24553 8.25C6.44539 8.4 6.54531 8.6 6.54531 8.9H5.99572C5.99572 8.75 5.89579 8.65 5.84583 8.6C5.7459 8.5 5.64597 8.5 5.44612 8.5C5.29623 8.5 5.14634 8.55 5.04641 8.6C4.99645 8.65 4.99645 8.7 4.99645 8.75C4.99645 8.8 5.04641 8.9 5.09638 8.9C5.14634 8.95 5.34619 9.05 5.64597 9.1C5.94575 9.15 6.14561 9.25 6.24553 9.3C6.39542 9.35 6.49535 9.45 6.54531 9.6C6.59528 9.75 6.64524 9.9 6.64524 10.05C6.64524 10.2 6.59528 10.35 6.49535 10.5C6.39542 10.65 6.2955 10.75 6.09564 10.8C5.89579 10.85 5.69594 10.9 5.49608 10.9C5.14634 10.9 4.84656 10.8 4.6467 10.65C4.49681 10.55 4.34692 10.3 4.34692 10Z" fill="white"/>
<path d="M7.89445 10.9L6.84521 8.05005H7.49474L8.24419 10.15L8.94368 8.05005H9.49328L8.49401 10.9H7.89445Z" fill="white"/>
</svg>
