<svg width="15" height="15" viewBox="0 0 15 15" fill="none" xmlns="http://www.w3.org/2000/svg">
<path d="M12.5186 4.229C12.6064 4.31689 12.6562 4.43555 12.6562 4.56006V13.5938C12.6562 13.853 12.4468 14.0625 12.1875 14.0625H2.8125C2.55322 14.0625 2.34375 13.853 2.34375 13.5938V1.40625C2.34375 1.14697 2.55322 0.9375 2.8125 0.9375H9.03369C9.1582 0.9375 9.27832 0.987305 9.36621 1.0752L12.5186 4.229ZM11.5752 4.77539L8.81836 2.01855V4.77539H11.5752ZM8.42783 6.99961L7.53105 8.49814L6.62549 6.99902C6.60983 6.97313 6.58776 6.95173 6.5614 6.93687C6.53505 6.92201 6.5053 6.9142 6.47505 6.91421H5.91196C5.87878 6.91421 5.84628 6.92361 5.81821 6.94131C5.79867 6.95362 5.78174 6.96967 5.7684 6.98852C5.75506 7.00738 5.74557 7.02868 5.74047 7.05121C5.73537 7.07374 5.73476 7.09705 5.73867 7.11982C5.74259 7.14258 5.75095 7.16436 5.76328 7.18389L6.96943 9.09434L5.74702 11.0394C5.7294 11.0674 5.72006 11.0998 5.72007 11.133C5.72007 11.1796 5.73859 11.2243 5.77155 11.2573C5.80452 11.2902 5.84923 11.3087 5.89585 11.3087H6.40063C6.43062 11.3087 6.4601 11.3011 6.48627 11.2864C6.51245 11.2718 6.53446 11.2508 6.5502 11.2252L7.46865 9.73887L8.38125 11.225C8.39698 11.2506 8.41902 11.2717 8.44525 11.2864C8.47149 11.3011 8.50105 11.3088 8.5311 11.3087H9.08013C9.11378 11.3087 9.14672 11.2991 9.17505 11.2809C9.19448 11.2684 9.21126 11.2523 9.22444 11.2333C9.23762 11.2144 9.24694 11.193 9.25186 11.1705C9.25679 11.1479 9.25722 11.1246 9.25314 11.1019C9.24906 11.0792 9.24054 11.0575 9.22808 11.038L8.0001 9.12568L9.24961 7.18521C9.26784 7.1568 9.2775 7.12374 9.27744 7.08999C9.27744 7.04337 9.25892 6.99866 9.22596 6.96569C9.19299 6.93273 9.14828 6.91421 9.10166 6.91421H8.57871C8.54834 6.91423 8.51849 6.92212 8.49207 6.93711C8.46565 6.95211 8.44357 6.97369 8.42798 6.99976L8.42783 6.99961Z" fill="#68C183"/>
</svg>
