<svg width="29" height="29" viewBox="0 0 29 29" fill="none" xmlns="http://www.w3.org/2000/svg">
<path d="M25.22 0C26.23 0 27.08 0.350003 27.79 1.05C28.49 1.75 28.84 2.6 28.84 3.58V14.38C28.84 15.39 28.49 16.24 27.79 16.95C27.09 17.65 26.23 18 25.22 18H3.62C2.61 18 1.76 17.65 1.05 16.95C0.340003 16.25 0 15.39 0 14.38V3.58C0 2.6 0.350003 1.75 1.05 1.05C1.75 0.350003 2.61 0 3.62 0H25.22ZM28.84 21.59V25.18C28.84 26.19 28.49 27.04 27.79 27.75C27.09 28.45 26.23 28.8 25.22 28.8H3.62C2.61 28.8 1.76 28.45 1.05 27.75C0.350003 27.05 0 26.19 0 25.18V21.59H9.71C9.78 22.76 10.24 23.75 11.1 24.54C11.96 25.34 12.97 25.74 14.14 25.74C14.19 25.74 14.23 25.74 14.28 25.72C14.33 25.71 14.37 25.7 14.42 25.7C14.47 25.7 14.51 25.7 14.56 25.72C14.61 25.74 14.65 25.74 14.7 25.74C15.87 25.74 16.89 25.34 17.74 24.53C18.6 23.72 19.06 22.74 19.13 21.59H28.84ZM25.22 3.58H3.62V10.79H10.02V10.83C10.23 11.84 10.75 12.68 11.57 13.36C12.39 14.04 13.34 14.38 14.42 14.38C15.5 14.38 16.45 14.04 17.27 13.36C18.09 12.68 18.61 11.82 18.82 10.79H25.22V3.58Z" fill="#4B4B4B"/>
</svg>

