<svg width="22" height="20" viewBox="0 0 22 20" fill="none" xmlns="http://www.w3.org/2000/svg">
<path d="M19.2681 2.78635C19.9854 2.83977 20.6035 3.12974 21.1301 3.64101C21.6566 4.15992 21.9466 4.79328 22 5.54875V16.5526C21.9466 17.2699 21.6566 17.888 21.1301 18.4145C20.6035 18.941 19.9702 19.231 19.2376 19.2844H2.73189C2.01458 19.231 1.39647 18.941 0.869938 18.4145C0.343403 17.888 0.0534165 17.2546 0 16.522V2.77872C0.0534165 2.04615 0.343403 1.42041 0.869938 0.901509C1.39647 0.382605 2.02987 0.0926316 2.76244 0.0392151H8.26432L11.0038 2.77872H19.2681V2.78635ZM19.2376 5.54875H2.7548V16.522H19.2376V5.54875Z" fill="#206A7E"/>
</svg>
