<svg xmlns="http://www.w3.org/2000/svg" width="20" height="20" viewBox="0 0 20 20" fill="none">
    <path
        d="M19.73 12.52C19.73 12.52 19.82 12.63 19.85 12.7C19.88 12.77 19.9 12.84 19.9 12.91C19.9 12.96 19.9 13 19.88 13.03C19.86 13.06 19.85 13.11 19.83 13.15L17.79 16.6C17.74 16.67 17.68 16.73 17.61 16.78C17.54 16.83 17.46 16.85 17.36 16.85C17.31 16.85 17.28 16.85 17.25 16.83C17.22 16.81 17.19 16.81 17.14 16.81L14.61 15.82L14.65 15.78C14.37 15.99 14.08 16.18 13.79 16.34C13.5 16.5 13.17 16.64 12.82 16.76L12.43 19.4C12.41 19.52 12.35 19.62 12.25 19.7C12.16 19.78 12.05 19.82 11.93 19.82H7.85001C7.73001 19.82 7.63 19.78 7.53 19.7C7.44 19.62 7.38001 19.52 7.35001 19.4L6.95999 16.76H6.88998C6.57998 16.62 6.29001 16.47 6.01001 16.32C5.73001 16.17 5.46999 16 5.23999 15.81L2.70999 16.8C2.70999 16.8 2.66 16.8 2.62 16.82C2.58 16.84 2.55 16.84 2.53 16.84C2.44 16.84 2.34999 16.82 2.26999 16.77C2.18999 16.72 2.11999 16.66 2.07999 16.59L0.0399933 13.14C0.0399933 13.14 0.039989 13.05 0.019989 13.02C0.00998901 12.98 0 12.94 0 12.9C0 12.83 0.0199878 12.76 0.0499878 12.69C0.0799878 12.62 0.129998 12.56 0.169998 12.51L2.32001 10.89L2.35999 10.93C2.30999 10.77 2.27999 10.6 2.26999 10.44C2.25999 10.28 2.25 10.1 2.25 9.91C2.25 9.75 2.24999 9.58 2.26999 9.42C2.27999 9.26 2.30001 9.10001 2.32001 8.96001L0.169998 7.31C0.169998 7.31 0.0799878 7.24 0.0499878 7.17C0.0199878 7.1 0 7.02 0 6.92C0 6.9 -1.09859e-05 6.86 0.019989 6.81C0.029989 6.76 0.0399933 6.73 0.0399933 6.7L2.04001 3.25C2.09001 3.18 2.14998 3.12001 2.22998 3.07001C2.30998 3.02001 2.39999 3 2.48999 3H2.57999C2.57999 3 2.63998 3.00999 2.66998 3.03999L5.16998 4.02H5.13C5.41001 3.83 5.69999 3.66001 5.98999 3.49001C6.27999 3.32001 6.60999 3.17 6.95999 3.03L7.35001 0.389999C7.37001 0.269999 7.43 0.180001 7.53 0.110001C7.63 0.0400006 7.73001 0 7.85001 0H11.97C12.09 0 12.19 0.0400006 12.29 0.110001C12.39 0.180001 12.44 0.269999 12.47 0.389999L12.86 3.03L12.9 3.07001C13.2 3.19001 13.5 3.33001 13.78 3.49001C14.06 3.65001 14.33 3.83 14.59 4.02L17.12 3.03999C17.12 3.03999 17.17 3 17.19 3H17.26C17.35 3 17.44 3.02001 17.52 3.07001C17.6 3.12001 17.67 3.18 17.71 3.25L19.79 6.7V6.66C19.79 6.66 19.79 6.75 19.81 6.78C19.83 6.81 19.83 6.85999 19.83 6.89999C19.83 6.98999 19.81 7.07 19.78 7.13C19.75 7.19 19.7 7.23999 19.66 7.28999L17.51 8.94V8.89999V10.87L19.73 12.49V12.52ZM9.91998 13.65H9.95999C10.99 13.65 11.88 13.29 12.62 12.56C13.36 11.83 13.74 10.95 13.76 9.92C13.76 8.91 13.4 8.04001 12.67 7.32001C11.94 6.60001 11.06 6.23 10.03 6.23C9 6.23 8.12 6.59001 7.41 7.32001C6.69 8.05001 6.34 8.91 6.34 9.92C6.34 10.93 6.69 11.79 7.38 12.5C8.07 13.22 8.91999 13.6 9.92999 13.64L9.91998 13.65Z"
        fill="#4B4B4B" />
</svg>