<svg xmlns="http://www.w3.org/2000/svg" width="27" height="26" viewBox="0 0 27 26" fill="none">
    <path
        d="M10.2202 0.648438C10.6202 0.648438 10.9602 0.788436 11.2602 1.06844C11.5502 1.34844 11.7002 1.69843 11.7002 2.11843V9.95844C11.7002 10.3584 11.5502 10.7084 11.2602 10.9984C10.9702 11.2884 10.6202 11.4384 10.2202 11.4384H2.38019C1.96019 11.4384 1.6102 11.2884 1.3302 10.9984C1.0502 10.7084 0.910156 10.3584 0.910156 9.95844V2.11843C0.910156 1.69843 1.0502 1.34844 1.3302 1.06844C1.6102 0.788436 1.96019 0.648438 2.38019 0.648438H10.2202ZM10.2202 15.0384C10.6202 15.0384 10.9602 15.1884 11.2602 15.4784C11.5502 15.7684 11.7002 16.1184 11.7002 16.5184V24.3984C11.7002 24.7984 11.5502 25.1384 11.2602 25.4384C10.9702 25.7384 10.6202 25.8784 10.2202 25.8784H2.38019C1.96019 25.8784 1.6102 25.7284 1.3302 25.4384C1.0502 25.1484 0.910156 24.7984 0.910156 24.3984V16.5184C0.910156 16.1184 1.0502 15.7784 1.3302 15.4784C1.6102 15.1884 1.96019 15.0384 2.38019 15.0384H10.2202ZM16.7602 0.648438H24.6002C25.0202 0.648438 25.3702 0.788436 25.6502 1.06844C25.9302 1.34844 26.0702 1.69843 26.0702 2.11843V9.95844C26.0702 10.3584 25.9302 10.7084 25.6502 10.9984C25.3702 11.2884 25.0202 11.4384 24.6002 11.4384H16.7602C16.3602 11.4384 16.0202 11.2884 15.7202 10.9984C15.4302 10.7084 15.2802 10.3584 15.2802 9.95844V2.11843C15.2802 1.69843 15.4302 1.34844 15.7202 1.06844C16.0102 0.788436 16.3602 0.648438 16.7602 0.648438ZM16.7602 15.0384H24.6002C25.0202 15.0384 25.3702 15.1884 25.6502 15.4784C25.9302 15.7684 26.0702 16.1184 26.0702 16.5184V24.3984C26.0702 24.7984 25.9302 25.1384 25.6502 25.4384C25.3702 25.7284 25.0202 25.8784 24.6002 25.8784H16.7602C16.3602 25.8784 16.0202 25.7284 15.7202 25.4384C15.4302 25.1484 15.2802 24.7984 15.2802 24.3984V16.5184C15.2802 16.1184 15.4302 15.7784 15.7202 15.4784C16.0102 15.1884 16.3602 15.0384 16.7602 15.0384Z"
        fill="#555555" />
</svg>