<svg width="19" height="18" viewBox="0 0 19 18" fill="none" xmlns="http://www.w3.org/2000/svg">
<path d="M0 17.7408V12.3736C0.36579 12.2751 0.75972 12.1977 1.18882 12.1414C1.61792 12.0852 2.06109 12.05 2.52536 12.0289C3.05294 12.0289 3.67899 12.0922 4.40354 12.2258C5.12808 12.3595 5.82452 12.5565 6.47872 12.8167C7.13996 13.084 7.70268 13.4076 8.15992 13.8086C8.62419 14.1884 8.85632 14.6386 8.85632 15.1662V17.7127L0 17.7408ZM4.12921 9.20807C4.57238 8.7649 4.79749 8.23027 4.79749 7.59718C4.79749 6.96408 4.57238 6.43651 4.12921 5.98631C3.68604 5.5361 3.14438 5.31803 2.51832 5.31803C1.89225 5.31803 1.35763 5.54314 0.907426 5.98631C0.457222 6.42948 0.239168 6.97111 0.239168 7.59718C0.239168 8.22324 0.464257 8.75786 0.907426 9.20807C1.35059 9.65827 1.88522 9.87634 2.51832 9.87634C3.15141 9.87634 3.679 9.65123 4.12921 9.20807ZM16.4535 0.0070413C17.164 0.0070413 17.7619 0.253245 18.2614 0.752689C18.7538 1.2451 19 1.84302 19 2.5324V5.07886C19 5.76823 18.7538 6.36616 18.2614 6.85857C17.769 7.35098 17.164 7.59718 16.4535 7.59718H6.33099V2.52536C6.33099 1.83598 6.57719 1.23806 7.07663 0.745648C7.56904 0.253238 8.16695 0 8.85632 0H16.4535V0.0070413ZM7.59718 4.83265C7.59718 4.89596 7.6253 4.95224 7.67454 4.99445C7.72378 5.03666 7.78006 5.06479 7.8504 5.07886H9.87632C9.93963 5.06479 10.0029 5.03666 10.0522 4.99445C10.1014 4.95224 10.1296 4.90299 10.1296 4.83265V2.77861C10.1296 2.7153 10.1014 2.65199 10.0522 2.60275C10.0029 2.55351 9.94667 2.52536 9.87632 2.52536H7.8504C7.78709 2.52536 7.72378 2.55351 7.67454 2.60275C7.6253 2.65199 7.59718 2.70826 7.59718 2.77861V4.83265ZM11.3817 4.83265C11.3958 4.89596 11.4239 4.95224 11.4661 4.99445C11.5083 5.03666 11.5575 5.06479 11.6279 5.07886H13.682C13.7453 5.06479 13.8086 5.03666 13.8578 4.99445C13.9071 4.95224 13.9352 4.90299 13.9352 4.83265V2.77861C13.9352 2.7153 13.9071 2.65199 13.8578 2.60275C13.8086 2.55351 13.7523 2.52536 13.682 2.52536H11.6279C11.5646 2.52536 11.5083 2.55351 11.4661 2.60275C11.4239 2.65199 11.3958 2.70826 11.3817 2.77861V4.83265ZM15.1944 4.83265C15.1944 4.89596 15.2225 4.95224 15.2718 4.99445C15.321 5.03666 15.3773 5.06479 15.4476 5.07886H17.5017C17.565 5.06479 17.6212 5.03666 17.6634 4.99445C17.7056 4.95224 17.7268 4.90299 17.7268 4.83265V2.77861C17.7268 2.7153 17.7056 2.65199 17.6634 2.60275C17.6212 2.55351 17.572 2.52536 17.5017 2.52536H15.4476C15.3843 2.52536 15.321 2.55351 15.2718 2.60275C15.2225 2.65199 15.1944 2.70826 15.1944 2.77861V4.83265Z" fill="#4B4B4B"/>
</svg>
