<svg width="27" height="27" viewBox="0 0 27 27" fill="none" xmlns="http://www.w3.org/2000/svg">
<path fill-rule="evenodd" clip-rule="evenodd" d="M20.1497 20.8192L26 13.5L20.1497 6.66485L18 8.5L21.0198 11.8653C20.5972 11.8747 19.1062 11.9377 18.6655 12.0077C18.2248 12.0777 17.784 12.1687 17.341 12.2807C16.9003 12.3927 16.4279 12.5467 15.9239 12.7474C15.0673 13.1091 14.2921 13.5478 13.5937 14.0659C12.8953 14.5816 12.2421 15.1393 11.6341 15.7344C11.0239 16.3295 10.4249 16.9199 9.83275 17.5079C9.24058 18.0913 8.60999 18.6234 7.93872 19.0971C7.26745 19.5708 6.53516 19.9559 5.73958 20.2499C4.94626 20.5416 4.03315 20.6886 2.99799 20.6886L0.999999 20.6886L0.999999 24L2.99799 24C4.05627 23.9981 5.11068 23.8681 6.13963 23.6126C7.00607 23.3911 7.84156 23.0563 8.62582 22.6162C9.34214 22.2117 10.0208 21.7399 10.6532 21.2067C11.2634 20.6886 11.8443 20.1496 12.4026 19.5895C12.9586 19.0294 13.5146 18.4904 14.0706 17.9723C14.6258 17.4558 15.219 16.9846 15.8448 16.5628C16.4866 16.1323 17.1814 15.7925 17.9106 15.5524C18.7379 15.2914 20.1119 15.1631 20.9769 15.1767L18 19L20.1497 20.8192ZM11.6341 11.2633C11.9046 11.5278 12.1827 11.7838 12.4681 12.031C13.2815 11.4534 14.1529 10.9683 15.0673 10.5842L15.117 10.5678C15.3138 10.49 15.512 10.4161 15.7115 10.3461C15.1328 9.94944 14.5859 9.50839 14.0706 9.02767C13.5146 8.50961 12.9586 7.97055 12.4026 7.41049C11.8443 6.85043 11.2634 6.3137 10.6532 5.79331C10.0429 5.27759 9.36941 4.8062 8.62808 4.38382C7.84234 3.94348 7.00532 3.60863 6.13737 3.38738C5.10914 3.1322 4.05551 3.00219 2.99799 3L1 3L1 6.3137L2.99799 6.3137C4.03089 6.3137 4.94626 6.45838 5.73958 6.75242C6.53516 7.04412 7.26745 7.42916 7.93872 7.90288C8.60999 8.3766 9.24058 8.90632 9.83275 9.49439C10.4249 10.0801 11.0239 10.6705 11.6341 11.2679L11.6341 11.2633Z" fill="#4B4B4B" stroke="#4B4B4B" stroke-width="0.5"/>
</svg>
