<svg width="11" height="15" viewBox="0 0 11 15" fill="none" xmlns="http://www.w3.org/2000/svg">
<path d="M10.8531 4.01094C10.9469 4.10469 11 4.23125 11 4.36406V14C11 14.2766 10.7766 14.5 10.5 14.5H0.5C0.223438 14.5 0 14.2766 0 14V1C0 0.723437 0.223438 0.5 0.5 0.5H7.13594C7.26875 0.5 7.39688 0.553125 7.49063 0.646875L10.8531 4.01094ZM9.84688 4.59375L6.90625 1.65313V4.59375H9.84688ZM7.39406 9.45719C7.15688 9.44938 6.90469 9.46766 6.61828 9.50344C6.23859 9.26922 5.98297 8.9475 5.80141 8.47484L5.81813 8.40641L5.8375 8.32547C5.90469 8.04219 5.94078 7.83547 5.95156 7.62703C5.95969 7.46969 5.95094 7.32453 5.92297 7.19C5.87141 6.89953 5.66594 6.72969 5.40703 6.71922C5.16563 6.70937 4.94375 6.84422 4.88703 7.05312C4.79469 7.39094 4.84875 7.83547 5.04453 8.59359C4.79516 9.18812 4.46563 9.88516 4.24453 10.2739C3.94938 10.4261 3.71953 10.5645 3.52641 10.718C3.27172 10.9206 3.11266 11.1289 3.06891 11.3477C3.04766 11.4491 3.07969 11.5816 3.15266 11.6902C3.23547 11.8133 3.36016 11.8933 3.50969 11.9048C3.88703 11.9341 4.35078 11.545 4.86281 10.6664C4.91422 10.6492 4.96859 10.6311 5.035 10.6086L5.22094 10.5458C5.33859 10.5061 5.42391 10.4777 5.50828 10.4503C5.87391 10.3313 6.15047 10.2561 6.40203 10.2133C6.83922 10.4473 7.34453 10.6008 7.68484 10.6008C7.96578 10.6008 8.15563 10.4552 8.22422 10.2259C8.28438 10.0247 8.23672 9.79125 8.10734 9.66219C7.97359 9.53078 7.72766 9.46797 7.39406 9.45719ZM3.51922 11.4637V11.4581L3.52125 11.4528C3.54411 11.3937 3.57346 11.3373 3.60875 11.2847C3.67563 11.1819 3.76766 11.0737 3.88172 10.9586C3.94297 10.8969 4.00672 10.8367 4.08156 10.7692C4.09828 10.7542 4.20516 10.6591 4.22516 10.6403L4.39969 10.4778L4.27281 10.6798C4.08031 10.9867 3.90625 11.2077 3.75719 11.3517C3.70234 11.4048 3.65406 11.4439 3.615 11.4691C3.6021 11.4777 3.58846 11.4851 3.57422 11.4913C3.56781 11.4939 3.56219 11.4955 3.55656 11.4959C3.55062 11.4967 3.54459 11.4959 3.53906 11.4936C3.53318 11.4911 3.52816 11.487 3.52463 11.4817C3.5211 11.4764 3.51922 11.4701 3.51922 11.4637ZM5.48703 8.05313L5.45172 8.11563L5.42984 8.04719C5.38141 7.89359 5.34578 7.66219 5.33594 7.45344C5.32469 7.21594 5.34359 7.07344 5.41859 7.07344C5.52391 7.07344 5.57219 7.24219 5.57594 7.49609C5.57938 7.71922 5.54422 7.95141 5.48688 8.05313H5.48703ZM5.39625 8.96656L5.42016 8.90328L5.45281 8.96266C5.63547 9.29453 5.8725 9.57141 6.13313 9.76437L6.18938 9.80594L6.12078 9.82C5.86563 9.87281 5.62797 9.95219 5.30297 10.0833C5.33688 10.0695 4.96516 10.2217 4.87109 10.2578L4.78906 10.2892L4.83281 10.213C5.02578 9.87703 5.20406 9.47359 5.39609 8.96656H5.39625ZM7.85906 10.1581C7.73625 10.2066 7.47188 10.1633 7.00641 9.96453L6.88828 9.91422L7.01641 9.90484C7.38047 9.87781 7.63828 9.89781 7.78859 9.95281C7.85266 9.97625 7.89531 10.0058 7.91422 10.0395C7.92417 10.0555 7.92751 10.0747 7.92355 10.0931C7.91958 10.1115 7.90862 10.1277 7.89297 10.1381C7.88303 10.1469 7.87153 10.1537 7.85906 10.1581Z" fill="#CB402E"/>
</svg>
