<svg width="24" height="22" viewBox="0 0 24 22" fill="none" xmlns="http://www.w3.org/2000/svg">
<path d="M18.7555 9.92L5.74448 21.6H0V16.43L13.0111 4.72L18.7555 9.93001V9.92ZM23.7222 5.42L20.9889 7.88L15.2445 2.71001L17.9444 0.25C18.0444 0.18 18.1555 0.120007 18.2778 0.0700073C18.4 0.0200073 18.5222 0 18.6444 0C18.8 0 18.9333 0.0200073 19.0556 0.0700073C19.1778 0.120007 19.2667 0.18 19.3444 0.25L23.7222 4.15001C23.8 4.24001 23.8667 4.34001 23.9222 4.45001C23.9778 4.56001 24 4.67 24 4.78C24 4.92 23.9778 5.04001 23.9222 5.15001C23.8667 5.26001 23.8 5.36001 23.7222 5.45001V5.41V5.42Z" fill="#4B4B4B"/>
</svg>
