<svg xmlns="http://www.w3.org/2000/svg" width="28" height="28" viewBox="0 0 28 28" fill="none">
    <path
        d="M9.99999 15.2685C10.8241 15.2685 11.8148 15.3704 12.963 15.5648C14.1111 15.7778 15.2129 16.0926 16.25 16.5093C17.2963 16.9259 18.1759 17.4445 18.8889 18.0741C19.6296 18.7037 20 19.4352 20 20.2593V24H0V20.2593C0 19.4352 0.361143 18.7037 1.07411 18.0741C1.81485 17.4445 2.70374 16.9259 3.74078 16.5093C4.78707 16.0926 5.87965 15.7778 7.0278 15.5648C8.15743 15.3704 9.14818 15.2685 9.99078 15.2685H9.99999ZM5.08332 18.6852C3.47221 19.3148 2.6111 19.8426 2.48147 20.2778V21.5185H17.4908V20.25C17.3611 19.8148 16.5 19.287 14.8982 18.6667C13.3056 18.0463 11.6667 17.7407 9.99999 17.7407C8.33332 17.7407 6.68517 18.0556 5.08332 18.6852ZM13.5185 5.46295C14.4908 6.43517 14.9815 7.62037 14.9815 9.00926C14.9815 10.3981 14.4908 11.5463 13.5185 12.5278C12.5463 13.5092 11.3704 13.9907 9.99999 13.9907C8.62962 13.9907 7.42595 13.5 6.45373 12.5278C5.48151 11.5555 4.99075 10.3796 4.99075 9.00926C4.99075 7.63889 5.48151 6.43517 6.45373 5.46295C7.42595 4.49073 8.6111 4 9.99999 4C11.3889 4 12.5371 4.49073 13.5185 5.46295ZM8.22223 7.24074C7.73148 7.73148 7.49076 8.32409 7.49076 9.01853C7.49076 9.71297 7.73148 10.2685 8.22223 10.7592C8.71297 11.25 9.30554 11.4907 9.99999 11.4907C10.6944 11.4907 11.2871 11.25 11.7778 10.7592C12.2685 10.2685 12.5093 9.69446 12.5093 9.01853C12.5093 8.3426 12.2685 7.73148 11.7778 7.24074C11.2871 6.75 10.6944 6.50925 9.99999 6.50925C9.30554 6.50925 8.71297 6.75 8.22223 7.24074ZM17.4908 8.98148C17.4908 8.0926 17.3426 7.24075 17.0463 6.44446C16.75 5.6389 16.3426 4.92593 15.8241 4.2963C16.0648 4.21297 16.3241 4.13889 16.6018 4.08333C16.8796 4.02777 17.1759 4 17.4815 4C18.8704 4 20.0556 4.49073 21.0278 5.46295C22.0093 6.43517 22.4908 7.62037 22.4908 9.00926C22.4908 10.3981 22 11.5463 21.0278 12.5278C20.0556 13.5092 18.8704 13.9907 17.4815 13.9907C17.1944 13.9907 16.9259 13.963 16.6667 13.9074C16.4074 13.8519 16.1574 13.7963 15.9167 13.7315H15.9537H15.8241C16.3426 13.1019 16.75 12.3889 17.0463 11.5833C17.3426 10.7778 17.4908 9.93519 17.4908 9.04631V8.98148ZM19.5741 15.4259C20.4167 15.9074 21.1111 16.5648 21.6389 17.4167C22.1667 18.2592 22.4537 19.2037 22.5 20.25V23.9907H27.4815V20.25C27.4815 19.5741 27.2315 18.9722 26.7315 18.4259C26.2315 17.8796 25.5926 17.4074 24.8241 17.0092C24.0555 16.6111 23.2037 16.2778 22.2685 16.0185C21.3333 15.7407 20.4352 15.537 19.5648 15.4352L19.5741 15.4259Z"
        fill="#929AAC" />
</svg>