<svg xmlns="http://www.w3.org/2000/svg" width="17" height="17" viewBox="0 0 17 17" fill="none">
    <path
        d="M12.4667 10.2C11.3333 11.3333 11.3333 12.4667 10.2 12.4667C9.06667 12.4667 7.93333 11.3333 6.8 10.2C5.66667 9.06667 4.53333 7.93333 4.53333 6.8C4.53333 5.66667 5.66667 5.66667 6.8 4.53333C7.93333 3.4 4.53333 0 3.4 0C2.26667 0 0 3.4 0 3.4C0 5.66667 2.32843 10.2618 4.53333 12.4667C6.73823 14.6716 11.3333 17 13.6 17C13.6 17 17 14.7333 17 13.6C17 12.4667 13.6 9.06667 12.4667 10.2Z"
        fill="#555555" />
</svg>