<svg width="22" height="22" viewBox="0 0 22 22" fill="none" xmlns="http://www.w3.org/2000/svg">
<path d="M10.9797 19.2805C9.84103 19.2805 8.76341 19.0565 7.75694 18.5981C6.75047 18.1703 5.88632 17.5796 5.14418 16.8463C4.40204 16.1028 3.81238 15.237 3.35489 14.2287C2.9279 13.2306 2.7144 12.1509 2.7144 11C2.7144 9.84906 2.9279 8.7898 3.35489 7.81202C3.81238 6.80369 4.40203 5.92776 5.14418 5.17406C5.88632 4.42036 6.75047 3.82963 7.75694 3.40185C8.75325 2.97407 9.83086 2.76018 10.9797 2.76018C12.1285 2.76018 13.1959 2.97407 14.2024 3.40185C15.2089 3.82963 16.073 4.43056 16.8152 5.19445L12.8503 9.16666L22 9.16666L22 0L18.7773 3.22869C17.781 2.22035 16.6118 1.43612 15.2699 0.865747C13.9381 0.295377 12.5046 0.0101649 10.9797 0.010165C9.45471 0.0101651 8.06191 0.295378 6.71995 0.865748C5.38816 1.43612 4.21905 2.22037 3.21258 3.20833C2.20611 4.19629 1.42329 5.36758 0.853972 6.70184C0.284655 8.0361 7.20162e-07 9.47221 8.53725e-07 11C9.87287e-07 12.5278 0.284656 13.9231 0.853972 15.2676C1.42329 16.6018 2.21627 17.7731 3.21258 18.7815C4.20888 19.7898 5.37799 20.574 6.71995 21.1444C8.05175 21.7148 9.47504 22 10.9797 22C12.342 22 13.6229 21.7759 14.8429 21.3176C16.0629 20.8389 17.1405 20.1972 18.0961 19.3824C19.0518 18.5676 19.8448 17.6102 20.4954 16.5204C21.1359 15.4 21.5832 14.1879 21.817 12.9046L21.817 12.8333L19.0314 12.8333C18.8179 13.7602 18.4621 14.6259 17.9538 15.4102C17.476 16.1944 16.8863 16.8769 16.1645 17.4472C15.4529 18.0176 14.6599 18.4657 13.8059 18.7713C12.9214 19.1074 11.9963 19.2703 11.0203 19.2703L10.9797 19.2703L10.9797 19.2805Z" fill="#4B4B4B"/>
</svg>
