<?xml version="1.0" standalone="no"?>
<!DOCTYPE svg PUBLIC "-//W3C//DTD SVG 20010904//EN"
 "http://www.w3.org/TR/2001/REC-SVG-20010904/DTD/svg10.dtd">
<svg version="1.0" xmlns="http://www.w3.org/2000/svg"
 width="698.000000pt" height="698.000000pt" viewBox="0 0 698.000000 698.000000"
 preserveAspectRatio="xMidYMid meet">
<metadata>
Created by potrace 1.14, written by Peter Selinger 2001-2017
</metadata>
<g transform="translate(0.000000,698.000000) scale(0.100000,-0.100000)"
fill="#000000" stroke="none">
<path d="M6048 6737 c-19 -17 -83 -77 -143 -132 -60 -55 -125 -116 -145 -135
-21 -19 -86 -80 -146 -135 -187 -172 -215 -199 -266 -247 -27 -27 -51 -48 -53
-48 -2 0 -27 -22 -55 -50 -28 -27 -56 -50 -62 -50 -6 0 -9 -3 -6 -6 4 -3 -12
-22 -35 -42 -40 -35 -62 -56 -188 -174 -31 -29 -83 -77 -115 -107 -99 -91
-296 -275 -318 -296 -12 -11 -24 -19 -28 -18 -4 2 -10 -6 -13 -17 -4 -11 -10
-20 -14 -20 -5 0 -49 -40 -99 -89 -50 -49 -93 -87 -95 -85 -2 3 -10 -3 -18
-13 -12 -15 -12 -16 1 -9 8 4 6 1 -4 -8 -10 -8 -23 -13 -27 -10 -5 3 -9 -2 -9
-10 0 -9 -7 -16 -16 -16 -8 0 -14 -3 -12 -7 2 -5 -9 -20 -24 -35 -15 -15 -28
-25 -28 -23 0 3 -14 -9 -31 -26 -26 -26 -29 -32 -18 -47 10 -12 6 -11 -10 3
-14 11 -21 15 -18 9 4 -7 0 -15 -9 -18 -8 -3 -12 -10 -9 -16 4 -6 -1 -7 -11
-3 -12 4 -15 3 -10 -5 4 -7 2 -12 -3 -12 -6 0 -26 -15 -45 -34 -27 -26 -32
-36 -23 -45 9 -9 9 -11 -4 -6 -9 3 -28 -5 -45 -20 -16 -14 -33 -25 -37 -25 -5
0 -5 -4 -2 -10 3 -5 1 -10 -4 -10 -15 0 -87 -71 -83 -82 1 -5 -2 -7 -7 -3 -6
3 -15 -4 -21 -15 -6 -11 -17 -20 -25 -20 -8 0 -15 -9 -15 -20 0 -13 -5 -18
-15 -14 -16 6 -17 2 -17 -81 0 -160 2 -186 15 -179 10 6 10 4 0 -7 -15 -15
-17 -33 -4 -24 5 3 13 0 17 -6 4 -7 3 -9 -4 -5 -6 3 -14 1 -18 -5 -3 -6 0 -15
7 -20 10 -6 11 -9 2 -9 -7 0 -13 -5 -13 -11 0 -5 5 -7 12 -3 7 5 8 3 2 -7 -4
-8 -8 -33 -9 -57 0 -33 3 -41 14 -37 11 4 11 1 -2 -13 -9 -10 -14 -22 -11 -25
4 -4 7 -70 6 -149 0 -89 3 -136 9 -127 5 8 9 10 9 5 0 -5 20 12 45 37 25 26
45 44 45 40 0 -11 20 20 20 31 0 5 -8 2 -17 -5 -16 -13 -17 -12 -4 4 9 11 18
14 25 8 7 -6 16 -4 24 5 12 13 8 18 -11 15 -5 -1 -6 3 -2 8 3 6 12 8 20 5 16
-7 85 56 85 77 0 11 2 11 10 -1 8 -13 10 -13 10 2 0 10 9 22 20 28 11 6 18 15
15 20 -3 5 0 12 6 16 8 4 9 3 5 -4 -14 -22 5 -12 40 22 22 21 33 40 28 47 -4
8 -3 9 4 5 6 -4 28 8 48 26 74 67 85 78 79 78 -3 0 0 6 7 14 7 8 15 13 18 12
9 -5 39 32 32 39 -4 4 -2 5 3 3 6 -1 21 5 35 15 13 9 21 17 17 17 -4 0 -2 6 5
14 7 8 16 12 21 9 4 -2 7 3 7 11 0 9 3 15 8 14 11 -4 72 57 72 73 0 11 2 11
10 -1 8 -13 10 -12 10 3 0 9 4 17 10 17 14 0 135 121 132 132 -1 5 2 7 8 3 5
-3 10 -1 10 4 0 6 4 11 10 11 12 0 115 103 112 113 -1 4 7 7 18 7 11 0 20 7
20 15 0 8 4 15 9 15 5 0 29 19 53 43 25 23 98 92 163 152 66 61 131 122 147
137 15 16 50 48 77 72 27 24 47 47 44 50 -4 3 -1 6 5 6 6 0 31 19 56 43 24 23
97 92 161 152 65 61 140 131 167 158 28 26 51 47 53 47 2 0 32 28 68 63 53 52
170 162 310 291 l27 25 0 370 c0 203 -4 372 -9 375 -5 3 -24 -9 -43 -27z
m-2222 -2202 c-1 -8 -5 -17 -8 -21 -5 -4 -4 16 1 34 3 9 9 -1 7 -13z m-40 -60
c-1 -8 -5 -17 -8 -21 -5 -4 -4 16 1 34 3 9 9 -1 7 -13z m80 -51 c1 -9 0 -13
-4 -10 -3 4 -7 14 -8 22 -1 9 0 13 4 10 3 -4 7 -14 8 -22z m183 3 c8 -10 7
-14 -2 -14 -8 0 -14 6 -14 14 0 7 1 13 2 13 2 0 8 -6 14 -13z m-55 -9 c-3 -4
-9 -8 -15 -8 -5 0 -9 4 -9 8 0 5 7 9 15 9 8 0 12 -4 9 -9z m-164 -18 c0 -5 -5
-10 -11 -10 -5 0 -7 5 -4 10 3 6 8 10 11 10 2 0 4 -4 4 -10z m40 -40 c0 -5 -5
-10 -11 -10 -5 0 -7 5 -4 10 3 6 8 10 11 10 2 0 4 -4 4 -10z m96 -2 c3 -4 -1
-5 -10 -4 -8 1 -18 5 -22 8 -3 4 1 5 10 4 8 -1 18 -5 22 -8z m-146 -12 c0 -2
-8 -10 -17 -17 -16 -13 -17 -12 -4 4 13 16 21 21 21 13z m45 -26 c3 -5 1 -10
-4 -10 -6 0 -11 5 -11 10 0 6 2 10 4 10 3 0 8 -4 11 -10z m161 -5 c-1 -8 -5
-17 -8 -21 -5 -4 -4 16 1 34 3 9 9 -1 7 -13z m101 0 c0 -8 -4 -12 -9 -9 -5 3
-6 10 -3 15 9 13 12 11 12 -6z m-137 -29 c0 -3 -4 -8 -10 -11 -5 -3 -10 -1
-10 4 0 6 5 11 10 11 6 0 10 -2 10 -4z m-182 -31 c-3 -3 -9 2 -12 12 -6 14 -5
15 5 6 7 -7 10 -15 7 -18z m258 -51 c1 -9 0 -13 -4 -10 -3 4 -7 14 -8 22 -1 9
0 13 4 10 3 -4 7 -14 8 -22z m41 -1 c-4 -3 -1 -13 6 -22 11 -14 10 -14 -5 -2
-16 12 -16 31 -1 31 4 0 3 -3 0 -7z m-324 -58 c-3 -9 -8 -14 -10 -11 -3 3 -2
9 2 15 9 16 15 13 8 -4z m107 11 c0 -2 -8 -10 -17 -17 -16 -13 -17 -12 -4 4
13 16 21 21 21 13z m41 -13 c13 -16 12 -17 -3 -4 -17 13 -22 21 -14 21 2 0 10
-8 17 -17z m79 13 c0 -2 -8 -10 -17 -17 -16 -13 -17 -12 -4 4 13 16 21 21 21
13z m-9 -63 c13 -16 12 -17 -3 -4 -17 13 -22 21 -14 21 2 0 10 -8 17 -17z
m-151 -17 c0 -2 -6 -9 -14 -15 -11 -9 -16 -9 -22 0 -4 7 -3 9 4 5 6 -3 13 -2
17 4 6 10 15 14 15 6z m-120 -16 c0 -5 -5 -10 -11 -10 -5 0 -7 5 -4 10 3 6 8
10 11 10 2 0 4 -4 4 -10z m33 -15 c-3 -9 -8 -14 -10 -11 -3 3 -2 9 2 15 9 16
15 13 8 -4z m67 -26 c0 -5 -4 -9 -8 -9 -5 0 -9 7 -9 15 0 8 4 12 9 9 4 -3 8
-9 8 -15z m58 -4 c-3 -3 -9 2 -12 12 -6 14 -5 15 5 6 7 -7 10 -15 7 -18z m-28
-9 c0 -2 -8 -10 -17 -17 -16 -13 -17 -12 -4 4 13 16 21 21 21 13z m26 -31 c1
-8 -1 -17 -5 -19 -4 -3 -7 6 -7 19 0 25 8 25 12 0z m-76 10 c0 -7 -30 -13 -34
-7 -3 4 4 9 15 9 10 1 19 0 19 -2z m-81 -49 c-3 -3 -11 5 -18 17 -13 21 -12
21 5 5 10 -10 16 -20 13 -22z m59 -1 c-3 -3 -9 2 -12 12 -6 14 -5 15 5 6 7 -7
10 -15 7 -18z m-18 1 c0 -2 -8 -10 -17 -17 -16 -13 -17 -12 -4 4 13 16 21 21
21 13z m-40 -19 c0 -2 -8 -11 -18 -20 -15 -14 -19 -15 -19 -2 0 8 4 12 8 9 4
-2 10 0 14 6 6 10 15 14 15 7z m50 -12 c-7 -8 -17 -15 -23 -15 -6 0 -2 7 9 15
25 19 30 19 14 0z m-35 -57 c5 4 5 1 1 -6 -6 -10 -11 -10 -22 -1 -8 6 -14 14
-14 16 0 3 6 0 13 -6 8 -6 18 -7 22 -3z m-32 -21 c8 5 8 2 0 -9 -7 -8 -11 -18
-8 -21 3 -4 2 -5 -2 -2 -4 3 -8 16 -9 28 -2 12 0 16 2 9 3 -6 11 -9 17 -5z"/>
<path d="M1389 6386 c-3 -25 -1 -76 4 -89 3 -9 3 -18 -1 -21 -9 -5 -7 -130 2
-144 3 -6 3 -13 -1 -15 -10 -6 -8 -130 1 -145 3 -6 3 -13 -1 -15 -7 -5 -9
-114 -3 -142 1 -5 1 -12 0 -15 -6 -15 -5 -69 1 -92 4 -14 5 -29 1 -32 -3 -4
-6 -36 -6 -72 -1 -65 0 -67 41 -108 51 -50 142 -137 205 -193 25 -23 43 -44
40 -47 -3 -3 -1 -6 5 -6 6 0 35 -24 65 -52 30 -29 99 -93 152 -143 54 -49 105
-98 114 -109 9 -10 23 -24 30 -30 7 -6 37 -34 67 -63 29 -28 56 -49 59 -46 3
4 6 -1 6 -10 0 -8 9 -19 20 -22 11 -4 18 -11 15 -16 -4 -5 0 -9 7 -9 7 0 19
-9 26 -20 7 -11 22 -20 35 -21 12 0 17 -3 10 -6 -13 -5 31 -53 49 -53 5 0 7
-4 4 -8 -2 -4 7 -17 20 -27 51 -40 101 -94 95 -101 -3 -4 -1 -4 6 0 6 3 14 2
18 -4 4 -6 12 -7 18 -3 7 4 5 -2 -3 -12 -8 -10 -10 -16 -4 -12 6 3 21 -5 32
-18 12 -14 30 -25 39 -25 15 0 16 -2 3 -10 -9 -6 -10 -10 -3 -10 6 0 37 -25
67 -56 39 -40 60 -55 72 -50 14 5 15 4 4 -9 -10 -12 -10 -15 4 -15 10 0 14 -4
11 -10 -3 -5 1 -10 10 -10 9 0 13 -4 10 -10 -6 -9 8 -14 28 -11 4 0 7 -3 7 -9
0 -22 2 -25 21 -32 10 -4 19 -14 19 -23 0 -8 4 -15 9 -15 6 0 25 -13 43 -30
18 -16 36 -30 40 -30 5 0 8 -7 8 -16 0 -10 5 -14 16 -10 8 3 13 2 10 -3 -9
-13 20 -44 43 -46 12 -1 23 6 26 16 3 9 13 20 21 23 8 3 12 11 9 16 -4 6 -3
10 2 9 20 -3 34 2 28 11 -3 6 1 10 9 10 16 0 20 11 16 40 -1 11 3 9 15 -5 14
-17 16 -18 11 -2 -3 10 -2 16 3 13 12 -8 34 21 26 34 -4 6 -3 10 2 9 20 -4 33
4 76 45 26 24 47 42 47 40 0 -1 12 8 26 23 14 14 23 31 20 39 -3 7 0 16 6 20
6 4 8 3 4 -4 -3 -6 -2 -13 3 -17 13 -7 30 25 24 45 -4 12 -3 13 5 1 8 -11 19
-5 53 28 24 22 38 41 31 41 -7 0 -12 7 -12 15 0 9 -6 12 -17 8 -10 -3 -15 -3
-11 1 9 10 -42 66 -60 66 -9 0 -12 6 -8 16 6 14 4 15 -9 4 -9 -7 -15 -9 -14
-4 4 21 -2 35 -11 29 -5 -3 -10 1 -10 9 0 9 -5 16 -11 16 -6 0 -32 23 -57 50
-25 28 -52 50 -59 50 -8 0 -11 5 -8 10 3 6 -1 10 -9 10 -9 0 -16 7 -16 16 0
10 -6 14 -15 10 -10 -3 -17 3 -21 20 -4 14 -9 23 -12 20 -2 -3 -24 15 -48 40
-23 25 -48 43 -54 39 -6 -3 -10 -3 -9 2 3 20 -2 34 -11 28 -5 -3 -10 -1 -10 5
0 6 -5 8 -12 4 -7 -4 -8 -3 -4 5 4 6 0 14 -8 17 -9 3 -16 12 -16 19 0 7 -14
18 -30 25 -17 7 -29 15 -26 17 6 7 -40 53 -53 53 -5 0 -13 9 -16 20 -4 11 -9
18 -13 16 -10 -5 -32 20 -25 28 6 6 -13 10 -30 7 -5 -1 -6 2 -4 7 3 4 -31 41
-75 82 -45 41 -109 103 -144 138 -34 34 -64 62 -66 62 -2 0 -38 33 -80 73 -42
39 -129 122 -193 182 -171 160 -212 199 -336 315 -61 58 -123 116 -138 130
-15 14 -82 77 -149 140 -117 110 -141 129 -143 116z m1018 -1771 c0 -8 -4 -12
-9 -9 -5 3 -6 10 -3 15 9 13 12 11 12 -6z m618 -3 c-3 -3 -11 0 -18 7 -9 10
-8 11 6 5 10 -3 15 -9 12 -12z m85 14 c0 -2 -7 -7 -16 -10 -8 -3 -12 -2 -9 4
6 10 25 14 25 6z m35 -25 c3 -5 2 -12 -3 -15 -5 -3 -9 1 -9 9 0 17 3 19 12 6z
m145 -55 c0 -2 -7 -7 -16 -10 -8 -3 -12 -2 -9 4 6 10 25 14 25 6z m-256 -24
c3 -5 -1 -9 -9 -9 -8 0 -12 4 -9 9 3 4 7 8 9 8 2 0 6 -4 9 -8z m76 -2 c0 -5
-2 -10 -4 -10 -3 0 -8 5 -11 10 -3 6 -1 10 4 10 6 0 11 -4 11 -10z m265 1 c-9
-8 -36 -10 -30 -2 2 4 11 8 20 8 8 0 13 -3 10 -6z m-531 -19 c3 -5 -1 -9 -9
-9 -8 0 -12 4 -9 9 3 4 7 8 9 8 2 0 6 -4 9 -8z m91 -2 c3 -6 -1 -7 -9 -4 -18
7 -21 14 -7 14 6 0 13 -4 16 -10z m130 -20 c3 -5 1 -10 -4 -10 -6 0 -11 5 -11
10 0 6 2 10 4 10 3 0 8 -4 11 -10z m40 0 c3 -5 1 -10 -4 -10 -6 0 -11 5 -11
10 0 6 2 10 4 10 3 0 8 -4 11 -10z m-420 -19 c3 -5 2 -12 -3 -15 -5 -3 -9 1
-9 9 0 17 3 19 12 6z m520 -9 c-3 -3 -11 0 -18 7 -9 10 -8 11 6 5 10 -3 15 -9
12 -12z m-320 -11 c-9 -8 -36 -10 -30 -2 2 4 11 8 20 8 8 0 13 -3 10 -6z m443
-26 c-3 -3 -9 2 -12 12 -6 14 -5 15 5 6 7 -7 10 -15 7 -18z m-184 7 c3 -5 -1
-9 -9 -9 -8 0 -12 4 -9 9 3 4 7 8 9 8 2 0 6 -4 9 -8z m96 4 c0 -2 -8 -10 -17
-17 -16 -13 -17 -12 -4 4 13 16 21 21 21 13z m-455 -15 c3 -5 2 -12 -3 -15 -5
-3 -9 1 -9 9 0 17 3 19 12 6z m60 -20 c3 -5 2 -12 -3 -15 -5 -3 -9 1 -9 9 0
17 3 19 12 6z m447 -15 c-4 -6 -7 -14 -7 -18 0 -19 -11 -14 -11 6 0 12 6 23
13 23 6 0 9 -5 5 -11z m-586 -18 c3 -4 -1 -5 -10 -4 -8 1 -18 5 -22 8 -3 4 1
5 10 4 8 -1 18 -5 22 -8z m84 2 c0 -5 -5 -10 -11 -10 -5 0 -7 5 -4 10 3 6 8
10 11 10 2 0 4 -4 4 -10z m377 3 c-4 -3 -2 -11 3 -18 7 -8 5 -12 -4 -12 -8 0
-12 7 -11 16 5 22 4 21 12 21 3 0 3 -3 0 -7z m48 -23 c3 -6 -1 -7 -9 -4 -18 7
-21 14 -7 14 6 0 13 -4 16 -10z m-291 -19 c3 -5 -2 -15 -12 -22 -15 -12 -16
-12 -5 2 7 9 10 19 6 22 -3 4 -4 7 0 7 3 0 8 -4 11 -9z m136 3 c0 -8 -19 -13
-24 -6 -3 5 1 9 9 9 8 0 15 -2 15 -3z m225 -4 c-3 -5 -12 -10 -18 -10 -7 0 -6
4 3 10 19 12 23 12 15 0z m-103 -13 c-11 -13 -75 -17 -87 -6 -3 3 13 5 35 4
22 -1 43 2 46 7 3 4 8 8 11 8 3 0 1 -6 -5 -13z m-132 -28 c0 -5 -4 -9 -8 -9
-5 0 -9 7 -9 15 0 8 4 12 9 9 4 -3 8 -9 8 -15z m200 7 c0 -2 -7 -7 -16 -10 -8
-3 -12 -2 -9 4 6 10 25 14 25 6z m-416 -24 c3 -5 -1 -9 -9 -9 -8 0 -12 4 -9 9
3 4 7 8 9 8 2 0 6 -4 9 -8z m190 0 c3 -5 -1 -9 -9 -9 -8 0 -12 4 -9 9 3 4 7 8
9 8 2 0 6 -4 9 -8z m161 -11 c3 -5 2 -12 -3 -15 -5 -3 -9 1 -9 9 0 17 3 19 12
6z m-205 -6 c0 -2 -6 -8 -13 -14 -10 -8 -14 -7 -14 2 0 8 6 14 14 14 7 0 13
-1 13 -2z m154 -3 c3 -5 -1 -9 -9 -9 -8 0 -15 4 -15 9 0 4 4 8 9 8 6 0 12 -4
15 -8z m-128 -28 c1 -9 0 -13 -4 -10 -3 4 -7 14 -8 22 -1 9 0 13 4 10 3 -4 7
-14 8 -22z m-121 -2 c-3 -3 -11 0 -18 7 -9 10 -8 11 6 5 10 -3 15 -9 12 -12z
m-15 -32 c0 -5 -2 -10 -4 -10 -3 0 -8 5 -11 10 -3 6 -1 10 4 10 6 0 11 -4 11
-10z m140 0 c0 -5 -2 -10 -4 -10 -3 0 -8 5 -11 10 -3 6 -1 10 4 10 6 0 11 -4
11 -10z m-70 -35 c-7 -8 -17 -15 -23 -15 -6 0 -2 7 9 15 25 19 30 19 14 0z
m69 -12 c2 -1 -5 -1 -16 0 -11 0 -20 7 -20 14 0 10 4 10 16 1 9 -7 18 -13 20
-15z m-20 -66 c8 -10 7 -14 -2 -14 -8 0 -14 6 -14 14 0 7 1 13 2 13 2 0 8 -6
14 -13z"/>
<path d="M6019 5818 c-31 -29 -109 -102 -173 -163 -65 -60 -153 -144 -196
-185 -241 -231 -354 -335 -364 -332 -6 2 -8 1 -4 -3 7 -8 -100 -115 -114 -115
-5 0 -6 -4 -3 -10 3 -5 1 -10 -4 -10 -6 0 -30 -19 -54 -42 -137 -136 -236
-226 -241 -221 -3 4 -6 2 -6 -4 0 -6 -20 -31 -45 -56 -25 -26 -45 -44 -45 -42
0 3 -32 -26 -71 -65 -39 -38 -75 -70 -80 -70 -5 0 -9 -7 -9 -15 0 -8 -4 -15
-10 -15 -5 0 -19 -9 -30 -20 -11 -11 -18 -20 -15 -20 3 0 -3 -8 -12 -18 -10
-11 -21 -17 -25 -15 -5 2 -8 -1 -8 -6 0 -6 -7 -11 -17 -11 -9 0 -14 -3 -10 -6
6 -6 -37 -54 -47 -54 -3 0 -25 -20 -48 -44 -23 -25 -45 -43 -50 -40 -4 3 -8
-1 -8 -8 0 -17 -36 -48 -46 -40 -4 4 -4 1 0 -6 5 -9 1 -15 -12 -19 -11 -2 -25
-16 -33 -29 -7 -14 -19 -22 -26 -19 -8 2 -12 1 -8 -4 3 -5 2 -11 -3 -13 -4 -1
-17 -16 -29 -31 -12 -15 -24 -28 -27 -28 -20 2 -25 -1 -20 -13 3 -8 0 -17 -7
-22 -8 -5 -10 -3 -4 7 4 8 -17 -11 -47 -41 -54 -54 -61 -60 -75 -60 -5 0 -1
-5 7 -10 12 -8 11 -10 -7 -10 -13 0 -28 -9 -35 -20 -7 -11 -18 -20 -25 -20 -7
0 -13 -7 -13 -15 0 -8 -6 -15 -13 -15 -8 0 -19 -11 -26 -24 -7 -13 -24 -30
-37 -37 -13 -7 -24 -19 -24 -27 0 -9 -2 -13 -5 -10 -11 10 -76 -62 -69 -75 5
-8 2 -7 -9 2 -15 12 -17 11 -17 -4 0 -10 -3 -15 -7 -11 -4 4 -18 -10 -31 -31
-13 -21 -21 -29 -18 -19 5 16 4 17 -9 6 -8 -7 -12 -16 -9 -21 3 -5 1 -9 -5 -9
-16 0 -71 -51 -65 -61 3 -5 2 -9 -3 -8 -18 3 -33 -1 -30 -9 3 -10 -52 -62 -67
-62 -6 0 -4 -5 4 -10 13 -9 13 -10 -1 -10 -8 0 -24 -6 -34 -14 -17 -12 -18
-16 -5 -32 14 -17 13 -18 -1 -6 -14 11 -22 7 -54 -23 -21 -19 -42 -35 -47 -35
-5 0 -6 -4 -3 -10 3 -5 1 -10 -5 -10 -7 0 -9 -7 -6 -16 3 -8 2 -12 -4 -9 -6 3
-10 2 -10 -4 0 -5 6 -12 13 -14 9 -4 8 -8 -3 -16 -13 -10 -13 -11 0 -11 12 0
12 -2 1 -9 -10 -6 -10 -10 -1 -16 9 -6 9 -10 -1 -16 -10 -6 -11 -9 -1 -9 6 0
12 -5 12 -11 0 -5 -4 -8 -8 -5 -5 3 -9 -1 -9 -9 0 -8 3 -12 7 -10 4 2 7 -16 7
-40 0 -26 -5 -45 -11 -45 -6 0 -3 -5 7 -11 11 -7 15 -16 10 -27 -10 -21 -10
-53 0 -70 5 -7 3 -12 -4 -12 -7 0 -4 -7 7 -15 19 -15 19 -15 -1 -8 -20 6 -20
6 -1 -16 17 -19 17 -21 3 -15 -13 5 -16 2 -11 -10 3 -9 11 -13 18 -9 6 3 6 1
-1 -8 -7 -7 -13 -21 -13 -32 0 -12 4 -16 13 -11 6 4 9 4 5 -1 -4 -4 -2 -15 4
-23 13 -15 21 -49 10 -37 -4 4 -7 10 -7 13 0 13 -16 32 -27 32 -7 0 -7 -4 0
-13 6 -7 9 -33 8 -57 -2 -32 2 -49 13 -57 13 -11 13 -12 1 -8 -12 4 -15 -3
-13 -37 1 -24 2 -52 2 -62 1 -17 3 -17 22 5 19 22 19 24 3 36 -15 11 -14 12 4
10 11 0 19 -4 16 -8 -2 -4 0 -10 5 -13 13 -8 21 20 10 31 -6 6 -3 15 8 24 16
13 17 12 5 -2 -10 -14 -10 -18 3 -23 9 -3 15 0 15 9 0 7 5 17 12 21 7 5 8 3 3
-6 -5 -9 -4 -11 3 -6 7 4 12 14 12 22 0 8 5 12 10 9 13 -8 13 18 0 31 -7 7 -6
11 4 11 8 0 13 -4 10 -8 -2 -4 0 -10 4 -13 5 -3 26 12 46 34 22 24 42 38 49
33 7 -4 6 1 -2 10 -12 15 -12 17 2 12 8 -4 18 -1 23 6 5 8 3 10 -7 4 -8 -4 -5
1 6 12 11 11 23 19 28 16 4 -2 7 1 7 8 0 7 2 10 6 7 3 -3 24 13 48 36 33 32
40 44 32 55 -9 12 -7 12 12 2 18 -9 22 -9 20 1 -2 7 3 12 10 10 8 -1 11 2 8 7
-4 5 3 13 15 16 17 6 19 9 8 16 -10 6 -8 9 10 9 20 0 22 2 11 15 -11 13 -10
14 2 10 21 -8 83 49 73 66 -5 7 -4 10 3 6 13 -9 44 2 37 13 -3 5 4 11 15 15
11 4 18 11 15 16 -4 5 -2 9 4 9 6 0 28 18 51 41 22 22 40 37 40 32 0 -4 9 6
20 22 11 17 20 27 20 23 0 -4 13 5 29 20 15 15 26 30 24 34 -2 4 4 5 13 1 11
-4 15 -3 10 5 -3 6 3 13 14 17 11 4 18 11 15 16 -4 5 -2 9 4 9 19 0 63 49 55
61 -4 8 -3 9 4 5 6 -4 23 4 38 16 47 41 109 102 95 93 -10 -5 -12 -4 -7 4 4 6
11 9 16 6 12 -8 52 33 45 45 -3 6 1 7 9 4 11 -4 16 0 16 11 0 9 5 13 10 10 6
-3 10 -2 10 3 0 5 16 20 35 33 19 13 35 30 35 37 0 6 7 12 16 12 12 0 15 6 11
21 -4 16 -3 19 5 11 9 -9 23 0 55 33 24 25 43 43 43 40 0 -3 26 21 58 55 32
33 61 60 65 60 10 0 57 50 57 60 0 6 3 9 8 8 12 -4 52 26 52 39 0 7 4 13 9 13
5 0 32 23 60 51 28 28 51 48 51 46 0 -3 24 19 54 48 30 29 57 50 60 47 3 -3 6
2 6 11 0 9 4 17 9 17 9 0 54 40 180 160 27 25 87 81 136 125 48 44 105 96 126
115 21 19 49 44 62 55 14 11 23 23 21 27 -3 4 4 9 14 12 11 4 30 19 44 34 14
15 63 61 108 102 46 41 112 102 147 136 34 33 64 59 66 58 2 -2 3 181 4 406 0
298 -3 410 -11 410 -6 0 -37 -24 -67 -52z m-1692 -1923 c0 -8 -4 -12 -9 -9 -5
3 -6 10 -3 15 9 13 12 11 12 -6z m158 -44 c3 -5 2 -12 -3 -15 -5 -3 -9 1 -9 9
0 17 3 19 12 6z m-238 -76 c0 -8 -4 -12 -9 -9 -5 3 -6 10 -3 15 9 13 12 11 12
-6z m-43 -33 c3 -5 -1 -9 -9 -9 -8 0 -12 4 -9 9 3 4 7 8 9 8 2 0 6 -4 9 -8z
m160 -80 c3 -5 -1 -9 -9 -9 -8 0 -12 4 -9 9 3 4 7 8 9 8 2 0 6 -4 9 -8z m-564
-78 c0 -8 -19 -13 -24 -6 -3 5 1 9 9 9 8 0 15 -2 15 -3z m130 -4 c0 -5 -5 -10
-11 -10 -5 0 -7 5 -4 10 3 6 8 10 11 10 2 0 4 -4 4 -10z m-220 -16 c0 -8 -19
-13 -24 -6 -3 5 1 9 9 9 8 0 15 -2 15 -3z m115 -32 c-3 -3 -11 0 -18 7 -9 10
-8 11 6 5 10 -3 15 -9 12 -12z m-205 4 c0 -2 -8 -10 -17 -17 -16 -13 -17 -12
-4 4 13 16 21 21 21 13z m46 -32 c1 -9 0 -13 -4 -10 -3 4 -7 14 -8 22 -1 9 0
13 4 10 3 -4 7 -14 8 -22z m259 -13 c3 -5 2 -12 -3 -15 -5 -3 -9 1 -9 9 0 17
3 19 12 6z m-300 -11 c3 -5 1 -10 -4 -10 -6 0 -11 5 -11 10 0 6 2 10 4 10 3 0
8 -4 11 -10z m222 -5 c0 -8 -4 -12 -9 -9 -5 3 -6 10 -3 15 9 13 12 11 12 -6z
m-100 -30 c0 -8 -4 -12 -9 -9 -5 3 -6 10 -3 15 9 13 12 11 12 -6z m-177 -19
c0 -3 -4 -8 -10 -11 -5 -3 -10 -1 -10 4 0 6 5 11 10 11 6 0 10 -2 10 -4z m216
-11 c-1 -8 -5 -17 -8 -21 -5 -4 -4 16 1 34 3 9 9 -1 7 -13z m64 5 c0 -5 -2
-10 -4 -10 -3 0 -8 5 -11 10 -3 6 -1 10 4 10 6 0 11 -4 11 -10z m-185 -20 c3
-5 1 -10 -4 -10 -6 0 -11 5 -11 10 0 6 2 10 4 10 3 0 8 -4 11 -10z m-98 -15
c0 -8 -4 -15 -9 -15 -10 0 -11 14 -1 23 9 10 10 9 10 -8z m37 -11 c3 -8 2 -12
-4 -9 -6 3 -10 10 -10 16 0 14 7 11 14 -7z m241 6 c3 -5 1 -10 -4 -10 -6 0
-11 5 -11 10 0 6 2 10 4 10 3 0 8 -4 11 -10z m-95 -14 c0 -3 -4 -8 -10 -11 -5
-3 -10 -1 -10 4 0 6 5 11 10 11 6 0 10 -2 10 -4z m36 -11 c-1 -8 -5 -17 -8
-21 -5 -4 -4 16 1 34 3 9 9 -1 7 -13z m-103 -10 c-3 -9 -8 -14 -10 -11 -3 3
-2 9 2 15 9 16 15 13 8 -4z m-119 -3 c3 -5 -1 -9 -9 -9 -8 0 -12 4 -9 9 3 4 7
8 9 8 2 0 6 -4 9 -8z m86 2 c0 -8 -19 -13 -24 -6 -3 5 1 9 9 9 8 0 15 -2 15
-3z m480 0 c0 -8 -19 -13 -24 -6 -3 5 1 9 9 9 8 0 15 -2 15 -3z m-559 -41 c13
-16 12 -17 -3 -4 -10 7 -18 15 -18 17 0 8 8 3 21 -13z m119 3 c0 -2 -7 -7 -16
-10 -8 -3 -12 -2 -9 4 6 10 25 14 25 6z m136 -11 c-1 -8 -5 -17 -8 -21 -5 -4
-4 16 1 34 3 9 9 -1 7 -13z m-442 -33 c3 -5 -1 -9 -9 -9 -8 0 -12 4 -9 9 3 4
7 8 9 8 2 0 6 -4 9 -8z m76 2 c0 -8 -19 -13 -24 -6 -3 5 1 9 9 9 8 0 15 -2 15
-3z m310 -3 c0 -6 -4 -12 -8 -15 -5 -3 -9 1 -9 9 0 8 4 15 9 15 4 0 8 -4 8 -9z
m-409 -28 c13 -16 12 -17 -3 -4 -10 7 -18 15 -18 17 0 8 8 3 21 -13z m224 7
c3 -5 1 -10 -4 -10 -6 0 -11 5 -11 10 0 6 2 10 4 10 3 0 8 -4 11 -10z m285 6
c0 -3 -4 -8 -10 -11 -5 -3 -10 -1 -10 4 0 6 5 11 10 11 6 0 10 -2 10 -4z m40
-6 c0 -5 -5 -10 -11 -10 -5 0 -7 5 -4 10 3 6 8 10 11 10 2 0 4 -4 4 -10z
m-269 -33 c-10 -9 -11 -8 -5 6 3 10 9 15 12 12 3 -3 0 -11 -7 -18z m345 8 c-1
-8 -5 -17 -8 -21 -5 -4 -4 16 1 34 3 9 9 -1 7 -13z m-136 -10 c0 -7 -30 -13
-34 -7 -3 4 4 9 15 9 10 1 19 0 19 -2z m-350 -19 c0 -2 -8 -10 -17 -17 -16
-13 -17 -12 -4 4 13 16 21 21 21 13z m330 -20 c0 -3 -4 -8 -10 -11 -5 -3 -10
-1 -10 4 0 6 5 11 10 11 6 0 10 -2 10 -4z m37 -11 c0 -8 -4 -12 -9 -9 -5 3 -6
10 -3 15 9 13 12 11 12 -6z m118 6 c3 -5 2 -12 -3 -15 -5 -3 -9 1 -9 9 0 17 3
19 12 6z m-458 -14 c0 -8 -6 -14 -14 -14 -9 0 -10 4 -2 14 6 7 12 13 14 13 1
0 2 -6 2 -13z m34 -14 c13 -16 12 -17 -3 -4 -17 13 -22 21 -14 21 2 0 10 -8
17 -17z m309 -13 c0 -5 -2 -10 -4 -10 -3 0 -8 5 -11 10 -3 6 -1 10 4 10 6 0
11 -4 11 -10z m-500 -39 c0 -6 -4 -12 -8 -15 -5 -3 -9 1 -9 9 0 8 4 15 9 15 4
0 8 -4 8 -9z m360 -5 c0 -2 -8 -10 -17 -17 -16 -13 -17 -12 -4 4 13 16 21 21
21 13z m-296 -15 c-8 -8 -34 -10 -38 -2 -3 4 6 7 19 7 14 0 22 -2 19 -5z m356
-21 c0 -5 -5 -10 -11 -10 -5 0 -7 5 -4 10 3 6 8 10 11 10 2 0 4 -4 4 -10z
m-423 -65 c0 -8 -4 -12 -9 -9 -5 3 -6 10 -3 15 9 13 12 11 12 -6z m153 9 c0
-8 -19 -13 -24 -6 -3 5 1 9 9 9 8 0 15 -2 15 -3z m24 -10 c3 -8 2 -12 -4 -9
-6 3 -10 10 -10 16 0 14 7 11 14 -7z m-74 -18 c0 -2 -6 -9 -14 -15 -11 -9 -16
-9 -22 0 -4 7 -3 9 4 5 6 -3 13 -2 17 4 6 10 15 14 15 6z m61 -10 c7 4 9 3 5
-4 -9 -15 -43 -11 -43 5 0 9 4 10 13 2 7 -6 19 -7 25 -3z m-161 0 c0 -2 -7 -7
-16 -10 -8 -3 -12 -2 -9 4 6 10 25 14 25 6z m245 -6 c-3 -5 -12 -10 -18 -10
-7 0 -6 4 3 10 19 12 23 12 15 0z m-195 -14 c0 -2 -8 -10 -17 -17 -16 -13 -17
-12 -4 4 13 16 21 21 21 13z m25 -15 c3 -5 2 -12 -3 -15 -5 -3 -9 1 -9 9 0 17
3 19 12 6z m85 5 c0 -2 -6 -9 -14 -15 -11 -9 -16 -9 -22 0 -4 7 -3 9 4 5 6 -3
13 -2 17 4 6 10 15 14 15 6z m81 -33 c13 -16 12 -17 -3 -4 -17 13 -22 21 -14
21 2 0 10 -8 17 -17z m-124 -10 c0 -9 -4 -10 -14 -2 -7 6 -13 12 -13 14 0 1 6
2 13 2 8 0 14 -6 14 -14z m163 7 c0 -5 -2 -10 -4 -10 -3 0 -8 5 -11 10 -3 6
-1 10 4 10 6 0 11 -4 11 -10z m-60 -19 c0 -6 -4 -12 -8 -15 -5 -3 -9 1 -9 9 0
8 4 15 9 15 4 0 8 -4 8 -9z m-67 -16 c-3 -9 -8 -14 -10 -11 -3 3 -2 9 2 15 9
16 15 13 8 -4z m142 6 c3 -5 2 -12 -3 -15 -5 -3 -9 1 -9 9 0 17 3 19 12 6z
m-115 -15 c0 -2 -8 -10 -17 -17 -16 -13 -17 -12 -4 4 13 16 21 21 21 13z m-49
-23 c12 -16 12 -17 -2 -6 -9 7 -20 9 -24 5 -5 -4 -5 -1 -1 6 9 16 11 15 27 -5z
m-50 -56 c-6 -8 -7 -18 -3 -22 4 -5 1 -5 -6 -1 -10 6 -10 11 -1 22 6 8 14 14
16 14 3 0 0 -6 -6 -13z m83 -15 c3 -5 -1 -9 -9 -9 -8 0 -12 4 -9 9 3 4 7 8 9
8 2 0 6 -4 9 -8z m-129 -20 c-3 -3 0 -11 6 -19 17 -20 5 -16 -14 5 -15 16 -15
19 -2 19 8 0 13 -3 10 -5z m40 -10 c-3 -3 -11 0 -18 7 -9 10 -8 11 6 5 10 -3
15 -9 12 -12z m-65 -28 c0 -8 -19 -13 -24 -6 -3 5 1 9 9 9 8 0 15 -2 15 -3z
m62 -19 c2 3 5 -2 5 -10 0 -10 -4 -12 -13 -4 -8 7 -14 6 -17 -3 -3 -7 -4 -3
-4 9 1 15 5 19 13 13 6 -6 13 -8 16 -5z"/>
<path d="M1388 5388 c6 -8 8 -18 4 -22 -11 -12 -9 -96 3 -96 5 0 5 -4 -2 -8
-12 -8 -12 -59 0 -78 3 -6 3 -14 -1 -18 -10 -11 -9 -326 1 -319 5 3 4 -4 -2
-15 -7 -14 -8 -23 -1 -27 6 -4 7 -12 3 -18 -4 -6 -7 -60 -8 -120 l0 -108 107
-104 c59 -58 113 -105 118 -105 6 0 9 -4 6 -9 -3 -5 1 -14 9 -21 12 -10 15
-10 16 1 1 8 4 3 8 -11 4 -14 13 -24 20 -22 6 1 19 -11 29 -28 9 -16 23 -30
30 -30 7 0 10 -4 7 -10 -3 -5 1 -10 10 -10 9 0 13 -4 10 -10 -3 -5 1 -10 10
-10 9 0 14 -4 11 -9 -3 -5 6 -12 21 -16 19 -4 23 -9 14 -14 -10 -6 -8 -10 6
-16 10 -5 22 -7 26 -6 5 1 5 -4 1 -10 -5 -9 -2 -10 11 -5 15 5 16 4 5 -9 -7
-8 -8 -15 -3 -15 17 0 53 -37 45 -45 -4 -5 1 -5 11 -2 11 4 17 1 17 -9 0 -8 7
-17 15 -20 8 -4 12 -10 9 -15 -3 -5 -1 -9 5 -9 14 0 66 -53 63 -64 -2 -5 6 -6
17 -3 11 3 20 2 19 -2 -2 -20 4 -30 22 -36 11 -4 18 -10 15 -15 -3 -5 6 -12
21 -16 19 -5 22 -9 12 -15 -10 -7 -10 -9 0 -9 7 0 10 -4 7 -10 -4 -6 1 -7 11
-3 12 4 15 3 10 -5 -5 -8 -1 -10 10 -5 12 4 15 3 10 -5 -4 -6 3 -19 15 -29 12
-10 27 -23 33 -30 8 -8 16 -7 31 5 18 16 19 16 7 1 -21 -27 -1 -72 27 -61 9 3
12 1 7 -6 -4 -7 -2 -12 4 -12 6 0 8 -4 5 -10 -3 -5 -2 -10 4 -10 13 0 78 -60
66 -60 -6 0 -2 -5 8 -11 9 -5 22 -7 27 -4 6 3 7 -1 4 -9 -3 -9 -1 -16 6 -16 6
0 9 -4 6 -9 -4 -5 2 -8 11 -7 9 2 19 8 21 14 2 7 8 10 12 7 5 -3 11 -1 15 5 3
5 1 10 -4 10 -6 0 -11 4 -11 9 0 6 9 8 20 6 11 -2 25 4 32 14 7 10 32 34 55
54 23 19 39 37 36 41 -4 3 -1 6 6 6 7 0 9 4 6 10 -3 6 1 7 9 4 11 -4 16 0 16
11 0 10 4 13 13 9 8 -5 7 -2 -2 9 -12 15 -12 17 1 12 9 -4 30 7 52 28 19 19
38 32 41 29 3 -3 6 0 6 6 3 27 4 31 13 39 5 5 6 3 2 -4 -4 -7 -2 -13 3 -13 6
0 11 7 11 15 0 8 4 15 10 15 5 0 23 14 38 30 16 17 34 30 41 30 6 0 10 6 9 13
-2 6 3 11 10 9 6 -1 12 2 12 8 0 5 -4 10 -10 10 -5 0 -10 6 -10 13 0 14 -35
47 -51 47 -5 0 -8 4 -5 9 8 12 -36 22 -49 11 -8 -7 -12 -5 -12 4 0 9 9 13 25
11 24 -2 24 -2 -4 21 -16 13 -35 23 -41 24 -7 0 -13 5 -13 11 0 5 5 7 12 3 7
-4 8 -3 4 4 -4 7 -14 12 -22 12 -9 0 -12 5 -8 12 4 7 3 8 -4 4 -7 -4 -17 3
-23 18 -7 14 -16 23 -21 20 -5 -3 -12 4 -15 16 -4 16 -8 18 -14 8 -6 -9 -9 -9
-9 -1 0 6 -14 27 -30 45 -17 18 -29 26 -27 18 1 -8 -1 -5 -7 8 -5 12 -14 22
-19 22 -12 0 -47 40 -47 54 0 6 -5 4 -10 -4 -7 -11 -10 -12 -10 -2 0 8 -32 44
-71 80 -40 37 -95 91 -124 120 -29 28 -57 52 -64 52 -7 0 -9 5 -6 10 3 6 2 10
-2 10 -5 0 -56 46 -114 103 -59 56 -166 158 -239 227 -73 69 -163 154 -201
190 -172 165 -261 245 -277 249 -13 3 -14 1 -4 -11z m1057 -1147 c3 -5 2 -12
-3 -15 -5 -3 -9 1 -9 9 0 17 3 19 12 6z m45 -1 c0 -5 -5 -10 -11 -10 -5 0 -7
5 -4 10 3 6 8 10 11 10 2 0 4 -4 4 -10z m64 2 c3 -5 -1 -9 -9 -9 -8 0 -12 4
-9 9 3 4 7 8 9 8 2 0 6 -4 9 -8z m36 4 c0 -3 -4 -8 -10 -11 -5 -3 -10 -1 -10
4 0 6 5 11 10 11 6 0 10 -2 10 -4z m-123 -51 c0 -8 -4 -12 -9 -9 -5 3 -6 10
-3 15 9 13 12 11 12 -6z m123 5 c0 -5 -5 -10 -11 -10 -5 0 -7 5 -4 10 3 6 8
10 11 10 2 0 4 -4 4 -10z m-245 -29 c3 -5 2 -12 -3 -15 -5 -3 -9 1 -9 9 0 17
3 19 12 6z m200 -11 c3 -5 1 -10 -4 -10 -6 0 -11 5 -11 10 0 6 2 10 4 10 3 0
8 -4 11 -10z m40 0 c3 -5 1 -10 -4 -10 -6 0 -11 5 -11 10 0 6 2 10 4 10 3 0 8
-4 11 -10z m-239 -45 c-1 -8 -5 -17 -8 -21 -5 -4 -4 16 1 34 3 9 9 -1 7 -13z
m-36 -29 c0 -3 -4 -8 -10 -11 -5 -3 -10 -1 -10 4 0 6 5 11 10 11 6 0 10 -2 10
-4z m80 -6 c0 -5 -5 -10 -11 -10 -5 0 -7 5 -4 10 3 6 8 10 11 10 2 0 4 -4 4
-10z m296 -26 c0 -13 -2 -22 -5 -19 -3 3 -6 17 -7 31 0 13 2 22 5 19 3 -3 6
-17 7 -31z m41 19 c0 -9 -4 -10 -14 -2 -7 6 -13 12 -13 14 0 1 6 2 13 2 8 0
14 -6 14 -14z m-621 -29 c1 -9 0 -13 -4 -10 -3 4 -7 14 -8 22 -1 9 0 13 4 10
3 -4 7 -14 8 -22z m515 3 c-10 -9 -11 -8 -5 6 3 10 9 15 12 12 3 -3 0 -11 -7
-18z m-651 -7 c0 -5 -2 -10 -4 -10 -3 0 -8 5 -11 10 -3 6 -1 10 4 10 6 0 11
-4 11 -10z m216 -16 c1 -9 0 -13 -4 -10 -3 4 -7 14 -8 22 -1 9 0 13 4 10 3 -4
7 -14 8 -22z m44 22 c0 -3 -4 -8 -10 -11 -5 -3 -10 -1 -10 4 0 6 5 11 10 11 6
0 10 -2 10 -4z m520 -10 c0 -2 -8 -10 -17 -17 -16 -13 -17 -12 -4 4 13 16 21
21 21 13z m-183 -13 c-4 -3 -1 -13 6 -22 11 -14 10 -14 -5 -2 -16 12 -16 31
-1 31 4 0 3 -3 0 -7z m38 -2 c3 -5 2 -12 -3 -15 -5 -3 -9 1 -9 9 0 17 3 19 12
6z m191 2 c-2 -3 -6 -3 -9 -1 -3 2 -15 -6 -28 -17 l-24 -20 18 21 c9 11 24 21
32 21 8 0 13 -2 11 -4z m21 -15 c-3 -8 -6 -5 -6 6 -1 11 2 17 5 13 3 -3 4 -12
1 -19z m34 -5 c13 -16 12 -17 -3 -4 -17 13 -22 21 -14 21 2 0 10 -8 17 -17z
m-846 -11 c-3 -3 -11 0 -18 7 -9 10 -8 11 6 5 10 -3 15 -9 12 -12z m65 8 c0
-5 -5 -10 -11 -10 -5 0 -7 5 -4 10 3 6 8 10 11 10 2 0 4 -4 4 -10z m35 0 c3
-5 1 -10 -4 -10 -6 0 -11 5 -11 10 0 6 2 10 4 10 3 0 8 -4 11 -10z m540 -27
c-1 -21 3 -45 9 -53 9 -13 8 -13 -5 -3 -15 12 -20 93 -6 93 2 0 3 -17 2 -37z
m-218 12 c0 -8 -4 -15 -9 -15 -10 0 -11 14 -1 23 9 10 10 9 10 -8z m300 0 c0
-8 -4 -15 -9 -15 -10 0 -11 14 -1 23 9 10 10 9 10 -8z m60 -4 c-1 -15 -4 -17
-14 -9 -15 12 -17 22 -3 13 6 -3 10 -1 10 4 0 6 2 11 4 11 3 0 4 -9 3 -19z
m53 4 c0 -2 -6 -8 -13 -14 -10 -8 -14 -7 -14 2 0 8 6 14 14 14 7 0 13 -1 13
-2z m-229 -22 c13 -16 12 -17 -3 -4 -10 7 -18 15 -18 17 0 8 8 3 21 -13z
m-421 -3 c0 -5 -5 -10 -11 -10 -5 0 -7 5 -4 10 3 6 8 10 11 10 2 0 4 -4 4 -10z
m137 -5 c0 -8 -4 -12 -9 -9 -5 3 -6 10 -3 15 9 13 12 11 12 -6z m412 -11 c-7
-9 -14 -23 -15 -31 -2 -8 -5 -18 -8 -21 -4 -3 -5 4 -3 15 3 20 24 53 34 53 3
0 -1 -7 -8 -16z m-369 2 c0 -3 -4 -8 -10 -11 -5 -3 -10 -1 -10 4 0 6 5 11 10
11 6 0 10 -2 10 -4z m-85 -15 c3 -5 2 -12 -3 -15 -5 -3 -9 1 -9 9 0 17 3 19
12 6z m45 -9 c0 -5 -7 -9 -15 -9 -8 0 -12 4 -9 9 3 4 9 8 15 8 5 0 9 -4 9 -8z
m118 -11 c-7 -9 -13 -18 -15 -20 -1 -2 -1 5 0 16 0 11 7 20 14 20 10 0 10 -4
1 -16z m77 11 c-3 -3 0 -11 6 -19 17 -20 5 -16 -14 5 -15 16 -15 19 -2 19 8 0
13 -3 10 -5z m170 -2 c-3 -5 -12 -10 -18 -10 -7 0 -6 4 3 10 19 12 23 12 15 0z
m-84 -23 c-10 -9 -11 -8 -5 6 3 10 9 15 12 12 3 -3 0 -11 -7 -18z m-461 3 c0
-5 -5 -10 -11 -10 -5 0 -7 5 -4 10 3 6 8 10 11 10 2 0 4 -4 4 -10z m218 -11
c9 -12 9 -16 -1 -16 -7 0 -14 9 -14 20 -1 11 -1 18 0 16 2 -2 8 -11 15 -20z
m386 13 c3 -5 -1 -9 -9 -9 -8 0 -12 4 -9 9 3 4 7 8 9 8 2 0 6 -4 9 -8z m-345
-15 c8 -10 7 -14 -2 -14 -8 0 -14 6 -14 14 0 7 1 13 2 13 2 0 8 -6 14 -13z
m246 -6 c-9 -8 -36 -10 -30 -2 2 4 11 8 20 8 8 0 13 -3 10 -6z m40 -1 c3 -6
-1 -7 -9 -4 -18 7 -21 14 -7 14 6 0 13 -4 16 -10z m72 -7 c-14 -14 -19 -15
-29 -4 -11 10 -10 11 3 6 10 -4 20 -2 24 4 3 6 9 11 13 11 3 0 -1 -8 -11 -17z
m-285 -8 c2 3 5 -2 5 -10 0 -19 0 -19 -23 7 -12 14 -13 18 -3 10 9 -6 18 -10
21 -7z m82 2 c4 4 4 -1 0 -11 -6 -15 -4 -17 7 -11 8 5 11 4 6 0 -11 -12 -38
-15 -31 -4 3 6 0 18 -8 27 -11 15 -11 15 3 5 9 -7 19 -10 23 -6z m-337 -42 c0
-8 -3 -13 -5 -10 -3 3 -12 -1 -21 -7 -10 -8 -9 -4 3 10 23 26 23 26 23 7z
m240 2 c0 -8 -6 -14 -14 -14 -9 0 -10 4 -2 14 6 7 12 13 14 13 1 0 2 -6 2 -13z
m-107 -7 c8 -5 11 -10 5 -10 -5 0 -17 5 -25 10 -8 5 -10 10 -5 10 6 0 17 -5
25 -10z m227 -12 c-3 -8 -6 -5 -6 6 -1 11 2 17 5 13 3 -3 4 -12 1 -19z m143
14 c0 -5 -7 -17 -16 -28 -15 -18 -15 -18 -5 2 6 12 7 24 4 28 -3 3 -1 6 5 6 7
0 12 -4 12 -8z m-320 -16 c0 -2 -7 -7 -16 -10 -8 -3 -12 -2 -9 4 6 10 25 14
25 6z m35 -24 c-3 -3 1 -12 8 -21 10 -14 10 -14 -5 -3 -9 8 -21 11 -26 8 -5
-3 -9 1 -9 8 0 9 7 12 16 8 14 -5 14 -4 1 14 -14 18 -14 18 3 5 9 -8 15 -16
12 -19z m121 -8 c1 -9 -1 -13 -4 -9 -4 4 -7 10 -7 13 0 4 -4 14 -9 22 -7 12
-6 13 4 3 8 -7 15 -20 16 -29z m84 32 c0 -2 -7 -7 -16 -10 -8 -3 -12 -2 -9 4
6 10 25 14 25 6z m29 -10 c9 -11 9 -16 -1 -22 -7 -4 -10 -4 -6 1 4 4 3 14 -3
22 -6 7 -9 13 -6 13 2 0 10 -6 16 -14z m-453 -16 c0 -12 -4 -16 -9 -11 -5 5
-6 14 -3 20 10 15 12 14 12 -9z m248 4 c3 -8 2 -12 -4 -9 -6 3 -10 10 -10 16
0 14 7 11 14 -7z m-104 -8 c0 -2 -8 -10 -17 -17 -16 -13 -17 -12 -4 4 13 16
21 21 21 13z m125 -16 c-3 -5 -12 -10 -18 -10 -7 0 -6 4 3 10 19 12 23 12 15
0z m-108 -19 c-1 -15 -4 -17 -14 -9 -15 12 -17 22 -3 13 6 -3 10 -1 10 4 0 6
2 11 4 11 3 0 4 -9 3 -19z m150 -3 c-3 -8 -6 -5 -6 6 -1 11 2 17 5 13 3 -3 4
-12 1 -19z m73 -23 c0 -5 -5 -3 -10 5 -5 8 -10 20 -10 25 0 6 5 3 10 -5 5 -8
10 -19 10 -25z m-264 -15 c0 -12 -4 -16 -9 -11 -5 5 -6 14 -3 20 10 15 12 14
12 -9z m72 -15 c-3 -3 -9 2 -12 12 -6 14 -5 15 5 6 7 -7 10 -15 7 -18z m33 -2
c13 -16 12 -17 -3 -4 -10 7 -18 15 -18 17 0 8 8 3 21 -13z m77 -10 c-12 -15
-22 -18 -14 -4 4 5 0 11 -6 14 -7 3 -3 4 9 4 17 -1 19 -4 11 -14z m-142 -12
c0 -15 -4 -17 -22 -11 -12 5 -24 6 -27 4 -3 -3 -8 -1 -11 5 -4 6 3 8 18 5 14
-2 28 0 31 6 9 14 11 13 11 -9z m204 15 c0 -2 -8 -10 -17 -17 -16 -13 -17 -12
-4 4 13 16 21 21 21 13z m-150 -11 c0 -2 -6 -8 -13 -14 -10 -8 -14 -7 -14 2 0
8 6 14 14 14 7 0 13 -1 13 -2z m54 -3 c3 -5 -1 -9 -9 -9 -8 0 -15 4 -15 9 0 4
4 8 9 8 6 0 12 -4 15 -8z m-89 -40 c-3 -3 0 -10 5 -17 7 -8 5 -12 -5 -12 -8 0
-13 3 -10 5 3 3 0 10 -5 17 -7 8 -5 12 5 12 8 0 13 -3 10 -5z m125 3 c0 -2
-10 -10 -22 -16 -21 -11 -22 -11 -9 4 13 16 31 23 31 12z m-82 -70 c-3 -3 -9
2 -12 12 -6 14 -5 15 5 6 7 -7 10 -15 7 -18z"/>
<path d="M3534 4398 c-5 -7 -2 -9 7 -4 8 4 6 1 -3 -7 -14 -11 -15 -16 -5 -27
10 -10 8 -11 -8 -2 -16 9 -26 4 -62 -34 -24 -24 -43 -41 -43 -38 0 4 -16 -11
-36 -32 -20 -22 -40 -38 -44 -37 -5 2 -7 -4 -3 -13 3 -8 1 -14 -4 -12 -16 5
-90 -76 -88 -95 2 -9 -1 -15 -6 -11 -5 3 -6 10 -3 16 4 6 1 8 -7 6 -8 -3 -13
-11 -11 -17 1 -6 -3 -11 -9 -11 -18 0 -118 -103 -112 -114 4 -6 -2 -4 -12 4
-11 9 -16 10 -11 3 4 -7 2 -13 -3 -13 -6 0 -11 -7 -11 -16 0 -8 -4 -12 -10 -9
-5 3 -10 2 -10 -3 0 -5 -10 -12 -21 -15 -15 -4 -20 -11 -15 -22 3 -9 2 -13 -4
-10 -6 3 -13 -1 -16 -9 -3 -9 -12 -16 -19 -16 -7 0 -18 -12 -23 -27 -6 -16
-11 -22 -11 -15 -1 7 -6 10 -11 7 -6 -4 -8 -11 -5 -16 6 -8 -8 -13 -27 -10 -5
0 -8 -3 -8 -8 0 -6 -11 -22 -25 -37 -14 -15 -25 -24 -25 -21 0 3 -16 -9 -35
-25 -19 -17 -32 -36 -28 -41 3 -6 1 -7 -5 -3 -6 3 -19 -5 -30 -19 -11 -13 -22
-21 -26 -18 -3 3 -6 -1 -6 -10 0 -17 -38 -43 -54 -39 -5 2 -3 -5 5 -14 8 -10
9 -15 3 -11 -6 4 -22 -2 -34 -13 -13 -11 -27 -20 -32 -20 -5 0 -6 -5 -3 -10 3
-6 -6 -15 -20 -20 -18 -7 -25 -15 -21 -25 3 -8 2 -14 -2 -14 -21 3 -32 -3 -32
-18 0 -9 -3 -13 -7 -10 -3 4 -13 -2 -20 -13 -8 -11 -19 -18 -24 -14 -5 3 -8 2
-7 -3 2 -4 -7 -18 -20 -31 -12 -12 -22 -20 -22 -17 0 2 -25 -20 -56 -50 -31
-30 -60 -55 -64 -55 -5 0 -7 -9 -5 -19 2 -13 -1 -18 -10 -15 -13 6 -75 -48
-75 -65 0 -5 -5 -13 -12 -17 -7 -5 -9 -2 -4 7 4 8 -4 2 -18 -13 -14 -16 -29
-28 -34 -28 -11 0 -26 -30 -23 -43 1 -5 -3 -6 -8 -3 -5 4 -35 -18 -65 -49 -31
-30 -56 -53 -56 -51 0 3 -36 -30 -80 -73 -44 -42 -80 -75 -80 -73 0 3 -10 -7
-23 -21 -12 -15 -28 -27 -35 -27 -7 0 -11 -3 -9 -7 2 -5 -16 -26 -40 -49 -24
-23 -43 -39 -43 -36 0 2 -20 -16 -44 -41 -24 -25 -46 -44 -49 -41 -3 3 -8 -4
-12 -15 -3 -12 -10 -21 -15 -21 -5 0 -27 -17 -48 -37 -21 -21 -90 -85 -152
-143 -62 -58 -132 -124 -157 -147 -24 -24 -46 -43 -48 -43 -2 0 -30 -26 -62
-57 -130 -127 -212 -201 -217 -195 -3 3 -6 1 -6 -4 0 -6 -9 -20 -21 -33 -21
-22 -21 -30 -21 -412 0 -214 2 -392 4 -395 5 -4 75 57 189 166 26 25 91 86
144 135 53 50 137 129 186 176 49 48 89 85 89 83 0 -2 32 28 70 66 39 39 72
70 74 70 2 0 33 28 69 63 62 60 113 108 362 342 65 61 154 145 198 188 45 42
85 77 89 77 4 0 8 8 8 17 0 9 3 14 6 10 4 -3 21 8 38 26 17 18 42 40 56 50 14
10 18 15 10 11 -8 -4 -1 6 15 22 17 16 32 29 33 27 2 -1 37 31 78 71 40 40 77
70 80 67 4 -3 4 2 1 12 -4 11 -3 16 3 12 6 -3 34 19 64 49 30 31 58 56 64 56
5 0 12 10 15 22 4 12 9 19 13 16 8 -9 33 14 27 25 -2 4 3 7 11 7 9 0 16 7 16
16 0 8 4 13 9 10 5 -3 12 1 15 10 4 9 9 14 12 11 9 -9 45 33 39 44 -4 5 -1 8
7 7 7 -2 12 3 10 10 -1 8 1 11 6 8 11 -6 73 49 65 58 -4 3 1 6 10 6 9 0 21 9
27 20 6 11 16 17 22 14 7 -4 8 -3 4 4 -4 7 -2 12 3 12 6 0 48 37 94 83 45 45
95 90 110 100 15 10 25 22 22 27 -4 6 -2 10 4 10 5 0 26 16 47 35 20 19 42 35
48 35 6 0 4 5 -4 10 -13 8 -12 10 3 10 10 0 20 7 23 15 4 8 10 13 14 10 5 -3
11 4 15 15 3 11 11 19 17 17 6 -1 13 4 16 12 3 9 0 11 -9 6 -8 -5 -11 -4 -6 1
5 5 13 10 18 10 5 1 14 2 19 3 6 0 10 8 10 17 0 8 4 13 9 9 12 -7 33 29 23 40
-4 5 -2 5 5 2 17 -11 42 3 36 19 -3 8 0 21 6 28 7 9 8 17 3 20 -6 3 -9 26 -7
51 1 27 -1 42 -7 39 -6 -4 -6 2 1 13 7 14 7 23 -1 31 -9 9 -8 12 2 12 13 0 13
2 0 10 -8 5 -10 10 -4 10 15 0 9 91 -7 101 -7 4 -17 5 -23 2 -5 -3 -6 -1 -2 6
4 6 12 9 17 6 14 -9 30 5 22 18 -10 16 -10 70 0 84 4 6 3 14 -4 19 -8 5 -9 3
-4 -6 5 -9 4 -11 -4 -6 -6 4 -8 13 -4 19 12 20 12 37 0 37 -7 0 -5 5 3 10 8 5
11 10 5 10 -5 0 -10 11 -10 24 0 13 4 21 10 18 6 -3 4 2 -4 11 -7 9 -10 17 -6
17 4 0 1 8 -6 17 -8 10 -9 14 -2 10 19 -12 23 7 8 36 -11 22 -11 25 2 20 12
-5 13 -2 6 13 -6 10 -8 31 -6 47 4 27 -10 37 -23 15z m-7 -75 c-4 -3 1 -16 10
-27 18 -21 18 -21 -4 -2 -20 16 -23 36 -6 36 4 0 3 -3 0 -7z m-26 -30 c13 -16
12 -17 -3 -4 -17 13 -22 21 -14 21 2 0 10 -8 17 -17z m24 -32 c-3 -2 1 -11 7
-20 11 -14 10 -14 -7 0 -11 9 -28 15 -37 14 -10 -2 -20 0 -22 4 -3 4 11 7 29
7 19 0 32 -2 30 -5z m-105 -16 c0 -2 -6 -8 -13 -14 -10 -8 -14 -7 -14 2 0 8 6
14 14 14 7 0 13 -1 13 -2z m11 -62 c13 -16 12 -17 -3 -4 -17 13 -22 21 -14 21
2 0 10 -8 17 -17z m59 -5 c0 -6 -3 -8 -7 -5 -3 4 -13 1 -22 -6 -14 -11 -14
-10 -2 6 15 20 31 22 31 5z m-80 -2 c0 -2 -8 -10 -17 -17 -16 -13 -17 -12 -4
4 13 16 21 21 21 13z m124 -14 c2 -4 -4 -8 -14 -8 -10 0 -16 4 -14 8 3 4 9 8
14 8 5 0 11 -4 14 -8z m-44 -27 c0 -2 -9 -3 -19 -2 -11 0 -18 5 -15 9 4 6 34
0 34 -7z m-80 -17 c0 -4 -4 -8 -9 -8 -6 0 -12 4 -15 8 -3 5 1 9 9 9 8 0 15 -4
15 -9z m100 -12 c0 -2 -7 -7 -16 -10 -8 -3 -12 -2 -9 4 6 10 25 14 25 6z
m-106 -47 c3 -2 -9 -5 -26 -6 -18 0 -26 2 -18 7 13 8 36 8 44 -1z m130 0 c3
-2 -15 -5 -39 -5 -24 0 -42 3 -40 6 5 8 72 7 79 -1z m-344 -23 c0 -2 -8 -10
-17 -17 -16 -13 -17 -12 -4 4 13 16 21 21 21 13z m53 -11 c-3 -9 -8 -14 -10
-11 -3 3 -2 9 2 15 9 16 15 13 8 -4z m307 11 c0 -2 -8 -10 -17 -17 -16 -13
-17 -12 -4 4 13 16 21 21 21 13z m-340 -16 c0 -5 -5 -10 -11 -10 -5 0 -7 5 -4
10 3 6 8 10 11 10 2 0 4 -4 4 -10z m300 1 c0 -6 -4 -12 -8 -15 -5 -3 -9 1 -9
9 0 8 4 15 9 15 4 0 8 -4 8 -9z m-300 -25 c0 -2 -8 -10 -17 -17 -16 -13 -17
-12 -4 4 13 16 21 21 21 13z m254 -14 c3 -5 -1 -9 -9 -9 -8 0 -12 4 -9 9 3 4
7 8 9 8 2 0 6 -4 9 -8z m-314 -62 c0 -5 -2 -10 -4 -10 -3 0 -8 5 -11 10 -3 6
-1 10 4 10 6 0 11 -4 11 -10z m420 -24 c0 -2 -8 -10 -17 -17 -16 -13 -17 -12
-4 4 13 16 21 21 21 13z m-500 -16 c0 -5 -2 -10 -4 -10 -3 0 -8 5 -11 10 -3 6
-1 10 4 10 6 0 11 -4 11 -10z m256 -26 c1 -9 0 -13 -4 -10 -3 4 -7 14 -8 22
-1 9 0 13 4 10 3 -4 7 -14 8 -22z m44 22 c0 -2 -8 -10 -17 -17 -16 -13 -17
-12 -4 4 13 16 21 21 21 13z m-343 -25 c0 -11 -5 -18 -9 -15 -4 3 -5 11 -1 19
7 21 12 19 10 -4z m273 15 c0 -2 -8 -10 -17 -17 -16 -13 -17 -12 -4 4 13 16
21 21 21 13z m-310 -26 c0 -5 -2 -10 -4 -10 -3 0 -8 5 -11 10 -3 6 -1 10 4 10
6 0 11 -4 11 -10z m115 0 c3 -5 1 -10 -4 -10 -6 0 -11 5 -11 10 0 6 2 10 4 10
3 0 8 -4 11 -10z m336 -27 c13 -16 12 -17 -3 -4 -17 13 -22 21 -14 21 2 0 10
-8 17 -17z m109 11 c0 -8 -19 -13 -24 -6 -3 5 1 9 9 9 8 0 15 -2 15 -3z m-440
-24 c0 -5 -5 -10 -11 -10 -5 0 -7 5 -4 10 3 6 8 10 11 10 2 0 4 -4 4 -10z
m330 -14 c0 -2 -8 -10 -17 -17 -16 -13 -17 -12 -4 4 13 16 21 21 21 13z m-130
-26 c0 -5 -2 -10 -4 -10 -3 0 -8 5 -11 10 -3 6 -1 10 4 10 6 0 11 -4 11 -10z
m-284 -25 c-1 -8 -5 -17 -8 -21 -5 -4 -4 16 1 34 3 9 9 -1 7 -13z m438 7 c3
-5 -1 -9 -9 -9 -8 0 -12 4 -9 9 3 4 7 8 9 8 2 0 6 -4 9 -8z m-534 -16 c0 -3
-4 -8 -10 -11 -5 -3 -10 -1 -10 4 0 6 5 11 10 11 6 0 10 -2 10 -4z m136 -22
c1 -9 0 -13 -4 -10 -3 4 -7 14 -8 22 -1 9 0 13 4 10 3 -4 7 -14 8 -22z m-96
-4 c0 -5 -5 -10 -11 -10 -5 0 -7 5 -4 10 3 6 8 10 11 10 2 0 4 -4 4 -10z m56
-36 c1 -9 0 -13 -4 -10 -3 4 -7 14 -8 22 -1 9 0 13 4 10 3 -4 7 -14 8 -22z
m204 22 c0 -3 -4 -8 -10 -11 -5 -3 -10 -1 -10 4 0 6 5 11 10 11 6 0 10 -2 10
-4z m160 -6 c0 -5 -5 -10 -11 -10 -5 0 -7 5 -4 10 3 6 8 10 11 10 2 0 4 -4 4
-10z m-284 -36 c1 -9 0 -13 -4 -10 -3 4 -7 14 -8 22 -1 9 0 13 4 10 3 -4 7
-14 8 -22z m40 11 c-1 -8 -5 -17 -8 -21 -5 -4 -4 16 1 34 3 9 9 -1 7 -13z
m335 -2 c13 -16 12 -17 -3 -4 -10 7 -18 15 -18 17 0 8 8 3 21 -13z m-556 -2
c3 -5 2 -12 -3 -15 -5 -3 -9 1 -9 9 0 17 3 19 12 6z m302 -6 c0 -8 -4 -12 -9
-9 -5 3 -6 10 -3 15 9 13 12 11 12 -6z m-243 -7 c-3 -4 -11 -5 -19 -1 -21 7
-19 12 4 10 11 0 18 -5 15 -9z m71 -18 c-3 -5 -12 -10 -18 -10 -7 0 -6 4 3 10
19 12 23 12 15 0z m51 -25 c-1 -8 -5 -17 -8 -21 -5 -4 -4 16 1 34 3 9 9 -1 7
-13z m38 -33 c3 -5 -1 -9 -9 -9 -8 0 -12 4 -9 9 3 4 7 8 9 8 2 0 6 -4 9 -8z
m166 4 c0 -3 -4 -8 -10 -11 -5 -3 -10 -1 -10 4 0 6 5 11 10 11 6 0 10 -2 10
-4z m-124 -31 c-1 -8 -5 -17 -8 -21 -5 -4 -4 16 1 34 3 9 9 -1 7 -13z m40 0
c-1 -8 -5 -17 -8 -21 -5 -4 -4 16 1 34 3 9 9 -1 7 -13z m62 -40 c-3 -3 -9 2
-12 12 -6 14 -5 15 5 6 7 -7 10 -15 7 -18z m-258 11 c0 -2 -7 -7 -16 -10 -8
-3 -12 -2 -9 4 6 10 25 14 25 6z m194 -64 c3 -5 -1 -9 -9 -9 -8 0 -12 4 -9 9
3 4 7 8 9 8 2 0 6 -4 9 -8z m42 -27 c-1 -8 -5 -17 -8 -21 -5 -4 -4 16 1 34 3
9 9 -1 7 -13z m-183 -10 c-3 -9 -8 -14 -10 -11 -3 3 -2 9 2 15 9 16 15 13 8
-4z m131 -23 c3 -5 -1 -9 -9 -9 -8 0 -12 4 -9 9 3 4 7 8 9 8 2 0 6 -4 9 -8z
m-560 -120 c3 -5 -1 -9 -9 -9 -8 0 -15 4 -15 9 0 4 4 8 9 8 6 0 12 -4 15 -8z
m120 -160 c3 -5 -1 -9 -9 -9 -8 0 -12 4 -9 9 3 4 7 8 9 8 2 0 6 -4 9 -8z m-10
-80 c3 -5 -1 -9 -9 -9 -8 0 -12 4 -9 9 3 4 7 8 9 8 2 0 6 -4 9 -8z m23 -47 c0
-8 -4 -12 -9 -9 -5 3 -6 10 -3 15 9 13 12 11 12 -6z"/>
<path d="M4458 3352 c-2 -4 -18 -19 -35 -34 -27 -22 -30 -27 -15 -31 10 -3 6
-5 -10 -6 -19 -1 -28 -6 -28 -17 0 -10 -5 -14 -16 -10 -8 3 -12 2 -9 -4 3 -6
1 -10 -5 -10 -6 0 -8 -4 -5 -10 3 -5 0 -10 -7 -10 -7 0 -38 -22 -68 -50 -29
-27 -66 -59 -81 -72 -28 -23 -40 -46 -17 -32 6 4 8 3 5 -4 -4 -5 -17 -8 -30
-4 -18 5 -20 3 -10 -9 10 -12 8 -15 -8 -16 -10 -1 -26 -9 -35 -18 -14 -14 -14
-18 -1 -39 13 -18 13 -23 2 -23 -8 0 -12 3 -10 7 2 3 0 12 -5 20 -7 12 -12 11
-30 -5 -11 -10 -18 -25 -16 -32 3 -7 1 -13 -4 -13 -6 0 -10 6 -10 13 0 8 -3 8
-9 -2 -6 -10 0 -22 20 -42 17 -16 34 -29 40 -29 6 0 8 -4 5 -9 -3 -5 1 -12 10
-15 8 -3 12 -10 9 -16 -3 -6 1 -7 9 -4 11 4 16 0 16 -12 0 -9 3 -14 7 -11 3 4
13 -2 20 -13 8 -11 18 -18 23 -15 4 3 10 -5 13 -17 5 -19 8 -20 23 -7 16 13
16 12 4 -10 -11 -21 -10 -23 3 -18 10 3 17 -1 20 -14 3 -10 10 -19 17 -19 6 0
8 6 4 13 -4 7 -3 8 2 4 5 -5 9 -16 9 -25 0 -9 6 -16 13 -14 6 1 11 -2 10 -7
-4 -11 58 -71 72 -71 6 0 9 -4 6 -8 -2 -4 11 -18 30 -31 18 -13 31 -27 29 -31
-3 -5 4 -11 15 -15 11 -3 20 -13 20 -21 0 -13 12 -19 33 -15 5 1 7 -2 4 -6 -5
-10 29 -43 37 -35 3 3 6 0 6 -6 0 -6 38 -49 85 -96 47 -46 85 -82 85 -80 0 3
6 -1 14 -8 8 -7 12 -16 10 -19 -2 -3 8 -12 21 -19 14 -7 27 -21 30 -31 4 -10
10 -18 15 -16 9 2 60 -53 60 -65 0 -5 4 -7 8 -5 5 1 41 -29 80 -68 39 -38 148
-144 242 -235 95 -91 220 -212 278 -269 59 -58 110 -104 115 -103 4 1 7 -2 7
-6 0 -12 35 -52 45 -52 5 0 16 -7 26 -16 16 -15 17 7 16 423 l-1 438 -93 92
c-51 51 -93 89 -93 85 -1 -4 -8 6 -16 21 -8 15 -19 25 -24 22 -6 -4 -10 -1
-10 6 0 12 -38 49 -51 49 -4 0 -11 9 -14 20 -3 11 -11 20 -16 20 -6 0 -32 22
-58 49 -27 28 -51 47 -55 44 -3 -4 -6 -1 -6 5 0 18 -32 52 -43 45 -6 -4 -8 1
-4 11 4 9 3 15 -1 12 -5 -3 -16 6 -26 19 -10 14 -22 22 -27 19 -5 -3 -9 1 -9
8 0 16 -88 94 -102 90 -5 -1 -7 1 -4 6 3 5 -6 19 -19 30 -14 12 -25 27 -25 33
0 8 -4 8 -14 0 -11 -9 -16 -9 -22 0 -4 8 -3 9 4 5 7 -4 12 -2 12 4 0 7 -9 14
-20 17 -11 3 -18 9 -15 13 3 4 -2 10 -10 14 -8 3 -15 12 -15 21 0 8 -7 15 -16
15 -9 0 -12 5 -8 13 4 6 4 9 -1 5 -4 -4 -19 7 -32 23 -14 17 -32 28 -39 25 -9
-3 -11 0 -7 11 5 12 2 15 -10 10 -9 -3 -19 -1 -23 5 -4 7 -3 8 4 4 17 -10 14
6 -5 29 -13 17 -15 17 -9 2 3 -11 2 -16 -4 -12 -6 3 -10 10 -10 16 0 5 -18 27
-40 49 -22 22 -40 34 -40 28 0 -9 -3 -8 -9 2 -6 8 -7 18 -5 22 6 10 -29 11
-42 1 -5 -5 -2 -1 8 8 16 15 15 17 -7 29 -14 7 -27 22 -31 32 -3 10 -10 16
-15 13 -5 -4 -9 -1 -9 5 0 6 -4 9 -9 5 -6 -3 -8 -14 -6 -25 2 -12 0 -18 -5
-15 -9 6 -6 37 5 55 4 6 1 9 -7 8 -7 -2 -12 2 -11 8 2 13 -44 37 -49 26z m27
-21 c3 -5 2 -12 -3 -15 -5 -3 -9 1 -9 9 0 17 3 19 12 6z m-31 -9 c3 -5 -1 -9
-9 -9 -8 0 -12 4 -9 9 3 4 7 8 9 8 2 0 6 -4 9 -8z m-27 -69 c0 -9 -4 -10 -14
-2 -7 6 -13 12 -13 14 0 1 6 2 13 2 8 0 14 -6 14 -14z m158 -22 c3 -5 2 -12
-3 -15 -5 -3 -9 1 -9 9 0 17 3 19 12 6z m-139 -23 c14 -17 15 -20 2 -9 -9 7
-22 10 -27 6 -7 -3 -8 0 -5 9 8 20 7 20 30 -6z m39 5 c-1 -10 5 -27 14 -38 16
-20 16 -20 -6 -2 -17 15 -21 30 -14 55 4 11 9 -2 6 -15z m-122 -6 c3 -8 -1
-14 -8 -14 -7 0 -11 6 -8 14 3 7 6 13 8 13 2 0 5 -6 8 -13z m165 -14 c-12 -15
-22 -18 -14 -4 4 5 0 11 -6 14 -7 3 -3 4 9 4 17 -1 19 -4 11 -14z m-198 4 c0
-2 -10 -12 -21 -23 -22 -19 -22 -19 -8 4 12 19 29 30 29 19z m110 -13 c0 -8
-19 -13 -24 -6 -3 5 1 9 9 9 8 0 15 -2 15 -3z m183 -8 c4 -10 1 -13 -8 -9 -8
3 -12 9 -9 14 7 12 11 11 17 -5z m-279 -46 c-6 -6 -10 -3 -10 10 0 13 4 16 10
10 7 -7 7 -13 0 -20z m278 15 c2 3 5 -2 5 -10 0 -10 -4 -12 -12 -5 -7 5 -14 8
-17 5 -2 -3 -5 2 -5 10 0 10 4 12 12 5 7 -5 14 -8 17 -5z m-212 1 c0 -3 -4 -8
-10 -11 -5 -3 -10 -1 -10 4 0 6 5 11 10 11 6 0 10 -2 10 -4z m166 -14 c0 -10
-6 -19 -13 -19 -8 0 -9 6 -2 19 5 10 11 18 12 18 2 0 3 -8 3 -18z m109 10 c-3
-3 1 -12 7 -21 10 -12 7 -12 -8 2 -11 9 -24 14 -29 10 -4 -5 -5 -3 -2 3 3 6
13 11 22 11 8 0 13 -3 10 -5z m-234 -19 c13 -16 12 -17 -3 -5 -9 8 -23 10 -29
6 -8 -4 -9 -3 -5 4 10 17 21 15 37 -5z m44 -3 c-3 -5 -12 -10 -18 -10 -7 0 -6
4 3 10 19 12 23 12 15 0z m-181 -19 c15 -17 15 -19 1 -25 -10 -3 -14 -2 -10 5
4 5 1 16 -5 24 -18 22 -6 18 14 -4z m357 5 c14 8 11 -2 -4 -14 -10 -8 -13 -6
-14 11 0 12 1 16 4 9 3 -6 9 -10 14 -6z m-127 -12 c3 -8 2 -12 -4 -9 -6 3 -10
10 -10 16 0 14 7 11 14 -7z m-257 -9 c0 -8 -4 -12 -9 -9 -5 3 -6 10 -3 15 9
13 12 11 12 -6z m75 -14 c-5 -14 -4 -14 14 -1 18 14 18 14 1 -6 -9 -11 -15
-23 -12 -26 3 -3 -5 -13 -17 -24 l-23 -19 20 24 c11 13 18 26 17 30 -20 35
-20 38 -7 38 8 0 11 -7 7 -16z m224 -6 c-1 -8 -5 -17 -8 -21 -5 -4 -4 16 1 34
3 9 9 -1 7 -13z m-341 -12 c-1 -10 3 -25 9 -33 9 -13 9 -13 -6 -2 -13 10 -16
26 -9 50 4 11 9 -2 6 -15z m415 11 c0 -8 -19 -13 -24 -6 -3 5 1 9 9 9 8 0 15
-2 15 -3z m-449 -21 c13 -16 12 -17 -3 -5 -9 8 -23 10 -29 6 -8 -4 -9 -3 -5 4
10 17 21 15 37 -5z m77 -10 c-6 -7 -12 -13 -13 -13 -2 0 -5 6 -8 13 -3 7 3 13
14 13 13 0 15 -3 7 -13z m202 13 c0 -2 -7 -7 -16 -10 -8 -3 -12 -2 -9 4 6 10
25 14 25 6z m37 -19 c1 -11 1 -18 0 -16 -2 2 -8 11 -15 20 -9 12 -9 16 1 16 7
0 14 -9 14 -20z m239 -22 c0 -13 -3 -22 -7 -20 -4 3 -6 13 -4 23 1 9 -2 24 -8
32 -9 12 -9 13 3 2 8 -7 15 -23 16 -37z m-560 13 c3 -4 -1 -5 -10 -4 -8 1 -18
5 -22 8 -3 4 1 5 10 4 8 -1 18 -5 22 -8z m295 -5 c13 -16 12 -17 -3 -4 -17 13
-22 21 -14 21 2 0 10 -8 17 -17z m123 8 c-9 -9 -34 -9 -34 -1 0 5 9 8 20 7 10
-1 17 -3 14 -6z m207 -18 c13 -16 12 -17 -3 -4 -17 13 -22 21 -14 21 2 0 10
-8 17 -17z m-712 -15 c-12 -23 -21 -24 -12 -1 5 12 3 14 -7 8 -8 -5 -11 -4 -7
2 3 5 13 10 21 10 11 0 13 -5 5 -19z m375 -7 c-7 -8 -54 -9 -49 -1 2 3 15 6
29 6 14 0 23 -2 20 -5z m181 0 c-9 -8 -36 -10 -30 -2 2 4 11 8 20 8 8 0 13 -3
10 -6z m145 3 c0 -8 -19 -13 -24 -6 -3 5 1 9 9 9 8 0 15 -2 15 -3z m-769 -17
c-6 -8 -7 -18 -3 -22 4 -5 1 -5 -6 -1 -10 6 -10 11 -1 22 6 8 14 14 16 14 3 0
0 -6 -6 -13z m180 -10 c-10 -9 -11 -8 -5 6 3 10 9 15 12 12 3 -3 0 -11 -7 -18z
m-96 3 c-3 -5 -12 -10 -18 -10 -7 0 -6 4 3 10 19 12 23 12 15 0z m190 -8 c-3
-3 -11 0 -18 7 -9 10 -8 11 6 5 10 -3 15 -9 12 -12z m42 -5 c1 -11 1 -18 0
-16 -2 2 -8 11 -15 20 -9 12 -9 16 1 16 7 0 14 -9 14 -20z m43 17 c0 -8 -19
-13 -24 -6 -3 5 1 9 9 9 8 0 15 -2 15 -3z m31 -11 c13 -16 12 -17 -3 -4 -17
13 -22 21 -14 21 2 0 10 -8 17 -17z m-231 4 c0 -2 -8 -11 -18 -20 -15 -14 -19
-15 -19 -2 0 8 4 12 8 9 4 -2 10 0 14 6 6 10 15 14 15 7z m595 -6 c3 -5 2 -12
-3 -15 -5 -3 -9 1 -9 9 0 17 3 19 12 6z m-518 -19 c0 -10 -6 -19 -13 -19 -9 0
-9 5 -1 19 7 10 13 18 14 18 1 0 1 -8 0 -18z m287 10 c2 -4 -4 -8 -14 -8 -10
0 -16 4 -14 8 3 4 9 8 14 8 5 0 11 -4 14 -8z m161 -2 c-3 -5 -12 -10 -18 -10
-7 0 -6 4 3 10 19 12 23 12 15 0z m40 0 c-3 -5 -12 -10 -18 -10 -7 0 -6 4 3
10 19 12 23 12 15 0z m-565 -25 c-6 -8 -8 -20 -4 -27 5 -10 4 -10 -6 -1 -11
10 -11 15 0 28 7 8 15 15 17 15 3 0 0 -7 -7 -15z m36 -10 c1 -8 -5 -20 -14
-27 -15 -11 -15 -11 -6 2 6 8 10 23 8 33 -1 11 0 16 4 13 3 -4 7 -13 8 -21z
m201 10 c0 -8 -4 -12 -9 -9 -5 3 -6 10 -3 15 9 13 12 11 12 -6z m-341 -21 c1
-9 0 -13 -4 -10 -3 4 -7 14 -8 22 -1 9 0 13 4 10 3 -4 7 -14 8 -22z m629 6 c3
-6 -1 -7 -9 -4 -18 7 -21 14 -7 14 6 0 13 -4 16 -10z m175 -20 c0 -5 -5 -10
-11 -10 -5 0 -7 5 -4 10 3 6 8 10 11 10 2 0 4 -4 4 -10z m-719 -17 c13 -16 12
-17 -3 -4 -17 13 -22 21 -14 21 2 0 10 -8 17 -17z m224 -3 c-3 -5 -12 -10 -18
-10 -7 0 -6 4 3 10 19 12 23 12 15 0z m-249 -15 c-1 -8 -5 -17 -8 -21 -5 -4
-4 16 1 34 3 9 9 -1 7 -13z m384 1 c0 -3 -4 -8 -10 -11 -5 -3 -10 -1 -10 4 0
6 5 11 10 11 6 0 10 -2 10 -4z m280 -6 c0 -5 -5 -10 -11 -10 -5 0 -7 5 -4 10
3 6 8 10 11 10 2 0 4 -4 4 -10z m-360 -40 c0 -5 -5 -10 -11 -10 -5 0 -7 5 -4
10 3 6 8 10 11 10 2 0 4 -4 4 -10z m75 0 c3 -5 1 -10 -4 -10 -6 0 -11 5 -11
10 0 6 2 10 4 10 3 0 8 -4 11 -10z m465 -14 c0 -3 -4 -8 -10 -11 -5 -3 -10 -1
-10 4 0 6 5 11 10 11 6 0 10 -2 10 -4z m-540 -20 c0 -3 -4 -8 -10 -11 -5 -3
-10 -1 -10 4 0 6 5 11 10 11 6 0 10 -2 10 -4z m84 -4 c3 -5 -1 -9 -9 -9 -8 0
-12 4 -9 9 3 4 7 8 9 8 2 0 6 -4 9 -8z m87 -9 c12 -16 12 -17 -2 -6 -9 7 -20
9 -24 5 -5 -4 -5 -1 -1 6 9 16 11 15 27 -5z m-171 -33 c0 -5 -5 -10 -11 -10
-5 0 -7 5 -4 10 3 6 8 10 11 10 2 0 4 -4 4 -10z m135 0 c3 -5 1 -10 -4 -10 -6
0 -11 5 -11 10 0 6 2 10 4 10 3 0 8 -4 11 -10z m40 -9 c3 -5 2 -12 -3 -15 -5
-3 -9 1 -9 9 0 17 3 19 12 6z m130 -11 c3 -6 -1 -7 -9 -4 -18 7 -21 14 -7 14
6 0 13 -4 16 -10z m-388 -25 c0 -8 -4 -12 -9 -9 -5 3 -6 10 -3 15 9 13 12 11
12 -6z m738 -15 c3 -5 1 -10 -4 -10 -6 0 -11 5 -11 10 0 6 2 10 4 10 3 0 8 -4
11 -10z"/>
<path d="M3190 3141 c0 -5 -9 -11 -20 -14 -11 -3 -20 -13 -20 -22 0 -9 -4 -14
-9 -11 -13 9 -44 -31 -35 -46 6 -10 4 -10 -9 1 -15 12 -17 11 -17 -3 0 -9 -4
-16 -9 -16 -17 0 -74 -58 -67 -68 3 -6 1 -14 -5 -18 -8 -4 -9 -3 -5 4 9 15 -7
15 -22 0 -9 -9 -7 -15 6 -25 15 -11 13 -12 -12 -3 -23 9 -27 8 -23 -4 4 -11 1
-13 -10 -9 -13 5 -15 2 -10 -11 4 -9 3 -15 -2 -11 -5 3 -32 -17 -60 -44 -28
-27 -51 -48 -51 -45 0 3 -6 -1 -14 -8 -8 -7 -12 -16 -10 -19 2 -4 -6 -9 -17
-12 -12 -3 -18 -10 -15 -15 3 -5 -4 -12 -15 -15 -14 -4 -20 -11 -16 -21 4 -10
1 -13 -7 -10 -7 3 -25 -8 -39 -25 -13 -16 -27 -28 -30 -25 -3 3 -8 -4 -12 -17
-6 -17 -9 -19 -16 -8 -7 12 -9 11 -9 -1 -1 -8 -17 -28 -36 -45 -72 -62 -192
-181 -197 -195 -4 -10 -6 -11 -6 -2 -1 10 -4 10 -15 0 -8 -7 -12 -16 -9 -20 2
-5 -1 -8 -7 -8 -6 0 -25 -13 -43 -30 -18 -16 -36 -30 -40 -30 -5 0 -5 -4 -2
-10 3 -5 2 -10 -4 -10 -8 0 -48 -35 -198 -177 -30 -29 -59 -53 -65 -53 -5 0
-6 -4 -3 -10 3 -5 2 -10 -3 -10 -5 0 -34 -22 -63 -50 -29 -27 -57 -50 -62 -50
-4 0 -5 -4 -2 -10 3 -5 2 -10 -3 -10 -5 0 -33 -22 -61 -49 -28 -27 -51 -48
-51 -46 0 1 -36 -33 -81 -76 -44 -44 -83 -79 -86 -79 -3 0 -24 -19 -47 -42
-50 -50 -176 -168 -176 -164 0 1 -40 -37 -89 -84 -49 -47 -125 -118 -169 -157
-44 -40 -100 -92 -124 -115 -25 -24 -69 -64 -97 -91 l-51 -47 0 -383 c1 -329
3 -384 15 -384 8 0 13 2 11 4 -2 3 17 23 42 46 26 23 66 61 90 84 23 24 45 43
48 43 3 0 25 19 48 43 24 23 82 78 131 122 48 44 105 96 125 115 52 48 214
197 279 256 30 27 76 69 102 94 26 25 87 81 135 125 48 44 104 96 124 115 21
19 66 61 101 93 102 94 248 229 295 272 23 22 84 78 135 125 51 47 121 113
156 146 34 34 63 60 63 58 0 -2 8 4 18 14 11 9 17 20 15 25 -2 4 2 7 9 7 7 0
52 37 101 83 48 45 94 88 102 95 9 7 12 18 9 24 -5 7 -2 8 5 3 8 -4 18 1 27
14 8 12 22 21 30 21 8 0 13 6 11 13 -1 6 5 11 13 9 8 -2 12 0 8 4 -10 10 32
45 45 37 6 -3 7 -1 3 5 -4 7 -2 12 5 12 9 0 9 3 0 14 -10 12 -9 14 6 10 12 -3
32 9 57 36 21 22 43 40 49 40 5 0 4 6 -2 14 -7 8 -8 17 -3 20 12 7 7 55 -6 68
-13 13 -4 40 10 32 6 -4 4 4 -3 17 -7 13 -12 24 -12 24 0 0 5 10 12 23 12 23
12 23 -11 11 -23 -12 -23 -12 -4 10 13 14 15 21 6 21 -8 0 -9 4 -4 13 5 6 9
23 7 37 -1 14 -3 62 -4 107 -2 48 -7 79 -13 76 -5 -4 -6 -1 -1 8 15 23 13 53
-4 67 -14 11 -14 11 3 6 16 -6 17 -4 7 14 -8 15 -8 22 2 25 8 4 8 6 0 6 -6 1
-9 10 -5 23 4 16 2 19 -9 12 -18 -11 -60 -14 -54 -3 3 4 13 6 23 4 9 -1 23 2
30 8 14 11 17 31 3 23 -5 -3 -15 2 -22 12 -13 15 -12 16 3 4 12 -10 18 -10 23
-1 4 6 1 15 -6 20 -8 5 -9 9 -3 9 5 0 10 11 10 25 0 14 -4 25 -8 25 -4 0 -8
-4 -8 -9z m-120 -141 c0 -5 -5 -10 -11 -10 -5 0 -7 5 -4 10 3 6 8 10 11 10 2
0 4 -4 4 -10z m-19 -57 c13 -16 12 -17 -3 -4 -17 13 -22 21 -14 21 2 0 10 -8
17 -17z m44 -23 c-3 -5 -12 -10 -18 -10 -7 0 -6 4 3 10 19 12 23 12 15 0z m85
-14 c0 -2 -8 -10 -17 -17 -16 -13 -17 -12 -4 4 13 16 21 21 21 13z m-124 -48
c3 -4 -1 -5 -10 -4 -8 1 -18 5 -22 8 -3 4 1 5 10 4 8 -1 18 -5 22 -8z m-190
-60 c3 -4 -1 -5 -10 -4 -8 1 -18 5 -22 8 -3 4 1 5 10 4 8 -1 18 -5 22 -8z
m265 -15 c13 -16 12 -17 -3 -4 -10 7 -18 15 -18 17 0 8 8 3 21 -13z m-148 -8
c4 -8 3 -16 -1 -19 -4 -3 -9 4 -9 15 -2 23 3 25 10 4z m-58 -14 c-9 -8 -36
-10 -30 -2 2 4 11 8 20 8 8 0 13 -3 10 -6z m225 -75 c0 -3 -4 -8 -10 -11 -5
-3 -10 -1 -10 4 0 6 5 11 10 11 6 0 10 -2 10 -4z m40 0 c0 -3 -4 -8 -10 -11
-5 -3 -10 -1 -10 4 0 6 5 11 10 11 6 0 10 -2 10 -4z m-124 -88 c4 -7 4 -10 -1
-6 -4 4 -15 2 -24 -5 -14 -11 -14 -10 -2 6 16 20 18 21 27 5z m64 7 c0 -7 -30
-13 -34 -7 -3 4 4 9 15 9 10 1 19 0 19 -2z m-25 -44 c-9 -8 -36 -10 -30 -2 2
4 11 8 20 8 8 0 13 -3 10 -6z m65 4 c0 -7 -30 -13 -34 -7 -3 4 4 9 15 9 10 1
19 0 19 -2z m-47 -60 c-3 -9 -8 -14 -10 -11 -3 3 -2 9 2 15 9 16 15 13 8 -4z
m62 -24 c-9 -8 -36 -10 -30 -2 2 4 11 8 20 8 8 0 13 -3 10 -6z m-24 -94 c-10
-9 -11 -8 -5 6 3 10 9 15 12 12 3 -3 0 -11 -7 -18z m-358 -82 c-3 -9 -8 -14
-10 -11 -3 3 -2 9 2 15 9 16 15 13 8 -4z m87 1 c0 -3 -4 -8 -10 -11 -5 -3 -10
-1 -10 4 0 6 5 11 10 11 6 0 10 -2 10 -4z"/>
<path d="M3887 2852 c-10 -10 -14 -21 -11 -24 3 -3 -2 -5 -12 -4 -9 0 -19 -5
-22 -13 -3 -9 0 -11 9 -6 8 5 11 4 6 -1 -5 -5 -18 -9 -30 -9 -13 -1 -21 -6
-19 -14 2 -8 -3 -11 -12 -8 -10 4 -13 1 -9 -9 3 -7 1 -14 -3 -14 -5 0 -20 -9
-34 -19 -22 -17 -23 -21 -10 -38 14 -16 13 -17 -2 -5 -27 22 -60 -2 -54 -39 2
-16 0 -27 -5 -23 -5 3 -7 9 -5 13 3 4 1 13 -5 21 -7 13 -9 12 -9 -2 0 -10 -4
-18 -9 -18 -13 0 -61 -48 -61 -60 0 -7 -6 -10 -12 -8 -13 5 -48 -32 -48 -51 0
-6 -6 -8 -14 -5 -8 3 -24 -7 -37 -25 -12 -17 -27 -27 -32 -24 -6 3 -7 1 -3 -5
4 -7 2 -12 -5 -12 -6 0 9 -20 34 -45 32 -33 50 -44 63 -39 15 5 16 4 4 -4 -12
-9 -10 -15 13 -38 19 -19 26 -22 21 -9 -5 13 -4 16 4 11 7 -4 12 -16 12 -27 0
-11 7 -22 16 -26 9 -3 38 -28 64 -54 27 -27 53 -49 59 -49 5 0 13 -9 16 -20 4
-11 11 -18 16 -15 5 4 9 -1 9 -9 0 -9 6 -16 14 -16 8 0 18 -9 21 -20 4 -11 11
-18 16 -15 5 4 9 2 9 -4 0 -5 10 -13 21 -16 15 -5 18 -10 9 -15 -8 -5 -7 -9 5
-14 9 -3 21 -4 25 -1 5 3 7 -4 5 -15 -3 -14 3 -22 21 -26 13 -3 22 -9 21 -13
-5 -9 60 -70 67 -63 3 3 6 -2 6 -11 0 -9 5 -19 12 -23 7 -5 8 -3 3 7 -5 7 29
-25 76 -71 46 -46 83 -88 82 -92 -2 -4 1 -7 6 -5 8 2 119 -101 360 -333 31
-30 74 -70 94 -87 21 -18 34 -33 30 -33 -4 0 3 -8 17 -18 23 -15 66 -56 265
-247 35 -33 127 -121 206 -195 79 -74 172 -162 206 -195 34 -33 98 -94 143
-135 45 -41 93 -86 106 -100 13 -14 25 -20 25 -15 1 6 2 192 3 415 1 223 6
411 10 419 6 10 5 12 -2 7 -7 -4 -12 -3 -12 2 0 6 -23 32 -51 59 -28 26 -100
95 -159 153 -59 58 -183 177 -275 265 -92 88 -179 173 -195 189 -15 15 -32 32
-36 37 -5 4 -28 26 -52 48 -24 23 -48 41 -53 41 -5 0 -9 5 -9 10 0 18 -52 60
-64 53 -6 -3 -8 -3 -4 1 4 5 -9 23 -28 42 -19 19 -34 39 -34 44 0 6 -4 9 -8 7
-5 -1 -31 21 -59 50 -28 29 -53 50 -56 47 -3 -3 -8 4 -12 16 -4 13 -12 19 -21
16 -8 -3 -12 -1 -9 4 3 5 -4 17 -16 27 -11 10 -36 33 -55 51 -19 17 -40 32
-47 32 -8 0 -7 4 3 10 12 8 12 10 1 10 -8 0 -29 16 -48 35 -19 20 -38 33 -44
30 -5 -4 -6 2 -2 11 4 12 3 15 -5 10 -7 -4 -12 -1 -12 9 0 9 -4 14 -9 10 -5
-3 -12 4 -16 15 -3 11 -11 20 -16 20 -15 0 -39 26 -32 34 6 6 -12 10 -29 7 -5
0 -8 6 -8 14 0 17 -34 37 -45 27 -5 -4 -5 -2 -2 5 7 12 -94 123 -113 123 -5 0
-10 7 -10 15 0 8 -7 15 -16 15 -9 0 -12 5 -8 13 6 10 4 10 -7 0 -7 -7 -18 -13
-23 -13 -6 0 -5 4 3 9 12 7 11 12 -1 30 -8 11 -18 18 -21 15 -4 -4 -9 1 -13
10 -8 21 -17 20 -37 -2z m16 -27 c-3 -9 -8 -14 -10 -11 -3 3 -2 9 2 15 9 16
15 13 8 -4z m24 -2 c-4 -3 -1 -13 6 -22 11 -14 10 -14 -5 -2 -16 12 -16 31 -1
31 4 0 3 -3 0 -7z m-16 -40 c13 -16 12 -17 -3 -4 -10 7 -18 15 -18 17 0 8 8 3
21 -13z m-31 3 c0 -2 -8 -10 -17 -17 -16 -13 -17 -12 -4 4 13 16 21 21 21 13z
m81 -33 c13 -16 12 -17 -3 -4 -10 7 -18 15 -18 17 0 8 8 3 21 -13z m-131 3 c0
-2 -8 -10 -17 -17 -16 -13 -17 -12 -4 4 13 16 21 21 21 13z m44 -18 c-3 -5 -9
-6 -14 -3 -5 3 -13 -3 -19 -12 -6 -10 -11 -13 -11 -7 0 5 5 15 10 20 13 13 41
14 34 2z m180 -14 c3 -8 2 -12 -4 -9 -6 3 -10 10 -10 16 0 14 7 11 14 -7z
m-127 -17 c0 -8 -6 -14 -14 -14 -9 0 -10 4 -2 14 6 7 12 13 14 13 1 0 2 -6 2
-13z m-120 -20 c0 -8 -6 -14 -14 -14 -9 0 -10 4 -2 14 6 7 12 13 14 13 1 0 2
-6 2 -13z m248 -7 c-3 -5 -12 -10 -18 -10 -7 0 -6 4 3 10 19 12 23 12 15 0z
m-327 -25 c-3 -3 -9 2 -12 12 -6 14 -5 15 5 6 7 -7 10 -15 7 -18z m255 10 c-3
-9 -8 -14 -10 -11 -3 3 -2 9 2 15 9 16 15 13 8 -4z m-262 -32 c13 -16 12 -17
-3 -4 -17 13 -22 21 -14 21 2 0 10 -8 17 -17z m-74 -21 c0 -10 -6 -19 -13 -19
-9 0 -9 5 -1 19 7 10 13 18 14 18 1 0 1 -8 0 -18z m140 3 c0 -8 -4 -12 -9 -9
-4 3 -8 9 -8 15 0 5 4 9 8 9 5 0 9 -7 9 -15z m174 -2 c13 -16 12 -17 -3 -4
-17 13 -22 21 -14 21 2 0 10 -8 17 -17z m64 -13 c3 -5 1 -10 -4 -10 -6 0 -11
5 -11 10 0 6 2 10 4 10 3 0 8 -4 11 -10z m-291 -18 c3 -5 -1 -9 -9 -9 -8 0
-12 4 -9 9 3 4 7 8 9 8 2 0 6 -4 9 -8z m46 2 c0 -8 -19 -13 -24 -6 -3 5 1 9 9
9 8 0 15 -2 15 -3z m25 -13 c3 -5 2 -12 -3 -15 -5 -3 -9 1 -9 9 0 17 3 19 12
6z m380 -12 c3 -3 -6 -5 -19 -5 -14 1 -28 4 -31 7 -3 3 6 5 19 5 14 -1 28 -4
31 -7z m-601 -21 c-3 -4 -11 -5 -19 -1 -21 7 -19 12 4 10 11 0 18 -5 15 -9z
m43 -3 c0 -8 -4 -12 -9 -9 -4 3 -8 9 -8 15 0 5 4 9 8 9 5 0 9 -7 9 -15z m440
-4 c0 -11 -5 -18 -9 -15 -4 3 -5 11 -1 19 7 21 12 19 10 -4z m78 0 c3 -5 2
-12 -3 -15 -5 -3 -9 1 -9 9 0 17 3 19 12 6z m-115 -5 c0 -3 -4 -8 -10 -11 -5
-3 -10 -1 -10 4 0 6 5 11 10 11 6 0 10 -2 10 -4z m-406 -27 c3 -3 -5 -5 -19
-5 -13 0 -22 3 -19 7 4 8 30 6 38 -2z m132 -1 c3 -4 -1 -5 -10 -4 -8 1 -18 5
-22 8 -3 4 1 5 10 4 8 -1 18 -5 22 -8z m129 -6 c-3 -3 -11 0 -18 7 -9 10 -8
11 6 5 10 -3 15 -9 12 -12z m-358 -7 c0 -8 -4 -12 -9 -9 -5 3 -6 10 -3 15 9
13 12 11 12 -6z m418 -5 c3 -5 1 -10 -4 -10 -6 0 -11 5 -11 10 0 6 2 10 4 10
3 0 8 -4 11 -10z m161 -5 c-1 -8 -5 -17 -8 -21 -5 -4 -4 16 1 34 3 9 9 -1 7
-13z m-518 -20 c-3 -3 -9 2 -12 12 -6 14 -5 15 5 6 7 -7 10 -15 7 -18z m56 -1
c3 -8 2 -12 -4 -9 -6 3 -10 10 -10 16 0 14 7 11 14 -7z m241 6 c3 -5 1 -10 -4
-10 -6 0 -11 5 -11 10 0 6 2 10 4 10 3 0 8 -4 11 -10z m-391 -22 c-3 -4 -9 -8
-15 -8 -5 0 -9 4 -9 8 0 5 7 9 15 9 8 0 12 -4 9 -9z m412 -40 c3 -4 -1 -5 -10
-4 -8 1 -18 5 -22 8 -3 4 1 5 10 4 8 -1 18 -5 22 -8z m59 3 c-9 -8 -36 -10
-30 -2 2 4 11 8 20 8 8 0 13 -3 10 -6z m-340 -41 c3 -5 1 -10 -4 -10 -6 0 -11
5 -11 10 0 6 2 10 4 10 3 0 8 -4 11 -10z m40 0 c3 -5 1 -10 -4 -10 -6 0 -11 5
-11 10 0 6 2 10 4 10 3 0 8 -4 11 -10z m125 6 c0 -3 -4 -8 -10 -11 -5 -3 -10
-1 -10 4 0 6 5 11 10 11 6 0 10 -2 10 -4z m36 -42 c1 -9 0 -13 -4 -10 -3 4 -7
14 -8 22 -1 9 0 13 4 10 3 -4 7 -14 8 -22z m-136 -24 c0 -5 -2 -10 -4 -10 -3
0 -8 5 -11 10 -3 6 -1 10 4 10 6 0 11 -4 11 -10z m-25 -20 c3 -5 1 -10 -4 -10
-6 0 -11 5 -11 10 0 6 2 10 4 10 3 0 8 -4 11 -10z m81 -2 c3 -4 -1 -5 -10 -4
-8 1 -18 5 -22 8 -3 4 1 5 10 4 8 -1 18 -5 22 -8z m179 -98 c3 -5 1 -10 -4
-10 -6 0 -11 5 -11 10 0 6 2 10 4 10 3 0 8 -4 11 -10z m45 -158 c0 -5 -7 -9
-15 -9 -8 0 -12 4 -9 9 3 4 9 8 15 8 5 0 9 -4 9 -8z"/>
</g>
</svg>
