<svg width="24" height="24" viewBox="0 0 24 24" fill="none" xmlns="http://www.w3.org/2000/svg">
<path d="M11.9956 0C13.666 0 15.2121 0.310985 16.6516 0.932977C18.1088 1.58162 19.3884 2.44354 20.4813 3.52758C21.5743 4.61162 22.4361 5.88225 23.0581 7.33948C23.6801 8.79672 24 10.3517 24 11.9956C24 13.6394 23.689 15.221 23.0581 16.6871C22.4361 18.1444 21.5743 19.415 20.4813 20.4991C19.3884 21.5831 18.1088 22.4361 16.6516 23.0581C15.2121 23.6801 13.666 24 11.9956 24C10.3251 24 8.77898 23.689 7.33951 23.0581C5.88227 22.4361 4.60269 21.5831 3.50977 20.4991C2.41684 19.415 1.55502 18.1444 0.933031 16.6871C0.311039 15.2299 0 13.666 0 11.9956C0 10.3251 0.311039 8.79672 0.933031 7.33948C1.55502 5.88225 2.41684 4.61162 3.50977 3.52758C4.60269 2.44354 5.88227 1.58162 7.33951 0.932977C8.77898 0.310985 10.3251 0 11.9956 0ZM11.9956 21.592C13.3284 21.592 14.5812 21.3432 15.7452 20.8456C16.9093 20.348 17.9312 19.6638 18.7931 18.8019C19.655 17.94 20.3391 16.9182 20.8367 15.7541C21.3343 14.5901 21.5831 13.3373 21.5831 12.0044C21.5831 10.6716 21.3343 9.45428 20.8367 8.28138C20.3391 7.11737 19.655 6.09551 18.7931 5.21584C17.9312 4.33617 16.9093 3.65197 15.7452 3.15438C14.5812 2.65678 13.3284 2.40799 11.9956 2.40799C10.6627 2.40799 9.40987 2.65678 8.24586 3.15438C7.08184 3.65197 6.05995 4.34505 5.19805 5.21584C4.33615 6.08663 3.65202 7.10848 3.15443 8.28138C2.65684 9.44539 2.40796 10.6894 2.40796 12.0044C2.40796 13.3195 2.65684 14.5901 3.15443 15.7541C3.65202 16.9182 4.33615 17.94 5.19805 18.8019C6.05995 19.6638 7.08184 20.348 8.24586 20.8456C9.40987 21.3432 10.6627 21.592 11.9956 21.592ZM13.1862 10.8138H18.0022V13.2218H13.1862V18.0022H10.8138V13.2218H5.99778V10.8138H10.8138V5.99778H13.1862V10.8138Z" fill="#19AD79"/>
</svg>
