<svg xmlns="http://www.w3.org/2000/svg" width="19" height="21" viewBox="0 0 19 21" fill="none">
    <path
        d="M5.558 2.4395L1.25303 6.0585L0 4.6305L4.41003 0.983498L5.56501 2.4395H5.558ZM9.45 3.0065C10.633 3.0065 11.739 3.23049 12.775 3.67149C13.79 4.11249 14.686 4.7215 15.456 5.4915C16.226 6.2615 16.835 7.1645 17.276 8.2005C17.738 9.2365 17.962 10.3355 17.962 11.4975C17.962 12.6595 17.731 13.7865 17.276 14.8225C16.835 15.8585 16.226 16.7545 15.456 17.5175C14.686 18.2805 13.79 18.8895 12.775 19.3515C11.739 19.7925 10.633 20.0165 9.45 20.0165C8.267 20.0165 7.161 19.7925 6.125 19.3515C5.11 18.8895 4.21403 18.2805 3.44403 17.5175C2.67403 16.7545 2.06501 15.8585 1.62401 14.8225C1.16201 13.7865 0.938019 12.6805 0.938019 11.4975C0.938019 10.3145 1.16901 9.2295 1.62401 8.2005C2.06501 7.1645 2.67403 6.2615 3.44403 5.4915C4.21403 4.7215 5.11 4.11249 6.125 3.67149C7.161 3.23049 8.267 3.0065 9.45 3.0065ZM9.45 18.1265C10.367 18.1265 11.228 17.9515 12.033 17.6085C12.838 17.2655 13.538 16.7895 14.14 16.1945C14.742 15.5995 15.211 14.8925 15.554 14.0875C15.897 13.2825 16.072 12.4215 16.072 11.5045C16.072 10.5875 15.897 9.7335 15.554 8.9425C15.211 8.1375 14.735 7.4375 14.14 6.8355C13.545 6.2335 12.838 5.7575 12.033 5.3935C11.228 5.0505 10.367 4.8755 9.45 4.8755C8.533 4.8755 7.672 5.0505 6.867 5.3935C6.062 5.7575 5.36203 6.2335 4.76003 6.8355C4.15803 7.4375 3.68902 8.1375 3.34602 8.9425C3.00302 9.7265 2.82803 10.5805 2.82803 11.5045C2.82803 12.4285 3.00302 13.2825 3.34602 14.0875C3.68902 14.8925 4.16503 15.5925 4.76003 16.1945C5.36203 16.7965 6.062 17.2655 6.867 17.6085C7.672 17.9515 8.533 18.1265 9.45 18.1265ZM8.19701 6.7795H10.71V10.5735L13.244 13.0865L11.347 14.9835L8.19701 11.8335V6.7865V6.7795ZM17.654 6.0655L13.293 2.4465L14.546 0.990504L18.907 4.6375L17.654 6.0655Z"
        fill="#555555" />
</svg>