<svg width="152" height="152" viewBox="0 0 152 152" fill="none" xmlns="http://www.w3.org/2000/svg">
<path d="M104.125 57.25C104.125 64.7092 101.162 71.8629 95.8874 77.1374C90.6129 82.4118 83.4592 85.375 76 85.375C68.5408 85.375 61.3871 82.4118 56.1126 77.1374C50.8382 71.8629 47.875 64.7092 47.875 57.25C47.875 49.7908 50.8382 42.6371 56.1126 37.3626C61.3871 32.0882 68.5408 29.125 76 29.125C83.4592 29.125 90.6129 32.0882 95.8874 37.3626C101.162 42.6371 104.125 49.7908 104.125 57.25Z" fill="#E0E0E0" stroke="#E0E0E0"/>
<path fill-rule="evenodd" clip-rule="evenodd" d="M1 76C1 56.1088 8.90176 37.0322 22.967 22.967C37.0322 8.90176 56.1088 1 76 1C95.8912 1 114.968 8.90176 129.033 22.967C143.098 37.0322 151 56.1088 151 76C151 95.8912 143.098 114.968 129.033 129.033C114.968 143.098 95.8912 151 76 151C56.1088 151 37.0322 143.098 22.967 129.033C8.90176 114.968 1 95.8912 1 76ZM76 10.375C63.6417 10.3757 51.5347 13.8659 41.0725 20.444C30.6104 27.0221 22.2183 36.4207 16.8622 47.5581C11.5061 58.6954 9.40362 71.1188 10.7969 83.3983C12.1901 95.6779 17.0224 107.314 24.7375 116.969C31.3938 106.244 46.0469 94.75 76 94.75C105.953 94.75 120.597 106.234 127.263 116.969C134.978 107.314 139.81 95.6779 141.203 83.3983C142.596 71.1188 140.494 58.6954 135.138 47.5581C129.782 36.4207 121.39 27.0221 110.927 20.444C100.465 13.8659 88.3583 10.3757 76 10.375Z" fill="#E0E0E0" stroke="#E0E0E0"/>
</svg>
