<svg width="20" height="15" viewBox="0 0 20 15" fill="none" xmlns="http://www.w3.org/2000/svg">
<path d="M7.27762 8.20082C7.87735 8.20082 8.59838 8.27493 9.43396 8.41644C10.2695 8.57142 11.0714 8.80055 11.8261 9.10378C12.5876 9.40702 13.2278 9.78438 13.7466 10.2426C14.2857 10.7008 14.5553 11.2332 14.5553 11.8329V14.5553H0V11.8329C0 11.2332 0.262826 10.7008 0.781694 10.2426C1.32078 9.78438 1.96768 9.40702 2.7224 9.10378C3.48385 8.80055 4.27899 8.57142 5.11457 8.41644C5.93668 8.27493 6.65771 8.20082 7.27092 8.20082H7.27762ZM3.69946 10.6873C2.52695 11.1456 1.90026 11.5296 1.80593 11.8464V12.7493H12.7291V11.8261C12.6348 11.5094 12.0081 11.1253 10.8423 10.6739C9.68331 10.2224 8.49056 10 7.27762 10C6.06468 10 4.86522 10.2291 3.69946 10.6873ZM9.8383 1.06468C10.5458 1.77223 10.903 2.63477 10.903 3.64556C10.903 4.65634 10.5458 5.49191 9.8383 6.20619C9.13075 6.92048 8.27493 7.2709 7.27762 7.2709C6.28032 7.2709 5.40434 6.91374 4.69679 6.20619C3.98924 5.49865 3.63209 4.64286 3.63209 3.64556C3.63209 2.64825 3.98924 1.77223 4.69679 1.06468C5.40434 0.357134 6.26684 0 7.27762 0C8.2884 0 9.12402 0.357134 9.8383 1.06468ZM5.98383 2.35849C5.62669 2.71563 5.4515 3.14691 5.4515 3.6523C5.4515 4.15769 5.62669 4.56199 5.98383 4.91913C6.34097 5.27627 6.77223 5.45148 7.27762 5.45148C7.78301 5.45148 8.21431 5.27627 8.57145 4.91913C8.92859 4.56199 9.10378 4.14421 9.10378 3.6523C9.10378 3.16039 8.92859 2.71563 8.57145 2.35849C8.21431 2.00135 7.78301 1.82614 7.27762 1.82614C6.77223 1.82614 6.34097 2.00135 5.98383 2.35849ZM12.7291 3.62534C12.7291 2.97844 12.6213 2.3585 12.4057 1.77899C12.1901 1.19273 11.8936 0.67386 11.5162 0.215638C11.6914 0.154991 11.8801 0.101076 12.0822 0.0606444C12.2844 0.0202132 12.5 0 12.7224 0C13.7332 0 14.5957 0.357134 15.3033 1.06468C16.0175 1.77223 16.368 2.63477 16.368 3.64556C16.368 4.65634 16.0108 5.49191 15.3033 6.20619C14.5957 6.92048 13.7332 7.2709 12.7224 7.2709C12.5135 7.2709 12.3181 7.25068 12.1294 7.21025C11.9407 7.16982 11.7588 7.12939 11.5836 7.08222H11.6105H11.5162C11.8936 6.624 12.1901 6.10512 12.4057 5.51887C12.6213 4.93262 12.7291 4.31942 12.7291 3.67252V3.62534ZM14.2453 8.31536C14.8585 8.66577 15.3639 9.1442 15.748 9.76415C16.1321 10.3774 16.341 11.0647 16.3747 11.8261V14.5485H20V11.8261C20 11.3342 19.8181 10.8962 19.4542 10.4986C19.0903 10.1011 18.6253 9.75741 18.066 9.46765C17.5067 9.17789 16.8868 8.93532 16.2062 8.74664C15.5256 8.54448 14.872 8.39623 14.2386 8.32211L14.2453 8.31536Z" fill="#212121"/>
</svg>
