<svg xmlns="http://www.w3.org/2000/svg" width="29" height="28" viewBox="0 0 29 28" fill="none">
    <path
        d="M21.7298 15.1713C21.7298 15.6913 21.5498 16.1213 21.1998 16.4713C20.8498 16.8213 20.4298 17.0013 19.9298 17.0013H5.50983L0.0898438 22.3813V2.58124C0.0898438 2.09124 0.269812 1.67125 0.619812 1.31125C0.969812 0.961249 1.4098 0.78125 1.9198 0.78125H19.9298C20.4198 0.78125 20.8498 0.961249 21.1998 1.31125C21.5498 1.66125 21.7298 2.08124 21.7298 2.58124V15.1713ZM27.1098 6.17126C27.6298 6.17126 28.0598 6.35126 28.4098 6.70126C28.7598 7.05126 28.9398 7.49125 28.9398 8.00125V27.8012L23.5198 22.3813H8.74982C8.25982 22.3813 7.88979 22.2013 7.65979 21.8513C7.42979 21.5013 7.30981 21.0812 7.30981 20.5812V18.7913H23.5198V6.16125H27.1098V6.17126Z"
        fill="#555555" />
</svg>