<svg xmlns="http://www.w3.org/2000/svg" width="10" height="10" viewBox="0 0 10 10" fill="none">
    <path
        d="M5.00199 10C4.31069 10 3.65912 9.86518 3.04728 9.59555C2.44338 9.33385 1.91101 8.98096 1.46206 8.52894C1.00914 8.07691 0.655542 7.54956 0.393325 6.94686C0.131108 6.33227 0 5.68199 0 4.99603C0 4.31006 0.131108 3.66376 0.393325 3.05709C0.655542 2.4425 1.00914 1.91118 1.46206 1.45916C1.91498 1.00713 2.44338 0.654239 3.04728 0.392542C3.66309 0.130845 4.31466 0 5.00199 0C5.68931 0 6.34485 0.130845 6.95669 0.392542C7.56059 0.654239 8.08899 1.00713 8.54191 1.45916C8.99483 1.91118 9.34843 2.4425 9.61065 3.05709C9.87286 3.65979 10 4.3061 10 4.99603C10 5.68595 9.86889 6.33624 9.61065 6.94686C9.34843 7.54956 8.99483 8.07691 8.54191 8.52894C8.08899 8.98096 7.56059 9.33385 6.95669 9.59555C6.34088 9.86518 5.68931 10 5.00199 10ZM3.92531 7.67247L8.39491 3.21173L7.64005 2.44646L3.92133 6.16971L2.35598 4.60745L1.60111 5.36082L3.92133 7.67644L3.92531 7.67247Z"
        fill="#19AD79" />
</svg>