<svg xmlns="http://www.w3.org/2000/svg" width="28" height="28" viewBox="0 0 28 28" fill="none">
    <g clip-path="url(#clip0_227_398)">
        <path fill-rule="evenodd" clip-rule="evenodd"
            d="M17.4142 9.36058L16.8354 9.38324C15.4219 9.18796 13.9988 9.666 12.9899 10.6749C11.981 11.6838 11.503 13.1071 11.6982 14.5205L11.7911 15.1922C11.0808 14.5958 10.6706 13.7159 10.6706 12.7884C10.6706 11.8609 11.0808 10.981 11.7911 10.3846C13.0493 9.328 14.7107 8.88289 16.3287 9.16874L17.4142 9.36058ZM18.6566 10.6599L21.5127 10.2769C19.8691 7.61474 15.4021 6.53063 12.3016 8.11709C14.2132 6.70245 16.788 6.36912 19.0538 7.37797C18.739 6.32547 18.872 5.18973 19.4213 4.23836C19.9705 3.28691 20.8876 2.60397 21.9565 2.35023L19.3128 1.47769C19.2846 1.4684 19.2565 1.45945 19.2283 1.45041L18.0822 3.87411L18.5611 1.26031C16.9027 0.846205 15.1794 0.843872 13.5382 1.23812L13.8075 3.2912L13.0402 1.37066C12.2395 1.60484 11.4625 1.93524 10.7268 2.35999C10.0989 2.7225 9.51564 3.1456 8.98313 3.62003L9.50036 4.45702L8.62922 3.94992C7.64354 4.91278 6.85432 6.061 6.30849 7.32961L8.82035 8.79651L6.05819 7.9678C5.89825 8.41792 5.76801 8.88102 5.66967 9.35452C5.38665 10.7172 5.37978 12.1224 5.64901 13.4871L7.46018 13.2332L5.7098 13.7926C5.9453 15.0361 5.97529 16.2937 5.81187 17.5197L6.94201 17.2439L5.73882 17.993C5.36722 20.1145 4.4131 22.1215 2.94141 23.7713L4.7399 22.7218C7.24259 21.2611 9.02602 18.8896 9.76832 16.1651C8.53419 14.151 8.5868 11.7458 10.1024 10.1139C10.0244 10.2376 9.95006 10.3655 9.88015 10.4983C9.03798 12.0976 9.03798 14.0956 9.88015 15.6949C10.4387 16.7556 10.5954 18.0292 10.3144 19.2242C10.0335 20.419 9.33881 21.4327 8.38957 22.0331C10.0744 21.5766 11.4774 21.3876 12.6815 21.3947L12.6779 21.3936L13.8115 21.3049C15.4572 21.176 17.0973 21.6155 18.4579 22.5499C19.605 23.3375 20.9874 23.708 22.3747 23.5993C21.2679 23.8896 19.8557 23.7678 18.2477 22.8293C17.473 22.3772 16.9917 22.1747 16.3236 22.1622C19.103 23.4256 20.7694 25.9199 24.2676 27.1097C23.0723 22.5092 22.2116 19.8571 21.8714 15.1109L19.6116 14.315C18.7868 14.0245 18.141 13.2887 17.886 12.3487L21.9167 13.5794L18.9858 11.967L22.2691 13.2438C22.3805 14.6904 22.6997 17.6317 23.6037 18.7385L24.2142 18.2474C23.5348 16.9877 23.1594 15.5867 23.118 14.1561L23.0208 10.8044L18.6566 10.6599Z"
            fill="#231F20" />
    </g>
    <defs>
        <clipPath id="clip0_227_398">
            <rect width="28" height="28" fill="white" />
        </clipPath>
    </defs>
</svg>