<svg width="16" height="16" viewBox="0 0 16 16" fill="none" xmlns="http://www.w3.org/2000/svg">
<path d="M4.16406 10.271H5.84375V11.9507H4.16406V10.271ZM4.16406 6.95068H5.84375V8.59131H4.16406V6.95068ZM4.16406 3.59131H5.84375V5.271H4.16406V3.59131ZM7.52344 10.271H12.5234V11.9507H7.52344V10.271ZM7.52344 6.95068H12.5234V8.59131H7.52344V6.95068ZM7.52344 3.59131H12.5234V5.271H7.52344V3.59131ZM15.1016 0.270996C15.2839 0.270996 15.4531 0.342611 15.6094 0.48584C15.7656 0.629069 15.8438 0.80485 15.8438 1.01318V14.5288C15.8438 14.7111 15.7656 14.8804 15.6094 15.0366C15.4531 15.1929 15.2839 15.271 15.1016 15.271H1.58594C1.3776 15.271 1.20182 15.1929 1.05859 15.0366C0.915365 14.8804 0.84375 14.7111 0.84375 14.5288V1.01318C0.84375 0.518392 1.09115 0.270996 1.58594 0.270996H15.1016ZM14.1641 1.95068H2.52344V13.5913H14.1641V1.95068Z" fill="#1B2839"/>
</svg>
