<svg width="24" height="6" viewBox="0 0 24 6" fill="none" xmlns="http://www.w3.org/2000/svg">
<path d="M4.48001 4.47998C3.98001 4.97998 3.36 5.23999 2.63 5.23999C1.9 5.23999 1.28 4.98998 0.770004 4.47998C0.250004 3.97998 0 3.35997 0 2.62997C0 1.89997 0.260004 1.27999 0.770004 0.769989C1.28 0.249989 1.91 0 2.63 0C3.35 0 3.97001 0.259989 4.48001 0.769989C4.99001 1.27999 5.24001 1.90997 5.24001 2.62997C5.24001 3.34997 4.99001 3.96998 4.48001 4.47998ZM13.48 4.47998C12.98 4.97998 12.36 5.23999 11.63 5.23999C10.9 5.23999 10.28 4.98998 9.77 4.47998C9.25 3.97998 9 3.35997 9 2.62997C9 1.89997 9.26 1.27999 9.77 0.769989C10.28 0.259989 10.91 0 11.63 0C12.35 0 12.97 0.259989 13.48 0.769989C13.98 1.28999 14.24 1.90997 14.24 2.62997C14.24 3.34997 13.99 3.96998 13.48 4.47998ZM22.48 4.47998C21.98 4.97998 21.36 5.23999 20.63 5.23999C19.9 5.23999 19.28 4.98998 18.77 4.47998C18.25 3.97998 18 3.35997 18 2.62997C18 1.89997 18.26 1.27999 18.77 0.769989C19.28 0.259989 19.91 0 20.63 0C21.35 0 21.97 0.259989 22.48 0.769989C22.98 1.28999 23.24 1.90997 23.24 2.62997C23.24 3.34997 22.99 3.96998 22.48 4.47998Z" fill="#206A7E"/>
</svg>
