<svg width="17" height="13" viewBox="0 0 17 13" fill="none" xmlns="http://www.w3.org/2000/svg">
<path d="M0.00589626 2.11469V1.59632C0.0176773 1.15453 0.182627 0.777552 0.500715 0.465355C0.818802 0.153158 1.19579 0 1.63758 0H15.333C15.7748 0 16.1577 0.153158 16.4817 0.465355C16.8056 0.777552 16.9765 1.15453 16.9882 1.59632V2.11469L16.5936 1.4903L8.49414 6.54436L0.39469 1.4903L0 2.11469H0.00589626ZM16.9941 3.00416V11.1449C16.9824 11.5866 16.8115 11.9577 16.4875 12.264C16.1636 12.5704 15.7807 12.7176 15.3389 12.7176H1.66702C1.22524 12.7176 0.842346 12.5645 0.518368 12.264C0.19439 11.9577 0.0235735 11.5866 0.0117925 11.1449V3.00416L8.5059 8.30562L17 3.00416H16.9941Z" fill="#4B4B4B"/>
</svg>
