<svg xmlns="http://www.w3.org/2000/svg" width="21" height="21" viewBox="0 0 21 21" fill="none">
    <path
        d="M10.073 0.4235C11.466 0.4235 12.782 0.689507 14.014 1.20751C15.232 1.73251 16.289 2.45351 17.199 3.36351C18.109 4.27351 18.837 5.34451 19.376 6.57651C19.901 7.79451 20.16 9.0965 20.16 10.4895C20.16 11.8825 19.894 13.1985 19.376 14.4305C18.837 15.6485 18.109 16.7055 17.199 17.6155C16.289 18.5255 15.225 19.2535 14.014 19.7925C12.782 20.3175 11.473 20.5765 10.073 20.5765C8.67297 20.5765 7.37099 20.3105 6.15999 19.7925C4.92799 19.2535 3.85697 18.5255 2.94697 17.6155C2.03697 16.7055 1.31596 15.6415 0.790961 14.4305C0.265961 13.1985 0 11.8895 0 10.4895C0 9.0895 0.265961 7.78751 0.790961 6.57651C1.31596 5.34451 2.03697 4.27351 2.94697 3.36351C3.85697 2.45351 4.92799 1.73251 6.15999 1.20751C7.37799 0.682507 8.67997 0.4235 10.073 0.4235ZM10.073 18.6935C11.207 18.6795 12.264 18.4555 13.251 18.0285C14.252 17.6015 15.12 17.0205 15.862 16.2785C16.604 15.5365 17.185 14.6685 17.612 13.6675C18.039 12.6805 18.263 11.6235 18.277 10.4895C18.263 9.3555 18.039 8.29851 17.612 7.31151C17.185 6.32451 16.597 5.46351 15.855 4.72851C15.106 3.99351 14.245 3.40551 13.258 2.97851C12.271 2.53751 11.214 2.30651 10.08 2.29251C8.94598 2.30651 7.88899 2.53751 6.90199 2.97851C5.91499 3.40551 5.05399 3.98651 4.31899 4.72851C3.58399 5.47051 2.99599 6.33151 2.56899 7.31151C2.12799 8.31251 1.897 9.3695 1.883 10.4895C1.897 11.6235 2.12097 12.6805 2.54797 13.6675C2.98897 14.6685 3.58399 15.5365 4.31899 16.2785C5.06099 17.0135 5.92199 17.6015 6.90199 18.0285C7.90299 18.4555 8.95998 18.6795 10.08 18.6935H10.073ZM6.30696 7.9835C6.30696 6.9475 6.67097 6.0655 7.40597 5.3375C8.13397 4.6095 9.01599 4.23851 10.052 4.23851H10.15C11.165 4.23851 12.04 4.6025 12.761 5.3235C13.482 6.0445 13.846 6.91251 13.846 7.93451V8.01151C13.846 9.45351 13.377 10.4125 12.446 10.8815C11.508 11.3505 11.046 11.8055 11.046 12.2465V13.0305H9.14896V12.0435C9.14896 11.3505 9.40098 10.8115 9.91198 10.4195C10.423 10.0275 10.808 9.75451 11.067 9.60751C11.333 9.42551 11.55 9.1945 11.718 8.9215C11.886 8.6485 11.977 8.3335 11.977 7.9835V7.93451C11.977 7.42351 11.795 6.9895 11.424 6.6185C11.053 6.2475 10.612 6.06551 10.108 6.06551H10.059C9.534 6.06551 9.09298 6.2475 8.72898 6.6045C8.36498 6.9685 8.18997 7.4025 8.18997 7.9065V7.9835H6.32098H6.30696ZM11.648 15.5435C11.648 15.2005 11.522 14.9065 11.277 14.6545C11.032 14.4095 10.738 14.2835 10.388 14.2835C10.038 14.2835 9.74396 14.4095 9.49896 14.6545C9.25396 14.8995 9.12799 15.1935 9.12799 15.5435C9.12799 15.8935 9.25396 16.1805 9.49896 16.4325C9.74396 16.6775 10.038 16.8035 10.388 16.8035C10.738 16.8035 11.025 16.6775 11.277 16.4325C11.529 16.1875 11.648 15.8935 11.648 15.5435Z"
        fill="#555555" />
</svg>