<svg xmlns="http://www.w3.org/2000/svg" width="20" height="20" viewBox="0 0 20 20" fill="none">
    <path
        d="M4.61539 17.6734C4.61539 18.3209 4.38746 18.8758 3.93874 19.3241C3.49003 19.7723 2.94161 20 2.30771 20C1.6738 20 1.13249 19.7723 0.676646 19.3241C0.227929 18.8758 0 18.3209 0 17.6734C0 17.026 0.227929 16.4995 0.676646 16.0441C1.12536 15.5959 1.66668 15.3682 2.30771 15.3682C2.94873 15.3682 3.4829 15.5959 3.93874 16.0441C4.38746 16.4923 4.61539 17.0331 4.61539 17.6734ZM3.58975 9.98932H8.72507V12.5649H11.282V9.98932H16.4174V12.5649H18.9744V7.43507H1.0399V12.5649H3.59688V9.98932H3.58975ZM12.3077 2.30522C12.3077 2.93845 12.0798 3.47919 11.6311 3.93454C11.1823 4.3899 10.6339 4.61046 10 4.61046C9.3661 4.61046 8.82478 4.38278 8.36894 3.93454C7.9131 3.4863 7.69232 2.94556 7.69232 2.30522C7.69232 1.66488 7.92022 1.13127 8.36894 0.675914C8.81766 0.22056 9.35897 0 10 0C10.641 0 11.1752 0.227675 11.6311 0.675914C12.0869 1.12415 12.3077 1.672 12.3077 2.30522ZM12.3077 17.6734C12.3077 18.3209 12.0798 18.8758 11.6311 19.3241C11.1823 19.7723 10.6339 20 10 20C9.3661 20 8.82478 19.7723 8.36894 19.3241C7.92022 18.8758 7.69232 18.3209 7.69232 17.6734C7.69232 17.026 7.92022 16.4995 8.36894 16.0441C8.81766 15.5959 9.35897 15.3682 10 15.3682C10.641 15.3682 11.1752 15.5959 11.6311 16.0441C12.0798 16.4923 12.3077 17.0331 12.3077 17.6734ZM20 17.6734C20 18.3209 19.7721 18.8758 19.3234 19.3241C18.8746 19.7723 18.3262 20 17.6923 20C17.0584 20 16.5171 19.7723 16.0613 19.3241C15.6054 18.8758 15.3846 18.3209 15.3846 17.6734C15.3846 17.026 15.6125 16.4995 16.0613 16.0441C16.51 15.5959 17.0513 15.3682 17.6923 15.3682C18.3333 15.3682 18.8675 15.5959 19.3234 16.0441C19.7792 16.4923 20 17.0331 20 17.6734Z"
        fill="#929AAC" />
</svg>