<svg xmlns="http://www.w3.org/2000/svg" width="20" height="20" viewBox="0 0 20 20" fill="none">
    <path
        d="M17.4878 0H2.5122C1.81301 0 1.21951 0.2442 0.731707 0.732601C0.243902 1.221 0 1.80708 0 2.49084V17.4847C0 18.1848 0.243902 18.779 0.731707 19.2674C1.21951 19.7558 1.81301 20 2.5122 20H17.4878C18.187 20 18.7805 19.7558 19.2683 19.2674C19.7561 18.779 20 18.1848 20 17.4847V2.49084C20 1.80708 19.7561 1.221 19.2683 0.732601C18.7805 0.2442 18.187 0 17.4878 0ZM17.4878 13.7485H13.7561C13.6098 14.5788 13.2114 15.2788 12.561 15.8486C11.9106 16.4021 11.1545 16.6789 10.2927 16.6789C10.2439 16.6789 10.187 16.6789 10.122 16.6789C10.0732 16.6789 10.0244 16.6789 9.97561 16.6789H10C9.95122 16.6789 9.90244 16.6789 9.85366 16.6789C9.80488 16.6789 9.7561 16.6789 9.70732 16.6789C8.84553 16.6789 8.08943 16.4021 7.43902 15.8486C6.78862 15.2951 6.39837 14.6032 6.26829 13.7729L6.2439 13.7485H2.5122V2.49084H17.4878V13.7485Z"
        fill="white" />
</svg>