<svg xmlns="http://www.w3.org/2000/svg" width="16" height="18" viewBox="0 0 16 18" fill="none">
    <path
        d="M0.0139282 17.197V14.047C1.04993 13.459 2.17699 12.99 3.40199 12.654C4.62699 12.318 5.89394 12.15 7.20294 12.15H7.59498H7.56696H7.93798C9.25398 12.15 10.5209 12.318 11.7529 12.654C12.9849 12.99 14.133 13.473 15.197 14.096L15.12 14.047V17.197H0H0.0139282ZM11.361 4.59C11.361 5.64 10.9899 6.53599 10.2549 7.27099C9.51293 8.00599 8.62396 8.377 7.57396 8.377C6.52396 8.377 5.62799 8.00599 4.89299 7.27099C4.15799 6.52899 3.78694 5.64 3.78694 4.59C3.78694 3.54 4.15799 2.64401 4.89299 1.90901C5.63499 1.17401 6.52396 0.802994 7.57396 0.802994C8.62396 0.802994 9.51993 1.17401 10.2549 1.90901C10.9899 2.65101 11.361 3.54 11.361 4.59Z"
        fill="#555555" />
</svg>