<svg width="29" height="29" viewBox="0 0 29 29" fill="none" xmlns="http://www.w3.org/2000/svg">
<path d="M28.83 25.2692C28.76 26.2292 28.38 27.0492 27.69 27.7292C27 28.4092 26.17 28.7792 25.21 28.8492H3.57996C2.63996 28.7792 1.82995 28.3992 1.13995 27.7292C0.449954 27.0592 0.07 26.2192 0 25.2292V3.62924C0.07 2.66924 0.449954 1.83923 1.13995 1.14923C1.82995 0.459231 2.66 0.0892456 3.62 0.0392456H25.25C26.19 0.0892456 27 0.459231 27.69 1.14923C28.38 1.83923 28.76 2.66924 28.83 3.62924V25.2592V25.2692ZM3.60999 23.4392H25.21L18 14.4392L12.62 21.6492L9 16.2292L3.62 23.4392H3.60999Z" fill="#555555"/>
</svg>
