<svg width="21" height="24" viewBox="0 0 21 24" fill="none" xmlns="http://www.w3.org/2000/svg">
<path d="M10.3438 7.12516C9.44097 7.12516 8.65972 6.7953 8 6.13558C7.34028 5.47586 7.01042 4.69461 7.01042 3.79183C7.01042 2.88905 7.34028 2.1078 8 1.44808C8.65972 0.788357 9.44097 0.458496 10.3438 0.458496C11.2465 0.458496 12.0278 0.788357 12.6875 1.44808C13.3472 2.1078 13.6771 2.88905 13.6771 3.79183C13.6771 4.69461 13.3472 5.47586 12.6875 6.13558C12.0278 6.7953 11.2465 7.12516 10.3438 7.12516ZM10.3438 11.0314C13.1215 8.42725 16.4549 7.12516 20.3438 7.12516V19.3127C16.4896 19.3127 13.1563 20.6321 10.3438 23.271C7.53125 20.6321 4.19792 19.3127 0.34375 19.3127V7.12516C4.23264 7.12516 7.56597 8.42725 10.3438 11.0314Z" fill="black"/>
</svg>
