<svg xmlns="http://www.w3.org/2000/svg" width="20" height="20" viewBox="0 0 20 20" fill="none">
    <path
        d="M8.63633 2.50146C7.42268 2.50146 6.23628 2.86135 5.22717 3.53562C4.21806 4.20989 3.43155 5.16825 2.9671 6.28952C2.50266 7.41079 2.38114 8.6446 2.61791 9.83493C2.85468 11.0253 3.43911 12.1186 4.29729 12.9768C5.15547 13.835 6.24886 14.4194 7.43919 14.6562C8.62952 14.893 9.86333 14.7715 10.9846 14.307C12.1059 13.8426 13.0642 13.0561 13.7385 12.047C14.4128 11.0378 14.7727 9.85144 14.7727 8.63779C14.7726 7.01037 14.126 5.44963 12.9753 4.29887C11.8245 3.14811 10.2638 2.50157 8.63633 2.50146V2.50146Z"
        stroke="black" stroke-width="2" stroke-miterlimit="10" />
    <path d="M13.2139 13.2158L17.5012 17.5031" stroke="black" stroke-width="2"
        stroke-miterlimit="10" stroke-linecap="round" />
</svg>